<svg width="52" height="52" viewBox="0 0 52 52" fill="none" xmlns="http://www.w3.org/2000/svg">
<g clip-path="url(#clip0_778_1019)">
<path d="M34.9948 26.1562H5.36227V36.846H34.9948V26.1562Z" stroke="#202124" stroke-miterlimit="10" stroke-linecap="round" stroke-linejoin="round"/>
<path d="M11.2773 21.6289H5.55463" stroke="#202124" stroke-miterlimit="10" stroke-linecap="round" stroke-linejoin="round"/>
<circle cx="1.01559" cy="21.6289" r="1.01562" stroke="#202124" stroke-miterlimit="10" stroke-linecap="round" stroke-linejoin="round"/>
<path d="M11.2773 12.4121H5.8063" stroke="#202124" stroke-miterlimit="10" stroke-linecap="round" stroke-linejoin="round"/>
<circle cx="1.01559" cy="12.4121" r="1.01562" stroke="#202124" stroke-miterlimit="10" stroke-linecap="round" stroke-linejoin="round"/>
<circle cx="14.4982" cy="17.0215" r="1.01562" stroke="#202124" stroke-miterlimit="10" stroke-linecap="round" stroke-linejoin="round"/>
<path d="M10.0281 17.0215H3.16284" stroke="#202124" stroke-miterlimit="10" stroke-linecap="round" stroke-linejoin="round"/>
<path d="M5.11212 26.1562H1.01559" stroke="#202124" stroke-miterlimit="10" stroke-linecap="round" stroke-linejoin="round"/>
<path d="M40.0862 16.3867H34.9947V36.8475H49.7907V27.9778C49.7907 27.0946 49.5045 26.2352 48.975 25.5287L43.3476 18.019C42.5777 16.9914 41.3694 16.3867 40.0862 16.3867Z" stroke="#202124" stroke-miterlimit="10" stroke-linecap="round" stroke-linejoin="round"/>
<path d="M34.9948 28.0546V20.6934H39.98L45.4962 28.0546H34.9948Z" stroke="#202124" stroke-miterlimit="10" stroke-linecap="round" stroke-linejoin="round"/>
<path d="M34.9948 36.8466H5.36227V10.1593C5.36227 7.90637 7.18867 6.08008 9.44153 6.08008H30.9154C33.1684 6.08008 34.9947 7.90648 34.9947 10.1593V36.8466H34.9948Z" stroke="#202124" stroke-miterlimit="10" stroke-linecap="round" stroke-linejoin="round"/>
<path d="M9.8948 41.6779H4.1687V36.8457H50.9843V41.6779H45.2472" stroke="#202124" stroke-miterlimit="10" stroke-linecap="round" stroke-linejoin="round"/>
<path d="M36.0157 41.6797H19.1434" stroke="#202124" stroke-miterlimit="10" stroke-linecap="round" stroke-linejoin="round"/>
<path d="M14.5053 45.9191C17.0033 45.9191 19.0283 43.8879 19.0283 41.3824C19.0283 38.8769 17.0033 36.8457 14.5053 36.8457C12.0073 36.8457 9.98233 38.8769 9.98233 41.3824C9.98233 43.8879 12.0073 45.9191 14.5053 45.9191Z" stroke="#202124" stroke-miterlimit="10" stroke-linecap="round" stroke-linejoin="round"/>
<path d="M40.6283 45.9191C43.1263 45.9191 45.1513 43.8879 45.1513 41.3824C45.1513 38.8769 43.1263 36.8457 40.6283 36.8457C38.1304 36.8457 36.1053 38.8769 36.1053 41.3824C36.1053 43.8879 38.1304 45.9191 40.6283 45.9191Z" stroke="#202124" stroke-miterlimit="10" stroke-linecap="round" stroke-linejoin="round"/>
</g>
<defs>
<clipPath id="clip0_778_1019">
<rect width="52" height="52" fill="white"/>
</clipPath>
</defs>
</svg>
