<svg width="53" height="52" viewBox="0 0 53 52" fill="none" xmlns="http://www.w3.org/2000/svg">
<g clip-path="url(#clip0_778_1041)">
<mask id="mask0_778_1041" style="mask-type:luminance" maskUnits="userSpaceOnUse" x="0" y="0" width="53" height="52">
<path d="M0.333374 3.8147e-06H52.3334V52H0.333374V3.8147e-06Z" fill="white"/>
</mask>
<g mask="url(#mask0_778_1041)">
<path d="M47.2552 34.3164H49.7942C50.6322 34.3164 51.3177 33.6309 51.3177 32.7929V30.2539H45.703" stroke="#202124" stroke-miterlimit="22.926" stroke-linecap="round" stroke-linejoin="round"/>
<path d="M6.42708 34.3164H2.87229C2.0346 34.3164 1.34895 33.6309 1.34895 32.7929V30.2539H7.97926" stroke="#202124" stroke-miterlimit="22.926" stroke-linecap="round" stroke-linejoin="round"/>
<path d="M18.6145 34.3164H25.927" stroke="#202124" stroke-miterlimit="22.926" stroke-linecap="round" stroke-linejoin="round"/>
<path d="M12.5208 40.4102C15.8772 40.4102 18.6146 37.6727 18.6146 34.3164C18.6146 30.9601 15.8772 28.2227 12.5208 28.2227C9.16449 28.2227 6.42708 30.9601 6.42708 34.3164C6.42708 37.6727 9.16449 40.4102 12.5208 40.4102Z" stroke="#202124" stroke-miterlimit="22.926" stroke-linecap="round" stroke-linejoin="round"/>
<path d="M12.5209 36.3477C13.6397 36.3477 14.5521 35.4352 14.5521 34.3164C14.5521 33.1976 13.6397 32.2851 12.5209 32.2851C11.4021 32.2851 10.4896 33.1976 10.4896 34.3164C10.4896 35.4352 11.4021 36.3477 12.5209 36.3477Z" stroke="#202124" stroke-miterlimit="22.926" stroke-linecap="round" stroke-linejoin="round"/>
<path d="M41.1614 40.4102C44.5177 40.4102 47.2551 37.6727 47.2551 34.3164C47.2551 30.9601 44.5177 28.2227 41.1614 28.2227C37.8051 28.2227 35.0676 30.9601 35.0676 34.3164C35.0676 37.6727 37.8051 40.4102 41.1614 40.4102Z" stroke="#202124" stroke-miterlimit="22.926" stroke-linecap="round" stroke-linejoin="round"/>
<path d="M41.1614 36.3477C42.2802 36.3477 43.1926 35.4352 43.1926 34.3164C43.1926 33.1976 42.2802 32.2851 41.1614 32.2851C40.0426 32.2851 39.1301 33.1976 39.1301 34.3164C39.1301 35.4352 40.0426 36.3477 41.1614 36.3477Z" stroke="#202124" stroke-miterlimit="22.926" stroke-linecap="round" stroke-linejoin="round"/>
<path d="M17.0623 30.2539H36.62" stroke="#202124" stroke-miterlimit="22.926" stroke-linecap="round" stroke-linejoin="round"/>
<path d="M50.1619 26.168H48.578" stroke="#202124" stroke-miterlimit="22.926" stroke-linecap="round" stroke-linejoin="round"/>
<path d="M4.46456 26.168H2.81844" stroke="#202124" stroke-miterlimit="22.926" stroke-linecap="round" stroke-linejoin="round"/>
<path d="M3.88831 19.5348L2.36456 21.0452V30.2539M50.302 30.2539V23.3798C50.302 22.0958 49.369 21.0566 48.2268 21.0452H38.0311L35.6282 13.115C35.373 12.2729 34.5777 11.5891 33.7104 11.5891H11.9045L10.3802 13.1" stroke="#202124" stroke-miterlimit="22.926" stroke-linecap="round" stroke-linejoin="round"/>
<path d="M36.3968 15.6514H28.9662V21.0449H38.0311" stroke="#202124" stroke-miterlimit="22.926" stroke-linecap="round" stroke-linejoin="round"/>
<path d="M23.8878 30.2539V11.589" stroke="#202124" stroke-miterlimit="22.926" stroke-linecap="round" stroke-linejoin="round"/>
<path d="M14.4317 21.0449H19.8251V15.6514H14.4317V21.0449Z" stroke="#202124" stroke-miterlimit="22.926" stroke-linecap="round" stroke-linejoin="round"/>
<path d="M30.4969 34.3164H30.4976" stroke="#202124" stroke-miterlimit="2.613" stroke-linecap="round" stroke-linejoin="round"/>
<path d="M7.13444 16.3179L7.13403 16.3184" stroke="#202124" stroke-miterlimit="2.613" stroke-linecap="round" stroke-linejoin="round"/>
</g>
</g>
<defs>
<clipPath id="clip0_778_1041">
<rect width="52" height="52" fill="white" transform="translate(0.333374)"/>
</clipPath>
</defs>
</svg>
