<svg width="234" height="436" viewBox="0 0 234 436" fill="none" xmlns="http://www.w3.org/2000/svg">
<path d="M73.3398 205.081C72.5918 205.446 70.7012 206.277 70.2337 206.848C69.1312 208.195 69.0405 209.852 67.0861 210.57C66.0953 210.933 64.7608 210.987 63.704 211.094C58.0413 211.667 52.2562 210.784 47.0726 208.403C48.3255 207.189 49.9069 206.174 51.3094 205.138C49.6051 204.624 47.8832 204.255 46.2382 203.557C40.2201 201.003 35.7994 196.297 30.9406 192.082C34.2054 190.859 37.1079 189.169 40.2357 187.676C45.1212 185.342 50.3766 184.463 55.7443 184.312L52.3073 179.436C55.4303 179.442 58.8108 179.702 61.8213 180.584C63.8763 181.187 65.8152 182.121 67.7641 182.997C72.0136 185.907 74.8514 188.745 77.6402 193.088L63.7373 193.068C61.8845 193.066 58.4351 193.49 56.8229 192.703C56.0045 192.305 55.2324 192.152 54.3411 192.445C53.5358 192.707 52.9183 193.28 52.5925 194.058C52.341 194.66 52.3126 195.3 52.6041 195.891C52.9447 196.582 53.6836 197.157 54.4194 197.325C55.5258 197.579 56.3371 197.334 57.2933 196.8L58.117 196.341L81.7209 196.28L81.8071 193.737L87.163 193.619L87.1127 198.784L79.2859 198.889C78.2096 200.531 77.0695 201.965 75.6043 203.282C74.8831 203.931 74.0507 204.416 73.3398 205.081Z" fill="#4B8627"/>
<path d="M150.181 56.9928C148.431 46.5766 151.627 37.5662 155.506 28.0585L159.923 32.1241C162.683 22.1406 168.354 13.2553 175.107 5.51051C176.753 3.62039 178.47 1.58836 180.411 0C184.496 6.97292 188.629 13.7191 191.74 21.2207C193.579 25.6556 194.902 30.2681 196.293 34.855C197.66 33.5915 198.965 32.2977 200.557 31.319L200.896 31.1056L201.101 30.9818C202.787 37.6683 203.883 43.9233 203.867 50.851C203.861 53.4937 203.815 56.1982 203.316 58.802C201.515 72.5453 195.499 84.9542 187.221 95.9641C184.49 99.5978 181.64 103.125 178.349 106.276C175.865 105.25 173.458 104.324 171.149 102.92L181.332 92.4191C177.584 91.4299 173.688 89.5992 170.426 87.487C159.394 80.3391 152.856 69.7333 150.181 56.9928Z" fill="#72BB37"/>
<path d="M176.631 25.709C177.234 25.7803 178.078 25.8188 178.601 26.1614C179.517 26.7634 180.298 27.9875 180.339 29.0897C180.394 30.5642 179.307 32.4862 178.977 33.9613C177.709 39.6537 176.508 45.5333 176.513 51.3799C176.519 60.5832 179.305 69.1994 184.618 76.7098C185.766 78.3318 187.964 80.1283 188.327 82.112C188.089 83.3623 187.592 83.7701 186.634 84.5276C185.911 84.6992 185.314 84.8011 184.627 84.4285C183.713 83.9322 182.935 82.6943 182.311 81.8739C178.951 77.465 175.701 72.3116 173.928 67.0392C171.93 61.0988 171.081 54.5689 171.29 48.3106C171.444 43.6828 172.166 39.1038 172.738 34.5171C172.983 32.5487 172.874 29.458 173.806 27.7576C174.411 26.6543 175.47 26.0564 176.631 25.709Z" fill="#94CA3F"/>
<path d="M183.495 214.177L195.191 214.138C196.98 214.134 199.099 213.911 200.85 214.212L200.831 215.92L200.796 266.486L200.809 323.358L183.849 322.162L183.609 321.394L183.412 322.122C180.93 322.323 178.363 322.199 175.87 322.207C174.082 322.214 172.166 322.389 170.393 322.227L151.821 323.087L151.752 266.551L151.646 215.542L151.583 214.291C153.13 214.064 154.751 214.16 156.314 214.158L163.811 214.156C165.791 214.158 168.538 213.828 170.427 214.269C174.62 214.683 179.284 214.392 183.495 214.177Z" fill="#4B8627"/>
<path d="M151.583 214.291C153.13 214.064 154.751 214.16 156.314 214.158L163.811 214.156C165.791 214.158 168.538 213.828 170.427 214.269L170.404 219.432L151.765 219.502L151.661 215.73L151.646 215.542L151.583 214.291Z" fill="#31641B"/>
<path d="M170.404 268.434L183.508 268.574L183.609 321.394L183.412 322.122C180.93 322.323 178.363 322.198 175.87 322.207C174.082 322.214 172.166 322.388 170.393 322.227L170.404 268.434Z" fill="white"/>
<path d="M170.427 214.268C174.62 214.681 179.284 214.39 183.496 214.176L183.485 217.224L183.509 268.572L170.405 268.432L170.404 219.43L170.427 214.268Z" fill="#94CA3F"/>
<path d="M183.495 214.177L195.191 214.138C196.979 214.134 199.098 213.911 200.85 214.212L200.83 215.92L200.795 266.486L200.808 323.358L183.849 322.162L183.608 321.394L183.508 268.574L183.484 217.226L183.495 214.177Z" fill="#4B8627"/>
<path d="M183.495 214.177L195.191 214.138C196.979 214.134 199.098 213.911 200.85 214.212L200.83 215.92L200.745 219.452L183.63 219.469L183.484 217.226L183.495 214.177Z" fill="#31641B"/>
<path d="M334.19 376.731C336 437.501 204.349 480.001 131.999 480.001C59.65 480.001 -1.99997 443.001 0.999331 412.001C2.49958 388.001 20.0274 376.687 20.0274 376.687C22.9622 374.076 26.1975 371.752 29.3388 369.395L44.5881 358.6C54.3442 352.374 65.0232 346.803 75.6515 342.239L76.0087 342.086C80.2665 340.257 84.481 338.447 88.8989 337.026L88.5062 335.526C87.9994 333.521 86.5416 326.846 87.5043 325.232C87.7431 325.131 87.7853 325.094 88.075 325.063C88.7901 324.983 89.9977 325.525 90.6264 325.811C94.2179 327.456 96.5819 329.808 99.1942 332.693L101.943 331.794C100.256 324.698 99.1205 318.206 99.7914 310.89C99.9274 309.407 100.034 307.592 100.557 306.206C102.799 309.558 105.252 314.078 108.376 316.592C108.822 312.009 109.06 307.444 109.947 302.913C111.673 294.092 116.369 284.814 122.659 278.368C122.677 280.211 122.126 282.271 121.861 284.108L120.029 297.713C119.757 300.153 119.366 302.863 119.508 305.318L119.509 305.334C119.543 305.936 119.562 306.251 120 306.659C121.037 305.705 121.851 304.472 122.707 303.357C125.809 299.314 128.579 294.938 133.617 293.248C132.755 295.586 131.846 297.919 131.254 300.344C129.264 308.495 129.068 317.126 129.341 325.475L129.474 325.354C131.858 323.184 133.969 321.263 136.9 319.846C136.289 321.477 135.918 323.194 135.582 324.897L151.82 323.087L170.393 322.227C172.166 322.389 174.081 322.214 175.87 322.208C178.363 322.199 180.93 322.324 183.412 322.122L183.609 321.394L183.849 322.162L200.808 323.358C207.959 323.841 215.452 325.435 222.43 327.051C221.868 321.436 221.802 315.549 223.414 310.087C227.767 314.082 231.207 318.687 233.916 323.92C234.113 317.24 235.178 310.684 237.611 304.437C242.328 292.323 250.887 282.534 262.854 277.262C261.881 279.009 260.536 280.524 259.572 282.304C254.127 292.338 251.903 302.463 251.951 313.824C256.657 307.597 262.974 303.748 270.57 302.156C268.762 304.728 267.57 307.536 266.436 310.452C263.132 318.937 261.96 327.434 261.715 336.48C264.721 334.488 267.186 333.139 270.73 332.321L268.793 338.428C284.055 344.47 298.439 351.843 312.263 360.705C320 367.001 331.5 372.501 334.19 376.731Z" fill="#94CA3F"/>
<path d="M238.215 74.605C242.28 66.9513 246.347 59.034 251.448 52.0156C253.919 54.8442 256.062 57.7008 257.827 61.0263C261.207 67.4014 262.581 74.1095 263.602 81.1703L267.901 78.2575C268.5 83.4249 268.121 88.6324 266.847 93.6771L275.877 109.987C280.054 107.234 284.261 104.58 289.067 103.052C288.914 105.315 288.61 107.462 288.07 109.666C292.089 108.465 296.045 107.062 300.125 106.072C306.844 104.441 313.761 103.774 320.659 103.673C318.062 117 312.956 129.06 305.545 140.419L312.851 141.737C311.318 143.795 309.385 145.632 307.542 147.412C302.204 152.563 296.646 156.542 290.099 160.055C289.476 168.122 288.684 175.981 286.83 183.88C281.681 205.837 269.02 227.165 251.888 241.892C240.198 251.942 226.707 259.424 211.906 263.78L200.795 266.485L200.83 215.919L200.85 214.211C199.099 213.91 196.98 214.133 195.191 214.137L183.495 214.176C179.283 214.391 174.619 214.682 170.426 214.268C168.538 213.827 165.791 214.157 163.81 214.155L156.314 214.157C154.751 214.159 153.13 214.063 151.583 214.29L151.646 215.541L151.752 266.55C143.404 265.241 134.969 262.361 127.288 258.895C109.514 250.877 93.7882 238.028 82.6039 222.031C78.9655 216.827 75.5951 211.028 73.3404 205.08C74.0513 204.415 74.8838 203.93 75.6049 203.28C77.0702 201.964 78.2103 200.53 79.2865 198.888L87.1133 198.783L87.1636 193.618L81.8077 193.736L81.7215 196.279L58.1176 196.34L57.2939 196.799C56.3377 197.333 55.5265 197.578 54.42 197.324C53.6842 197.156 52.9454 196.581 52.6047 195.89C52.3132 195.299 52.3417 194.659 52.5931 194.057C52.9189 193.279 53.5364 192.706 54.3418 192.444C55.233 192.151 56.0051 192.304 56.8236 192.702C58.4358 193.489 61.8852 193.065 63.7379 193.067L77.6409 193.086C74.8521 188.744 72.0143 185.906 67.7648 182.996C63.9918 164.774 64.7667 145.884 70.2571 128.071C71.3416 124.552 72.7645 121.17 74.109 117.746C71.3539 111.834 70.2372 105.339 69.9975 98.8622L76.3833 99.6914C76.3455 94.2996 76.5373 89.0721 77.4806 83.7509C78.216 79.6034 79.421 75.55 80.5655 71.5017C87.6759 76.2307 93.7408 82.6537 98.9478 89.3675C112.523 74.3898 130.724 62.5715 150.181 56.9924C152.856 69.733 159.394 80.3387 170.427 87.4866C173.688 89.5988 177.584 91.4295 181.332 92.4187L171.149 102.92C173.458 104.324 175.866 105.25 178.35 106.276C181.641 103.124 184.49 99.5974 187.221 95.9637C195.499 84.9538 201.515 72.5449 203.317 58.8016C215.527 61.8637 228.342 66.5938 238.215 74.605Z" fill="#94CA3F"/>
<path d="M189.576 120.225C190.61 120.451 191.53 121.489 192.099 122.325C193.175 123.903 193.774 126.023 193.428 127.915L193.383 128.14L193.579 128.379L193.975 128.169C195.668 127.304 198.72 126.962 200.526 127.648C201.158 127.888 201.598 128.057 201.88 128.687C201.386 130.33 200.611 131.21 199.332 132.282C196.177 134.091 193.571 133.546 190.166 133.133C188.725 131.699 187.699 129.27 187.369 127.288C186.91 124.549 188.03 122.365 189.576 120.225Z" fill="white"/>
<path d="M93.2402 172.225L93.8341 172.528L93.0025 173.84C92.9338 174.585 93.0438 174.811 93.5194 175.393L110.232 191.88C110.133 192.487 110.027 192.437 109.586 192.822L97.3788 204.31C95.3518 206.195 92.9172 208.012 91.1246 210.081C90.6084 210.676 90.2323 211.419 90.1791 212.215C90.1323 212.915 90.3851 213.424 90.8863 213.894L91.553 214.474C90.9084 214.459 90.2172 214.461 89.5947 214.277C88.9225 214.076 88.2803 213.514 87.9602 212.891C87.6553 212.296 87.6372 211.439 87.8495 210.816C87.9993 210.376 88.446 209.838 88.7563 209.504C90.3565 207.778 92.2422 206.241 93.9497 204.619L102.922 196.224C104.148 195.098 105.565 193.436 107.069 192.752C107.214 192.501 107.325 192.256 107.44 191.989L96.0767 181.244C94.3858 179.626 91.5287 177.605 90.564 175.48C90.5364 174.864 90.5093 174.255 90.7964 173.689C91.2934 172.711 92.2685 172.502 93.2402 172.225Z" fill="#31641B"/>
<path d="M166.642 137.393C167.196 137.423 167.393 137.422 167.823 137.833C168.433 138.417 168.588 139.83 168.579 140.614C168.549 143.316 167.726 146.008 165.728 147.915C165.1 148.514 162.567 150.711 161.743 150.666C158.046 150.462 154.704 148.821 152.28 146.09C151.665 145.233 151.002 144.272 150.763 143.228C150.609 142.555 150.584 142.06 150.929 141.478C152.236 140.98 154.399 140.943 155.758 141.292C158.088 141.891 159.9 143.543 161.129 145.536L161.325 145.856C161.281 144.821 161.352 143.77 161.659 142.777C162.529 139.967 164.132 138.666 166.642 137.393Z" fill="white"/>
<path d="M216.217 142.746C216.819 142.709 217.046 142.555 217.523 142.973C217.391 145.994 216.244 150.027 214.247 152.345L214.098 152.514L214.133 152.694L216.429 152.677L216.44 152.938C216.182 154.394 214.542 156.657 213.355 157.49C213.044 157.709 213.178 157.536 213.044 157.987C213.311 158.171 213.473 158.307 213.692 158.534C213.495 158.801 213.298 159.028 213.038 159.235C210.311 161.405 207.497 161.289 204.193 160.996L202.372 163.925C201.947 164.357 201.103 164.205 200.55 164.211L200.307 163.891C201.302 162.179 202.715 160.625 203.961 159.085L208.271 153.514C208.947 152.604 209.738 151.912 210.587 151.174C210.659 150.636 210.591 150.271 210.307 149.792C210.016 149.3 209.741 149.179 209.214 149.029C207.768 149.86 206.904 151.516 205.975 152.848C204.534 154.912 203.074 157.131 201.298 158.915C200.426 157.269 199.813 155.754 199.717 153.858C199.669 152.927 199.71 151.273 200.358 150.574C200.795 150.741 201.092 150.771 201.56 150.76C201.821 150.15 201.875 149.512 202.124 148.913C202.612 147.741 203.653 146.613 204.444 145.628L205.507 149.281L206.71 147.363C208.798 144.401 212.848 143.315 216.217 142.746Z" fill="#4B8627"/>
<path d="M133.038 90.4277C137.066 92.0896 141.445 94.3643 143.754 98.2257C143.95 98.5534 144.024 98.7063 144.317 98.9588L146.838 95.1817C148.238 96.4724 149.335 97.972 149.829 99.8335L149.91 100.151C150.31 101.625 150.292 102.896 150.244 104.413C151.033 104.03 151.909 103.461 152.799 103.486C152.899 103.647 152.962 103.723 153.004 103.93C153.638 107.024 152.262 110.277 150.868 112.942C149.479 111.543 148.316 109.79 147.148 108.207C145.431 105.881 143.776 103.759 142.587 101.135C142.301 100.502 141.631 99.9107 140.963 99.7246C140.447 99.5809 140.134 99.5632 139.679 99.901C139.192 100.264 138.903 100.973 138.922 101.572C138.959 102.722 140.77 104.346 141.523 105.215L153.596 120.109L150.329 122.771L145.378 115.404L142.085 114.458C137.178 112.701 134.039 108.522 131.836 104L134.846 103.979C133.21 99.3739 132.959 95.268 133.038 90.4277Z" fill="#4B8627"/>
<path d="M238.215 74.605C242.28 66.9513 246.347 59.034 251.449 52.0156C253.919 54.8442 256.062 57.7008 257.827 61.0263C261.207 67.4014 262.581 74.1095 263.602 81.1703L267.901 78.2575C268.5 83.4249 268.122 88.6324 266.847 93.6771C265.861 96.9695 264.551 100.115 262.85 103.103C259.589 108.831 253.539 114.454 247.045 116.16L246.715 116.244C245.287 116.62 243.83 116.724 242.365 116.869C245.223 121.938 249.1 126.777 253.642 130.404L249.47 134.833C246.384 131.822 243.441 128.437 241.486 124.565C240.48 122.574 239.656 120.378 239.114 118.216L238.274 114.44C238.209 114.084 238.169 113.179 238.014 112.895C237.909 112.707 237.078 112.21 236.875 112.064C234.113 110.082 231.824 107.443 230.617 104.241C226.963 94.5474 234.419 83.1369 238.215 74.605Z" fill="#72BB37"/>
<path d="M74.1087 117.746C71.3535 111.834 70.2368 105.339 69.9972 98.8625L76.383 99.6917C76.3452 94.2999 76.5369 89.0723 77.4802 83.7512C78.2156 79.6036 79.4206 75.5503 80.5651 71.502C87.6756 76.231 93.7404 82.6539 98.9474 89.3677L102.856 95.2841C103.664 93.5094 104.385 91.4866 105.427 89.8471C111.994 96.4139 116.587 106.402 116.574 115.78C116.565 121.678 114.964 127.929 110.647 132.167L107.315 135.235L110.86 146.749C110.524 147.092 109.941 147.216 109.489 147.382L105.604 148.781C102.974 143.293 100.048 138.701 94.2567 136.133C91.8877 135.083 89.4964 134.251 87.2566 132.919C81.4798 129.484 77.1802 123.606 74.1087 117.746Z" fill="#4B8627"/>
<path d="M86.459 96.3281L88.2936 96.3664C88.8416 96.4611 89.3762 96.9712 89.6657 97.4254C90.801 99.2064 91.4572 101.393 92.5564 103.246L96.9249 110.26C99.7867 115.218 102.339 120.641 104.188 126.061C105.919 131.139 106.938 135.902 106.015 141.26L105.821 141.064C101.714 129.769 96.3472 118.881 90.0816 108.634L86.8421 103.302C85.9922 101.91 84.6332 100.162 84.8538 98.4533C84.9846 97.4394 85.7101 96.9336 86.459 96.3281Z" fill="#94CA3F"/>
<path d="M93.2397 172.225L161.435 172.312L209.085 172.471L240.622 172.389L248.927 172.377C249.975 172.377 251.448 172.222 252.432 172.53L252.356 172.965L252.579 173.279C253.084 174.022 253.241 174.796 253.165 175.677C252.557 176.943 251.42 177.898 250.432 178.878L245.787 183.418L235.93 193.187L246.929 204.151C248.872 206.071 251.571 208.181 253.038 210.466L253.541 211.264C252.913 212.287 252.426 212.985 251.416 213.684L250.6 214.238L200.85 214.211C199.098 213.91 196.98 214.133 195.191 214.137L183.495 214.176C179.283 214.391 174.619 214.682 170.426 214.268C168.538 213.827 165.79 214.157 163.81 214.155L156.314 214.157C154.75 214.159 153.13 214.063 151.583 214.29C149.551 214.592 147.212 214.41 145.146 214.428L131.944 214.485L107.039 214.511L91.5525 214.474L90.8858 213.894C90.3846 213.424 90.1318 212.915 90.1786 212.215C90.2317 211.419 90.6078 210.676 91.1241 210.081C92.9167 208.012 95.3513 206.195 97.3783 204.31L109.585 192.822C110.027 192.437 110.133 192.487 110.231 191.88L93.5189 175.393C93.0433 174.811 92.9333 174.585 93.002 173.84L93.8335 172.528L93.2397 172.225Z" fill="#4B8627"/>
<path d="M211.204 193.543C211.764 193.77 211.978 194.035 212.333 194.534C213.535 196.235 213.537 197.291 213.22 199.241L214.952 198.358C216.704 197.621 219.271 198.478 220.959 199.108L220.804 199.451C220.121 201.017 219.328 202.097 218.022 203.19C217.375 203.553 216.701 203.938 215.989 204.157C214.034 204.756 211.867 204.238 210.12 203.302L209.87 203.166L209.267 203.619L208.917 203.468C208.893 202.991 208.838 202.611 209.066 202.174C209.507 201.323 208.843 199.397 208.845 198.332C208.847 196.086 209.687 195.056 211.204 193.543Z" fill="white"/>
</svg>
