<svg aria-hidden="true" style="position: absolute; width: 0; height: 0; overflow: hidden;"
    version="1.1" xmlns="http://www.w3.org/2000/svg" xmlns:xlink="http://www.w3.org/1999/xlink">
    <defs>
        <symbol id="icon-logo" viewBox="0 0 122 32">
            <path
                d="M10.667 0.576h9.516c5.891 0 10.667 4.776 10.667 10.667v9.516c0 5.891-4.776 10.667-10.667 10.667h-9.516c-5.891 0-10.667-4.776-10.667-10.667v-9.516c0-5.891 4.776-10.667 10.667-10.667zM17.939 8.874c-1.389-1.389-3.64-1.389-5.028 0l-4.612 4.612c-1.389 1.389-1.389 3.64 0 5.028l4.612 4.612c1.389 1.389 3.64 1.389 5.028 0l4.612-4.612c1.389-1.389 1.389-3.64 0-5.028l-4.612-4.612z"></path>
            <path d="M49.886 21.997h6.306v3.59h-11.12v-19.093h4.814v15.503z"></path>
            <path
                d="M67.835 25.778c-1.858 0-3.566-0.417-5.124-1.251-1.539-0.834-2.768-1.995-3.688-3.481-0.901-1.505-1.351-3.191-1.351-5.059s0.45-3.545 1.351-5.032c0.92-1.487 2.149-2.647 3.688-3.481 1.558-0.834 3.266-1.251 5.124-1.251s3.557 0.417 5.095 1.251c1.558 0.834 2.778 1.995 3.66 3.481 0.901 1.487 1.351 3.164 1.351 5.032s-0.45 3.554-1.351 5.059c-0.901 1.487-2.121 2.647-3.66 3.481s-3.237 1.251-5.095 1.251zM67.835 21.535c1.577 0 2.834-0.508 3.772-1.523 0.957-1.015 1.436-2.357 1.436-4.025 0-1.686-0.479-3.028-1.436-4.025-0.938-1.015-2.196-1.523-3.772-1.523-1.595 0-2.872 0.499-3.829 1.496-0.938 0.997-1.408 2.348-1.408 4.053 0 1.686 0.469 3.037 1.408 4.053 0.957 0.997 2.233 1.496 3.829 1.496z"></path>
            <path
                d="M93.739 12.532c-0.357-0.635-0.873-1.115-1.548-1.441-0.657-0.344-1.436-0.517-2.337-0.517-1.558 0-2.806 0.499-3.744 1.496-0.938 0.979-1.408 2.294-1.408 3.944 0 1.759 0.488 3.137 1.464 4.134 0.995 0.979 2.355 1.469 4.082 1.469 1.183 0 2.178-0.29 2.984-0.87 0.826-0.58 1.427-1.414 1.802-2.502h-6.108v-3.427h10.472v4.325c-0.356 1.16-0.966 2.239-1.829 3.237-0.844 0.997-1.924 1.804-3.237 2.421s-2.796 0.925-4.448 0.925c-1.952 0-3.698-0.408-5.237-1.224-1.52-0.834-2.712-1.986-3.575-3.454-0.845-1.469-1.267-3.146-1.267-5.032s0.422-3.563 1.267-5.032c0.863-1.487 2.055-2.638 3.575-3.454 1.52-0.834 3.256-1.251 5.208-1.251 2.364 0 4.354 0.553 5.968 1.659 1.633 1.106 2.712 2.638 3.237 4.596h-5.32z"></path>
            <path
                d="M111.41 25.778c-1.858 0-3.566-0.417-5.124-1.251-1.539-0.834-2.768-1.995-3.688-3.481-0.9-1.505-1.351-3.191-1.351-5.059s0.451-3.545 1.351-5.032c0.92-1.487 2.149-2.647 3.688-3.481 1.557-0.834 3.266-1.251 5.124-1.251s3.556 0.417 5.096 1.251c1.557 0.834 2.777 1.995 3.66 3.481 0.9 1.487 1.351 3.164 1.351 5.032s-0.451 3.554-1.351 5.059c-0.901 1.487-2.121 2.647-3.66 3.481s-3.238 1.251-5.096 1.251zM111.41 21.535c1.577 0 2.834-0.508 3.772-1.523 0.957-1.015 1.436-2.357 1.436-4.025 0-1.686-0.478-3.028-1.436-4.025-0.939-1.015-2.196-1.523-3.772-1.523-1.596 0-2.871 0.499-3.828 1.496-0.939 0.997-1.408 2.348-1.408 4.053 0 1.686 0.469 3.037 1.408 4.053 0.957 0.997 2.233 1.496 3.828 1.496z"></path>
        </symbol>
        <symbol id="icon-road" viewBox="0 0 17 32">
            <path fill="#202124" style="fill: var(--color1, #202124)"
                d="M0.685 32h16.46c-0.442-0.689-0.852-1.36-1.228-2.015-0.697-1.217-1.272-2.379-1.701-3.489-0.398-1.030-0.671-2.021-0.813-2.962-0.259-1.719-0.057-3.32 0.403-4.713 0.432-1.307 1.071-2.459 1.662-3.524 1.030-1.855 1.767-3.565 1.227-4.894-0.56-1.372-2.092-2.401-3.555-3.402-1.323-0.905-2.48-1.684-2.602-2.49-0.098-0.655 0.68-1.235 1.419-1.724 0.677-0.448 1.256-0.93 1.094-1.329-0.203-0.496-1.007-0.837-1.81-1.221-1.277-0.079-2.567-0.158-3.87-0.238 0.693 0.381 1.412 0.756 1.432 1.215 0.018 0.458-0.781 0.875-1.673 1.321-0.976 0.488-2.007 0.989-2.18 1.722-0.171 0.729 0.732 1.597 1.779 2.51 1.16 1.012 2.393 2.132 2.449 3.455 0.029 0.697-0.277 1.465-0.801 2.229-0.609 0.886-1.482 1.788-2.452 2.794-1.063 1.101-2.207 2.285-3.215 3.663-1.052 1.438-1.931 3.095-2.37 4.96-0.232 0.985-0.347 2.041-0.34 3.152 0.008 1.177 0.153 2.428 0.413 3.746 0.079 0.404 0.171 0.816 0.272 1.234z"></path>
            <path fill="#fb7500" style="fill: var(--color2, #fb7500)"
                d="M1.763 30.697c0.098 0.426 0.209 0.861 0.331 1.303h0.408c-0.128-0.449-0.245-0.89-0.349-1.322-0.312-1.307-0.508-2.548-0.565-3.717-0.053-1.101 0.017-2.15 0.205-3.13 0.356-1.849 1.16-3.5 2.144-4.932 0.943-1.371 2.029-2.551 3.038-3.648 0.922-1.002 1.752-1.903 2.32-2.785 0.49-0.763 0.762-1.532 0.705-2.223-0.11-1.331-1.379-2.439-2.573-3.449-1.077-0.912-2.011-1.769-1.87-2.507 0.141-0.725 1.146-1.234 2.096-1.722 0.868-0.446 1.646-0.87 1.609-1.322-0.039-0.465-0.768-0.834-1.473-1.215-0.031-0.002-0.063-0.004-0.094-0.006 0.703 0.381 1.43 0.752 1.464 1.215 0.032 0.453-0.75 0.876-1.624 1.321-0.956 0.488-1.967 0.995-2.115 1.722-0.148 0.737 0.779 1.596 1.85 2.508 1.186 1.011 2.447 2.122 2.545 3.451 0.050 0.693-0.229 1.462-0.727 2.225-0.577 0.883-1.417 1.784-2.35 2.787-1.021 1.098-2.121 2.279-3.078 3.651-0.999 1.433-1.819 3.086-2.194 4.938-0.198 0.981-0.278 2.032-0.235 3.135 0.046 1.171 0.23 2.414 0.531 3.723z"></path>
            <path fill="#fb7500" style="fill: var(--color2, #fb7500)"
                d="M12.385 6.973c1.428 1.002 2.928 2.039 3.428 3.408 0.489 1.342-0.336 3.049-1.457 4.909-0.644 1.069-1.34 2.224-1.837 3.54-0.527 1.397-0.805 3.006-0.621 4.741 0.1 0.946 0.331 1.945 0.687 2.984 0.383 1.118 0.911 2.29 1.561 3.519 0.332 0.626 0.696 1.268 1.087 1.926h0.384c-0.401-0.664-0.774-1.312-1.115-1.944-0.659-1.226-1.197-2.396-1.589-3.513-0.364-1.037-0.603-2.035-0.712-2.98-0.198-1.732 0.064-3.339 0.577-4.735 0.484-1.314 1.168-2.469 1.802-3.537 1.103-1.859 1.91-3.567 1.411-4.906-0.513-1.37-2.019-2.406-3.454-3.407-1.298-0.905-2.433-1.691-2.526-2.491-0.075-0.662 0.728-1.235 1.49-1.724 0.697-0.447 1.298-0.925 1.148-1.328-0.185-0.494-0.982-0.837-1.774-1.22-0.031-0.002-0.061-0.004-0.092-0.006 0.79 0.383 1.585 0.726 1.766 1.22 0.147 0.405-0.46 0.881-1.162 1.328-0.767 0.489-1.577 1.059-1.508 1.723 0.085 0.799 1.216 1.587 2.507 2.492z"></path>
            <path fill="#fff" style="fill: var(--color3, #fff)"
                d="M10.513 0.772c0.197 0.141 0.358 0.29 0.439 0.452-0.034-0.002-0.067-0.004-0.101-0.006-0.079-0.161-0.239-0.311-0.436-0.452 0.033 0.002 0.065 0.004 0.098 0.006zM10.939 1.684c-0.093 0.167-0.269 0.322-0.485 0.475-0.037-0.002-0.074-0.004-0.11-0.006 0.218-0.153 0.396-0.308 0.49-0.475 0.035 0.002 0.070 0.004 0.105 0.006zM9.627 2.664c-0.31 0.178-0.623 0.356-0.912 0.556-0.041-0.002-0.081-0.004-0.122-0.006 0.291-0.2 0.606-0.379 0.918-0.556 0.039 0.002 0.077 0.004 0.116 0.006zM8.032 3.851c-0.151 0.218-0.222 0.476-0.178 0.727-0.045-0.002-0.091-0.004-0.136-0.006-0.042-0.252 0.032-0.509 0.185-0.727 0.043 0.002 0.086 0.004 0.129 0.006zM8.321 5.416c0.279 0.317 0.645 0.628 1.055 0.952-0.050-0.002-0.1-0.004-0.15-0.006-0.408-0.325-0.77-0.636-1.047-0.952 0.048 0.002 0.095 0.004 0.143 0.006zM10.761 7.438c0.477 0.377 0.937 0.766 1.332 1.192-0.056-0.002-0.111-0.003-0.167-0.005-0.392-0.426-0.849-0.815-1.323-1.192 0.053 0.002 0.105 0.004 0.158 0.006zM12.971 9.961c0.178 0.468 0.222 0.988 0.121 1.507-0.064-0.001-0.127-0.002-0.191-0.004 0.105-0.519 0.066-1.039-0.108-1.508 0.059 0.002 0.119 0.004 0.178 0.005zM12.35 13.212c-0.401 0.66-0.912 1.338-1.461 2.069-0.076-0-0.153-0.001-0.229-0.001 0.557-0.732 1.075-1.411 1.482-2.071 0.070 0.001 0.139 0.002 0.208 0.003zM9.118 17.793c-0.588 0.944-1.111 1.975-1.461 3.101-0.096 0.002-0.191 0.003-0.287 0.005 0.361-1.128 0.895-2.16 1.493-3.104 0.085-0.001 0.17-0.001 0.256-0.001zM7.199 24.773c0.090 1.514 0.48 3.162 1.122 4.918-0.122 0.006-0.244 0.012-0.367 0.017-0.627-1.759-1.003-3.41-1.079-4.926 0.108-0.003 0.216-0.006 0.324-0.010z"></path>
            <path fill="#fff" style="fill: var(--color3, #fff)"
                d="M9.367 0.123c0.135 0.069 0.271 0.138 0.405 0.209-0.032-0.002-0.063-0.004-0.094-0.006-0.134-0.071-0.269-0.14-0.404-0.209 0.031 0.002 0.062 0.004 0.093 0.006z"></path>
        </symbol>
        <symbol id="icon-chevron-right" viewBox="0 0 31 32">
            <path stroke-linejoin="round" stroke-linecap="round" stroke-miterlimit="4"
                stroke-width="1.28" d="M11.52 23.68l7.68-7.68-7.68-7.68"></path>
        </symbol>
        <symbol id="icon-burger" viewBox="0 0 32 32">
            <path stroke-linejoin="round" stroke-linecap="round" stroke-miterlimit="4"
                stroke-width="1.3333" d="M21.773 14.451h-12"></path>
            <path stroke-linejoin="round" stroke-linecap="round" stroke-miterlimit="4"
                stroke-width="1.3333" d="M21.773 11.784h-12"></path>
            <path stroke-linejoin="round" stroke-linecap="round" stroke-miterlimit="4"
                stroke-width="1.3333" d="M21.773 17.117h-12"></path>
            <path stroke-linejoin="round" stroke-linecap="round" stroke-miterlimit="4"
                stroke-width="1.3333" d="M21.773 19.784h-12"></path>
        </symbol>
        <symbol id="icon-close" viewBox="0 0 32 32">
            <path stroke-linejoin="round" stroke-linecap="round" stroke-miterlimit="4"
                stroke-width="2.56" d="M23.096 8.244l-15.36 15.36"></path>
            <path stroke-linejoin="round" stroke-linecap="round" stroke-miterlimit="4"
                stroke-width="2.56" d="M7.736 8.244l15.36 15.36"></path>
        </symbol>
        <symbol id="icon-en" viewBox="0 0 32 32">
            <path fill="#eee" style="fill: var(--color1, #eee)"
                d="M0 0l0.5 1.375-0.5 1.438v1.438l2 3.375-2 3.375v2l2 3-2 3v2l2 3.375-2 3.375v4.25l1.375-0.5 1.438 0.5h1.438l3.375-2 3.375 2h2l3-2 3 2h2l3.375-2 3.375 2h4.25l-0.5-1.375 0.5-1.438v-1.437l-2-3.375 2-3.375v-2l-2-3 2-3v-2l-2-3.375 2-3.375v-4.25l-1.375 0.5-1.438-0.5h-1.437l-3.375 2-3.375-2h-2l-3 2-3-2h-2l-3.375 2-3.375-2h-4.25z"></path>
            <path fill="#0052b4" style="fill: var(--color2, #0052b4)"
                d="M21 0v6.75l6.75-6.75h-6.75zM32 4.25l-6.75 6.75h6.75v-6.75zM0 11h6.75l-6.75-6.75v6.75zM4.25 0l6.75 6.75v-6.75h-6.75zM11 32v-6.75l-6.75 6.75h6.75zM0 27.75l6.75-6.75h-6.75v6.75zM32 21h-6.75l6.75 6.75v-6.75zM27.75 32l-6.75-6.75v6.75h6.75z"></path>
            <path fill="#d80027" style="fill: var(--color3, #d80027)"
                d="M0 0v2.813l8.188 8.188h2.813l-11-11zM13 0v13h-13v6h13v13h6v-13h13v-6h-13v-13h-6zM29.187 0l-8.187 8.188v2.813l11-11h-2.813zM11 21l-11 11h2.813l8.188-8.187v-2.813zM21 21l11 11v-2.813l-8.187-8.187h-2.813z"></path>
        </symbol>
        <symbol id="icon-cz" viewBox="0 0 32 32">
            <path fill="#f7fcff" style="fill: var(--color1, #f7fcff)"
                d="M5.4 5.4v10.6h25.6c0-8.3-6.7-15-15-15-4.15 0-7.9 1.7-10.6 4.4z"></path>
            <path fill="#e31d1c" style="fill: var(--color2, #e31d1c)"
                d="M5.4 16v10.6c2.7 2.7 6.45 4.4 10.6 4.4 8.3 0 15-6.7 15-15h-25.6z"></path>
            <path fill="#3d58db" style="fill: var(--color3, #3d58db)"
                d="M5.4 5.4c-2.7 2.7-4.4 6.45-4.4 10.6s1.7 7.9 4.4 10.6l10.6-10.6-10.6-10.6z"></path>
        </symbol>
        <symbol id="icon-de" viewBox="0 0 32 32">
            <path fill="#272727" style="fill: var(--color4, #272727)"
                d="M15.95 1c-6.55 0-12.1 4.2-14.15 10h28.3c-2.050-5.8-7.6-10-14.15-10z"></path>
            <path fill="#ffd01f" style="fill: var(--color5, #ffd01f)" opacity="0.992157"
                d="M15.95 31c6.55 0 12.1-4.15 14.15-10h-28.3c2.050 5.85 7.6 10 14.15 10z"></path>
            <path fill="#e31d1c" style="fill: var(--color2, #e31d1c)"
                d="M1.8 11c-0.55 1.55-0.85 3.25-0.85 5s0.3 3.45 0.85 5h28.3c0.55-1.55 0.85-3.25 0.85-5s-0.3-3.45-0.85-5h-28.3z"></path>
        </symbol>
        <symbol id="icon-low-emission-zone" viewBox="0 0 32 32">
            <path
                d="M16.538 4.488c-0.163-0.064-0.344-0.064-0.508 0-3.348 1.316-5.596 4.671-5.595 8.347 0 3.514 2.056 6.728 5.158 8.154l0.001 0.882c0 0.384 0.311 0.695 0.695 0.695s0.695-0.312 0.695-0.696l-0.001-0.882c3.101-1.427 5.156-4.641 5.154-8.154-0-3.678-2.25-7.032-5.6-8.346zM16.984 19.426l-0.001-1.416c0-0.008 0-0.016 0-0.024v-1.513l2.303-2.302c0.272-0.272 0.272-0.711 0-0.983s-0.711-0.272-0.983 0l-1.32 1.32v-0.405c0.001-0.016 0-0.033 0-0.049l-0.001-1.5 2.303-2.306c0.271-0.272 0.271-0.711-0.001-0.983s-0.711-0.271-0.983 0.001l-1.32 1.321v-1.605c0-0.384-0.312-0.695-0.695-0.695 0 0 0 0-0.001 0-0.383 0-0.694 0.312-0.694 0.696l0.001 3.413-1.315-1.317c-0.272-0.272-0.711-0.272-0.983-0.001s-0.273 0.711-0.001 0.983l2.3 2.303 0.001 1.954-1.319-1.318c-0.272-0.272-0.711-0.272-0.983 0s-0.272 0.711 0 0.983l2.302 2.302 0.001 1.142c-2.288-1.316-3.768-3.843-3.768-6.591-0.002-3.016 1.78-5.772 4.46-6.948 2.681 1.173 4.463 3.93 4.463 6.946 0.002 2.748-1.478 5.275-3.763 6.592z"></path>
            <path
                d="M16.285 1.231c-5.926 0-10.746 4.822-10.746 10.749 0 3.899 4.493 9.856 7.533 13.44-2.46 0.39-4.754 1.299-4.754 2.863 0 2.131 4.13 3.103 7.97 3.103 3.838 0 7.97-0.971 7.97-3.103 0-1.564-2.295-2.473-4.756-2.864 3.040-3.583 7.534-9.54 7.534-13.439-0-5.927-4.823-10.749-10.749-10.749zM22.865 28.281c0 0.512-2.238 1.712-6.579 1.712s-6.579-1.2-6.579-1.712c0-0.34 1.287-1.271 4.455-1.603 0.895 1.011 1.523 1.667 1.621 1.77 0.131 0.137 0.312 0.213 0.501 0.213s0.369-0.077 0.5-0.213c0.099-0.103 0.727-0.759 1.623-1.77 3.17 0.332 4.457 1.264 4.457 1.604zM16.285 26.95c-2.008-2.176-9.356-10.451-9.356-14.97 0-5.16 4.197-9.358 9.356-9.358s9.359 4.198 9.359 9.358c-0 4.519-7.351 12.794-9.359 14.97z"></path>
        </symbol>
        <symbol id="icon-payment-of-fines" viewBox="0 0 38 32">
            <path stroke-linejoin="round" stroke-linecap="round" stroke-miterlimit="10"
                stroke-width="1.3538"
                d="M23.657 9.246v18.022c0 2.096-1.698 3.794-3.794 3.794h-9.797c-2.096 0-3.794-1.698-3.794-3.794v-18.733"></path>
            <path stroke-linejoin="round" stroke-linecap="round" stroke-miterlimit="10"
                stroke-width="1.3538"
                d="M6.271 8.535v-5.338c0-0.621 0.25-1.184 0.656-1.592 0.043-0.044 0.088-0.086 0.135-0.124 0.394-0.339 0.907-0.544 1.468-0.544h12.867c0.561 0 1.074 0.204 1.469 0.544 0.047 0.039 0.092 0.081 0.135 0.124 0.406 0.408 0.656 0.971 0.656 1.592v6.049"></path>
            <path stroke-linejoin="round" stroke-linecap="round" stroke-miterlimit="10"
                stroke-width="1.3538"
                d="M22.866 1.481l-2.393 2.437c-0.483 0.492-1.144 0.769-1.834 0.769h-7.349c-0.691 0-1.352-0.277-1.835-0.769l-2.393-2.437c0.394-0.339 0.907-0.544 1.468-0.544h12.867c0.561 0 1.074 0.204 1.469 0.544z"></path>
            <path stroke-linejoin="round" stroke-linecap="round" stroke-miterlimit="10"
                stroke-width="1.3538"
                d="M27.738 18.796c0.716-0.716 1.158-1.704 1.158-2.796s-0.443-2.080-1.158-2.796"></path>
            <path stroke-linejoin="round" stroke-linecap="round" stroke-miterlimit="10"
                stroke-width="1.3538"
                d="M30.389 21.447c1.394-1.394 2.256-3.32 2.256-5.447s-0.862-4.053-2.256-5.447"></path>
            <path stroke-linejoin="round" stroke-linecap="round" stroke-miterlimit="10"
                stroke-width="1.3538"
                d="M33.041 24.099c2.073-2.073 3.355-4.936 3.355-8.099s-1.282-6.026-3.355-8.099"></path>
            <path stroke-linejoin="round" stroke-linecap="round" stroke-miterlimit="10"
                stroke-width="1.3538"
                d="M12.123 21.234c0.008 1.235 1.015 2.229 2.249 2.222l1.221-0.008c1.235-0.008 2.23-1.015 2.222-2.251l-0-0.013c-0.005-0.703-0.34-1.363-0.906-1.782l-3.89-2.878c-0.57-0.422-0.906-1.088-0.906-1.797 0-1.235 1.001-2.235 2.235-2.235h1.222c1.235 0 2.235 1.001 2.235 2.235"></path>
            <path stroke-linejoin="round" stroke-linecap="round" stroke-miterlimit="10"
                stroke-width="1.3538" d="M14.964 12.492v-2.358"></path>
            <path stroke-linejoin="round" stroke-linecap="round" stroke-miterlimit="10"
                stroke-width="1.3538" d="M14.964 25.814v-2.358"></path>
        </symbol>
        <symbol id="icon-toll-roads" viewBox="0 0 33 32">
            <path
                d="M31.58 20.027h-0.609v-4.249h0.272c0.345 0 0.625-0.28 0.625-0.625v-7.246c0-0.888-0.723-1.61-1.611-1.61h-7.747l-0.735-3.68c-0.195-0.977-1.061-1.687-2.057-1.687h-12.126c-0.997 0-1.862 0.709-2.057 1.687l-5.297 26.504c-0.030 0.15-0.039 0.301-0.027 0.45 0.026 0.327 0.151 0.641 0.364 0.901s0.497 0.444 0.813 0.534c0.143 0.041 0.293 0.062 0.447 0.062h23.642c0.49 0 0.949-0.217 1.259-0.596s0.434-0.871 0.337-1.351l-2.667-13.344h5.316v4.249h-0.843c-0.345 0-0.625 0.28-0.625 0.625s0.28 0.625 0.625 0.625h2.701c0.345 0 0.625-0.28 0.625-0.625s-0.28-0.625-0.625-0.625zM3.374 29.819h-1.54c-0.156 0-0.25-0.087-0.292-0.138s-0.109-0.161-0.078-0.314l5.297-26.504c0.079-0.395 0.429-0.682 0.832-0.682h0.67l-4.889 27.638zM13.204 29.819l0.083-8.584c0.003-0.345-0.274-0.628-0.619-0.631-0.002-0-0.004-0-0.006-0-0.342 0-0.621 0.276-0.625 0.619l-0.083 8.596h-7.311l4.889-27.638h2.69l-0.125 12.966c-0.003 0.345 0.274 0.628 0.619 0.631 0.002 0 0.004 0 0.006 0 0.342 0 0.621-0.276 0.625-0.619l0.125-12.979h0.543l0.267 27.638h-1.078zM19.718 2.18c0.403 0 0.753 0.287 0.832 0.682l0.687 3.435h-1.46l-0.728-4.116h0.67zM18.727 7.547l5.165 0v6.981h-5.261c-0.329 0-0.597-0.268-0.597-0.597v-5.787c0-0.329 0.268-0.597 0.597-0.597h0.096zM15.532 29.819l-0.267-27.638h2.513l0.729 4.121c-0.961 0.064-1.723 0.866-1.723 1.843v5.787c0 1.019 0.829 1.847 1.847 1.847h1.552l2.483 14.041h-7.135zM25.847 29.366c0.031 0.153-0.036 0.262-0.078 0.314s-0.137 0.138-0.293 0.138h-1.54l-2.483-14.041h1.678l2.716 13.588zM30.618 14.528h-5.476v-6.981h5.115c0.199 0 0.361 0.162 0.361 0.361v6.621z"></path>
            <path
                d="M22.294 9.237l-1.059-0.595c-0.19-0.107-0.422-0.107-0.613 0l-1.059 0.595c-0.301 0.169-0.408 0.55-0.239 0.851s0.55 0.408 0.851 0.239l0.127-0.072v2.527c0 0.345 0.28 0.625 0.625 0.625 0.035 0 0.069-0.004 0.103-0.009 0.296-0.049 0.522-0.306 0.522-0.616v-2.527l0.127 0.072c0.097 0.054 0.202 0.080 0.306 0.080 0.023 0 0.047-0.002 0.070-0.005 0.193-0.022 0.373-0.132 0.476-0.314 0.169-0.301 0.062-0.682-0.238-0.851z"></path>
            <path
                d="M30.182 9.619l-0.595-1.059c-0.169-0.301-0.55-0.408-0.851-0.239s-0.408 0.55-0.239 0.851l0.072 0.127h-0.81c-0.708 0-1.284 0.576-1.284 1.284v2.515c0 0.345 0.28 0.625 0.625 0.625s0.625-0.28 0.625-0.625v-2.515c0-0.019 0.015-0.034 0.034-0.034h0.81l-0.072 0.127c-0.169 0.301-0.062 0.682 0.239 0.851 0.097 0.054 0.202 0.080 0.306 0.080 0.219 0 0.431-0.115 0.545-0.319l0.595-1.059c0.107-0.19 0.107-0.422 0-0.613z"></path>
            <path
                d="M13.304 18.127c-0.008-0.039-0.020-0.079-0.036-0.117s-0.035-0.074-0.057-0.108c-0.023-0.034-0.049-0.066-0.078-0.095s-0.061-0.055-0.095-0.078c-0.034-0.023-0.071-0.042-0.108-0.057s-0.077-0.027-0.117-0.036c-0.081-0.016-0.164-0.016-0.244 0-0.040 0.008-0.079 0.020-0.117 0.036s-0.074 0.035-0.108 0.057c-0.034 0.023-0.066 0.049-0.095 0.078s-0.055 0.061-0.077 0.095c-0.023 0.034-0.042 0.070-0.058 0.108s-0.027 0.077-0.036 0.117c-0.008 0.041-0.012 0.082-0.012 0.123 0 0.164 0.067 0.326 0.183 0.442 0.029 0.029 0.061 0.055 0.095 0.077s0.071 0.042 0.108 0.057 0.077 0.027 0.117 0.036c0.041 0.008 0.081 0.012 0.123 0.012s0.081-0.004 0.122-0.012c0.040-0.008 0.079-0.020 0.117-0.036s0.074-0.035 0.108-0.057c0.034-0.023 0.066-0.049 0.095-0.077 0.116-0.116 0.183-0.277 0.183-0.442 0-0.041-0.004-0.082-0.012-0.123z"></path>
        </symbol>
        <symbol id="icon-arrow" viewBox="0 0 32 32">
            <path stroke-linejoin="round" stroke-linecap="round" stroke-miterlimit="4"
                stroke-width="1.6"
                d="M14.667 21.333l5.333-5.333M20 16l-5.333-5.333M20 16h-16M6.021 22.667c2.153 3.216 5.819 5.333 9.979 5.333 6.627 0 12-5.373 12-12s-5.373-12-12-12c-4.161 0-7.827 2.117-9.979 5.333"></path>
        </symbol>
        <symbol id="icon-directly" viewBox="0 0 33 32">
            <path
                d="M15.375 29h-3c-0.133 0-0.26 0.053-0.354 0.146s-0.146 0.221-0.146 0.354 0.053 0.26 0.146 0.354c0.094 0.094 0.221 0.146 0.354 0.146h3c0.133 0 0.26-0.053 0.354-0.146s0.146-0.221 0.146-0.354-0.053-0.26-0.146-0.354c-0.094-0.094-0.221-0.146-0.354-0.146z"></path>
            <path
                d="M25.613 13.011h-0.23c-0.235-0-0.468 0.047-0.685 0.138s-0.413 0.225-0.577 0.394c-0.207-0.212-0.464-0.368-0.747-0.455v-11.588c-0-0.398-0.159-0.779-0.44-1.060s-0.663-0.439-1.060-0.44h-16c-0.398 0-0.779 0.159-1.060 0.44s-0.439 0.663-0.44 1.060v29c0 0.398 0.159 0.779 0.44 1.060s0.662 0.439 1.060 0.44h16c0.398-0 0.779-0.159 1.060-0.44s0.439-0.663 0.44-1.060v-2.25h0.747c0.861 0 1.688-0.341 2.298-0.95s0.954-1.434 0.956-2.295v-10.236c-0.001-0.467-0.187-0.914-0.517-1.243s-0.778-0.515-1.244-0.515zM16.735 1l-0.25 1h-5.219l-0.25-1h5.719zM22.375 30.5c-0 0.133-0.053 0.26-0.147 0.353s-0.221 0.146-0.353 0.147h-16c-0.133-0-0.26-0.053-0.353-0.147s-0.146-0.221-0.147-0.353v-29c0-0.133 0.053-0.26 0.147-0.353s0.221-0.146 0.353-0.147h4.11l0.311 1.243c0.054 0.216 0.179 0.409 0.354 0.546s0.393 0.212 0.616 0.211h5.219c0.223 0 0.44-0.074 0.616-0.211s0.301-0.329 0.355-0.546l0.311-1.243h4.11c0.133 0 0.26 0.053 0.353 0.147s0.146 0.221 0.147 0.353v11.532c-0.383 0.055-0.736 0.235-1.006 0.511-0.164-0.169-0.36-0.303-0.577-0.394s-0.45-0.138-0.685-0.138h-0.23c-0.264-0-0.524 0.059-0.762 0.173v-0.814c0.622-0.431 1.088-1.053 1.327-1.771s0.238-1.495-0.002-2.213c-0.24-0.718-0.706-1.339-1.329-1.769s-1.369-0.647-2.125-0.617c-0.757 0.030-1.483 0.304-2.070 0.782s-1.004 1.133-1.187 1.868c-0.183 0.735-0.123 1.509 0.172 2.207s0.807 1.281 1.462 1.662v7.209l-2.818-2.867c-0.331-0.329-0.779-0.514-1.245-0.514s-0.914 0.184-1.245 0.513l-0.162 0.162c-0.329 0.327-0.514 0.772-0.517 1.236s0.179 0.91 0.505 1.24l7.060 7.936c0.219 0.256 0.492 0.462 0.798 0.603s0.64 0.214 0.977 0.213h3.659v2.25zM17.354 7.75h-0.23c-0.467 0-0.914 0.185-1.244 0.515s-0.516 0.777-0.517 1.243v1.759c-0.342-0.338-0.58-0.768-0.684-1.238s-0.071-0.96 0.096-1.411c0.167-0.451 0.46-0.845 0.845-1.134s0.845-0.461 1.325-0.495c0.48-0.034 0.96 0.071 1.382 0.302s0.768 0.58 0.997 1.003c0.229 0.423 0.331 0.903 0.294 1.383s-0.211 0.939-0.502 1.322v-1.493c-0.001-0.467-0.187-0.914-0.517-1.243s-0.778-0.515-1.244-0.515zM26.375 25.005c-0.002 0.596-0.24 1.168-0.662 1.588s-0.994 0.657-1.591 0.657h-5.406c-0.195-0-0.387-0.043-0.563-0.124s-0.333-0.201-0.459-0.349l-7.076-7.954c-0.007-0.008-0.014-0.015-0.021-0.022-0.071-0.070-0.127-0.154-0.165-0.245s-0.058-0.191-0.058-0.29c0.006-0.119 0.036-0.236 0.089-0.342s0.127-0.201 0.219-0.278c0.078-0.088 0.173-0.16 0.279-0.211s0.221-0.081 0.339-0.088c0.099-0 0.197 0.019 0.289 0.056s0.175 0.093 0.245 0.163l3.671 3.735c0.070 0.071 0.159 0.119 0.256 0.139s0.198 0.011 0.29-0.027c0.092-0.038 0.171-0.102 0.226-0.184s0.085-0.179 0.085-0.279v-11.44c0.001-0.201 0.081-0.394 0.224-0.537s0.336-0.222 0.538-0.222h0.23c0.201-0 0.395 0.079 0.538 0.222s0.223 0.335 0.224 0.537l-0.011 11.213c0 0.133 0.053 0.26 0.146 0.354s0.221 0.146 0.354 0.146c0.133 0 0.26-0.053 0.354-0.146s0.146-0.221 0.146-0.354c0 0 0.011-5.917 0.011-5.952 0.001-0.201 0.081-0.394 0.224-0.537s0.336-0.222 0.538-0.222h0.23c0.2-0 0.392 0.079 0.535 0.219s0.224 0.332 0.226 0.532c-0.003 0.021-0.006 5.959-0.006 5.959 0 0.133 0.053 0.26 0.146 0.354s0.221 0.146 0.354 0.146c0.133 0 0.26-0.053 0.354-0.146s0.146-0.221 0.146-0.354c0 0 0.007-5.927 0.007-5.952 0.001-0.201 0.081-0.394 0.224-0.537s0.336-0.222 0.538-0.222h0.23c0.201-0 0.395 0.079 0.538 0.222s0.223 0.335 0.224 0.537c0 0.004 0.001 0.007 0.001 0.011-0.001 0.015-0.005 5.941-0.005 5.941 0 0.133 0.053 0.26 0.146 0.354s0.221 0.146 0.354 0.146 0.26-0.053 0.354-0.146c0.094-0.094 0.146-0.221 0.146-0.354 0 0-0.001-5.902-0.001-5.906 0.001-0.015 0.005-0.030 0.005-0.046 0.001-0.201 0.081-0.394 0.224-0.537s0.336-0.222 0.538-0.222h0.23c0.201-0 0.395 0.079 0.538 0.222s0.224 0.335 0.224 0.537v10.236z"></path>
        </symbol>
        <symbol id="icon-fast" viewBox="0 0 33 32">
            <path stroke-linejoin="round" stroke-linecap="round" stroke-miterlimit="10"
                stroke-width="1"
                d="M26.54 28.799c-4.652 3.029-10.943 2.503-15.025-1.579-4.686-4.686-4.686-12.284 0-16.971s12.284-4.686 16.971 0c4.078 4.078 4.607 10.361 1.588 15.012"></path>
            <path stroke-linejoin="round" stroke-linecap="round" stroke-miterlimit="10"
                stroke-width="1"
                d="M20 27.805c-5.010 0-9.071-4.061-9.071-9.071s4.061-9.071 9.071-9.071 9.071 4.061 9.071 9.071c0 5.010-4.061 9.071-9.071 9.071z"></path>
            <path stroke-linejoin="round" stroke-linecap="round" stroke-miterlimit="10"
                stroke-width="1"
                d="M17.741 4.268h4.5c0.828 0 1.5-0.672 1.5-1.5s-0.672-1.5-1.5-1.5h-4.5c-0.829 0-1.5 0.672-1.5 1.5s0.671 1.5 1.5 1.5z"></path>
            <path stroke-linejoin="round" stroke-linecap="round" stroke-miterlimit="10"
                stroke-width="1" d="M22.128 6.734v-2.467h-4.276v2.467"></path>
            <path stroke-linejoin="round" stroke-linecap="round" stroke-miterlimit="10"
                stroke-width="1" d="M21.185 17.549l3.211-3.211"></path>
            <path stroke-linejoin="round" stroke-linecap="round" stroke-miterlimit="10"
                stroke-width="1"
                d="M18.683 18.734c0 0.727 0.59 1.317 1.317 1.317s1.317-0.59 1.317-1.317c0-0.727-0.59-1.317-1.317-1.317s-1.317 0.59-1.317 1.317z"></path>
            <path stroke-linejoin="round" stroke-linecap="round" stroke-miterlimit="10"
                stroke-width="1" d="M26.683 18.742h-0.579"></path>
            <path stroke-linejoin="round" stroke-linecap="round" stroke-miterlimit="10"
                stroke-width="1" d="M13.318 18.727h0.579"></path>
            <path stroke-linejoin="round" stroke-linecap="round" stroke-miterlimit="10"
                stroke-width="1" d="M20.008 12.052v0.579"></path>
            <path stroke-linejoin="round" stroke-linecap="round" stroke-miterlimit="10"
                stroke-width="1" d="M19.992 25.416v-0.579"></path>
            <path stroke-linejoin="round" stroke-linecap="round" stroke-miterlimit="10"
                stroke-width="1" d="M19.012 17.746l-1.697-1.697"></path>
            <path stroke-linejoin="round" stroke-linecap="round" stroke-miterlimit="10"
                stroke-width="1" d="M20.931 17.803l3.373-3.373"></path>
            <path stroke-linejoin="round" stroke-linecap="round" stroke-miterlimit="10"
                stroke-width="1" d="M8.548 22.592h-4.798"></path>
            <path stroke-linejoin="round" stroke-linecap="round" stroke-miterlimit="10"
                stroke-width="1" d="M8 18.939h-3.375"></path>
            <path stroke-linejoin="round" stroke-linecap="round" stroke-miterlimit="10"
                stroke-width="1" d="M8.381 15.287h-7.131"></path>
            <path stroke-linejoin="round" stroke-linecap="round" stroke-miterlimit="10"
                stroke-width="1" d="M9.964 11.635h-4.454"></path>
        </symbol>
        <symbol id="icon-payments" viewBox="0 0 33 32">
            <path
                d="M29.375 1c-0.53 0-1.039 0.211-1.414 0.586s-0.586 0.884-0.586 1.414v0.090c-0.226-0.082-0.468-0.109-0.707-0.077s-0.465 0.121-0.662 0.259-0.357 0.323-0.466 0.536c-0.11 0.214-0.166 0.451-0.165 0.691v0.59c-0.226-0.082-0.468-0.109-0.707-0.077s-0.465 0.121-0.662 0.259-0.357 0.323-0.466 0.536c-0.11 0.214-0.166 0.451-0.165 0.691v9.77l-1.165 2.015c-0.219 0.38-0.335 0.811-0.335 1.25v6.555c-0.291 0.104-0.544 0.295-0.723 0.547s-0.276 0.554-0.277 0.863v2c0.001 0.398 0.16 0.778 0.441 1.059s0.662 0.439 1.059 0.441h6c0.398-0.001 0.778-0.16 1.059-0.441s0.439-0.662 0.441-1.059v-2c-0.002-0.309-0.098-0.611-0.277-0.863s-0.431-0.443-0.723-0.547v-1.935c0.001-0.357 0.129-0.703 0.36-0.975l1.54-1.795c0.387-0.453 0.599-1.029 0.6-1.625v-16.76c0-0.53-0.211-1.039-0.586-1.414s-0.884-0.586-1.414-0.586zM26.375 4.5c0-0.133 0.053-0.26 0.146-0.354s0.221-0.146 0.354-0.146 0.26 0.053 0.354 0.146c0.094 0.094 0.146 0.221 0.146 0.354v7.68c-0.319-0.077-0.652-0.073-0.97 0.010-0.010 0-0.020 0.010-0.030 0.010v-7.7zM24.375 6.5c0-0.133 0.053-0.26 0.146-0.354s0.221-0.146 0.354-0.146 0.26 0.053 0.354 0.146c0.094 0.094 0.146 0.221 0.146 0.354v6.365c-0.067 0.081-0.129 0.166-0.185 0.255l-0.815 1.415v-8.035zM28.875 29.5c0 0.133-0.053 0.26-0.146 0.354s-0.221 0.146-0.354 0.146h-6c-0.133 0-0.26-0.053-0.354-0.146s-0.146-0.221-0.146-0.354v-2c0-0.133 0.053-0.26 0.146-0.354s0.221-0.146 0.354-0.146h6c0.133 0 0.26 0.053 0.354 0.146s0.146 0.221 0.146 0.354v2zM30.375 19.76c-0 0.357-0.128 0.703-0.36 0.975l-1.54 1.795c-0.386 0.454-0.598 1.029-0.6 1.625v1.845h-5v-6.465c0.001-0.263 0.070-0.521 0.2-0.75l2.985-5.165c0.133-0.229 0.351-0.396 0.607-0.465s0.529-0.033 0.758 0.1c0.229 0.133 0.395 0.352 0.464 0.607s0.033 0.528-0.099 0.758l-3.25 5.63 0.865 0.5 3.25-5.63c0.212-0.371 0.3-0.801 0.25-1.226s-0.236-0.822-0.529-1.134v-9.76c0-0.265 0.105-0.52 0.293-0.707s0.442-0.293 0.707-0.293c0.265 0 0.52 0.105 0.707 0.293s0.293 0.442 0.293 0.707v16.76z"></path>
            <path d="M27.875 28h-5v1h5v-1z"></path>
            <path
                d="M10.875 26.090v-6.555c-0-0.439-0.116-0.87-0.335-1.25l-1.165-2.015v-9.77c0.002-0.24-0.055-0.478-0.165-0.691s-0.27-0.398-0.466-0.536c-0.197-0.139-0.424-0.227-0.662-0.259s-0.481-0.005-0.707 0.077v-0.59c0.002-0.24-0.055-0.478-0.165-0.691s-0.27-0.398-0.466-0.536c-0.197-0.139-0.424-0.227-0.662-0.259s-0.481-0.005-0.707 0.077v-0.090c0-0.53-0.211-1.039-0.586-1.414s-0.884-0.586-1.414-0.586c-0.53 0-1.039 0.211-1.414 0.586s-0.586 0.884-0.586 1.414v16.76c0.001 0.596 0.213 1.172 0.6 1.625l1.54 1.795c0.231 0.272 0.359 0.618 0.36 0.975v1.935c-0.291 0.104-0.544 0.295-0.723 0.547s-0.276 0.554-0.277 0.863v2c0.001 0.398 0.16 0.778 0.441 1.059s0.662 0.439 1.059 0.441h6c0.398-0.001 0.778-0.16 1.059-0.441s0.44-0.662 0.441-1.059v-2c-0.002-0.309-0.098-0.611-0.277-0.863s-0.431-0.443-0.723-0.547zM7.375 6.5c0-0.133 0.053-0.26 0.146-0.354s0.221-0.146 0.354-0.146c0.133 0 0.26 0.053 0.354 0.146s0.146 0.221 0.146 0.354v8.035l-0.815-1.415c-0.056-0.089-0.118-0.174-0.185-0.255v-6.365zM5.375 4.5c0-0.133 0.053-0.26 0.146-0.354s0.221-0.146 0.354-0.146c0.133 0 0.26 0.053 0.354 0.146s0.146 0.221 0.146 0.354v7.7c-0.010 0-0.020-0.010-0.030-0.010-0.317-0.086-0.651-0.089-0.97-0.010v-7.68zM2.735 20.735c-0.232-0.272-0.36-0.618-0.36-0.975v-16.76c0-0.265 0.105-0.52 0.293-0.707s0.442-0.293 0.707-0.293c0.265 0 0.52 0.105 0.707 0.293s0.293 0.442 0.293 0.707v9.76c-0.293 0.311-0.479 0.709-0.53 1.134s0.037 0.855 0.25 1.226l3.25 5.63 0.865-0.5-3.25-5.63c-0.132-0.23-0.167-0.502-0.099-0.758s0.235-0.474 0.464-0.607c0.229-0.132 0.502-0.168 0.758-0.1s0.474 0.236 0.607 0.465l2.985 5.165c0.13 0.229 0.199 0.487 0.2 0.75v6.465h-5v-1.845c-0.002-0.596-0.214-1.171-0.6-1.625l-1.54-1.795zM10.875 29.5c0 0.133-0.053 0.26-0.146 0.354s-0.221 0.146-0.354 0.146h-6c-0.133 0-0.26-0.053-0.354-0.146s-0.146-0.221-0.146-0.354v-2c0-0.133 0.053-0.26 0.146-0.354s0.221-0.146 0.354-0.146h6c0.133 0 0.26 0.053 0.354 0.146s0.146 0.221 0.146 0.354v2z"></path>
            <path d="M9.875 28h-5v1h5v-1z"></path>
            <path
                d="M22.045 3.030l-5.5-2c-0.11-0.040-0.23-0.040-0.34 0l-5.5 2c-0.097 0.034-0.181 0.098-0.24 0.182s-0.091 0.185-0.090 0.288v4.345c0.001 0.905 0.19 1.801 0.556 2.629s0.9 1.571 1.569 2.181l3.54 3.215c0.091 0.084 0.211 0.13 0.335 0.13s0.244-0.046 0.335-0.13l3.54-3.215c0.669-0.61 1.203-1.353 1.569-2.181s0.555-1.723 0.556-2.629v-4.345c0-0.103-0.031-0.203-0.090-0.288s-0.143-0.148-0.24-0.182zM21.375 7.845c-0 0.766-0.161 1.524-0.471 2.225s-0.763 1.329-1.329 1.845l-3.2 2.91-3.2-2.91c-0.566-0.516-1.019-1.144-1.329-1.845s-0.47-1.459-0.471-2.225v-3.995l5-1.82 5 1.82v3.995z"></path>
            <path
                d="M14.229 7.646l-0.707 0.707 2 2c0.094 0.094 0.221 0.146 0.354 0.146s0.26-0.053 0.354-0.146l3.5-3.5-0.707-0.707-3.146 3.146-1.646-1.646z"></path>
        </symbol>
        <symbol id="icon-use" viewBox="0 0 33 32">
            <path stroke-linejoin="round" stroke-linecap="round" stroke-miterlimit="10"
                stroke-width="1"
                d="M30.848 13.149v-9.729c0-1.544-1.251-2.795-2.795-2.795h-22.356c-1.544 0-2.795 1.251-2.795 2.795v25.16c0 1.544 1.251 2.795 2.795 2.795h22.356c1.544 0 2.795-1.251 2.795-2.795v-9.95"></path>
            <path stroke-linejoin="round" stroke-linecap="round" stroke-miterlimit="10"
                stroke-width="1"
                d="M18.628 14.522c0-0.68-0.551-1.231-1.231-1.231h0.787c0.68 0 1.231-0.55 1.231-1.231-0.070-0.75-0.48-1.16-1.231-1.231h0.806c0.68 0 1.231-0.551 1.231-1.231 0-0.694-0.502-1.231-1.231-1.231l4.304 0c0.68 0 1.231-0.55 1.231-1.23 0-0.659-0.506-1.231-1.231-1.231l-6.513 0.001c1.36 0 2.462-1.102 2.462-2.461h-4.944c-0.989 0-1.959 0.277-2.799 0.8l-2.748 1.937-5.851-0.333v7.384l5.874-0.361 2.834 2.039c0.854 0.549 1.848 0.841 2.863 0.841h2.925c0.679 0 1.231-0.551 1.231-1.23z"></path>
            <path stroke-linejoin="round" stroke-linecap="round" stroke-miterlimit="10"
                stroke-width="1"
                d="M23.218 3.293c2.108 0 3.817 1.709 3.817 3.817s-1.709 3.817-3.817 3.817"></path>
            <path stroke-linejoin="round" stroke-linecap="round" stroke-miterlimit="10"
                stroke-width="1" d="M18.191 5.906h-2.020"></path>
            <path stroke-linejoin="round" stroke-linecap="round" stroke-miterlimit="10"
                stroke-width="1" d="M6.014 24.777h2.133"></path>
            <path stroke-linejoin="round" stroke-linecap="round" stroke-miterlimit="10"
                stroke-width="1" d="M7.077 24.899v3.74"></path>
            <path stroke-linejoin="round" stroke-linecap="round" stroke-miterlimit="10"
                stroke-width="1"
                d="M13.11 25.292c1.575 2.067-0.762 4.404-2.83 2.83-1.575-2.067 0.762-4.404 2.83-2.83z"></path>
            <path stroke-linejoin="round" stroke-linecap="round" stroke-miterlimit="10"
                stroke-width="1"
                d="M13.183 22.336l1.45-3.809c0.030-0.072 0.132-0.073 0.162-0l1.437 3.809"></path>
            <path stroke-linejoin="round" stroke-linecap="round" stroke-miterlimit="10"
                stroke-width="1" d="M13.635 21.387h2.152"></path>
            <path stroke-linejoin="round" stroke-linecap="round" stroke-miterlimit="10"
                stroke-width="1" d="M11.189 18.451h-1.613v3.828h1.613"></path>
            <path stroke-linejoin="round" stroke-linecap="round" stroke-miterlimit="10"
                stroke-width="1" d="M11.070 20.365h-1.494"></path>
            <path stroke-linejoin="round" stroke-linecap="round" stroke-miterlimit="10"
                stroke-width="1"
                d="M20.292 18.87c0 0-0.693-0.583-1.511-0.336-0.751 0.226-0.856 1.091-0.313 1.446 0 0 0.533 0.238 1.124 0.456 1.423 0.525 0.81 1.901-0.335 1.901-0.573 0-1.055-0.251-1.346-0.573"></path>
            <path stroke-linejoin="round" stroke-linecap="round" stroke-miterlimit="10"
                stroke-width="1" d="M22.031 18.434l1.234 1.89 1.224-1.88"></path>
            <path stroke-linejoin="round" stroke-linecap="round" stroke-miterlimit="10"
                stroke-width="1" d="M23.26 22.297l0.005-1.973"></path>
            <path stroke-linejoin="round" stroke-linecap="round" stroke-miterlimit="10"
                stroke-width="1"
                d="M23.95 25.153c0 0-0.693-0.583-1.511-0.336-0.751 0.226-0.856 1.091-0.313 1.445 0 0 0.533 0.238 1.124 0.456 1.423 0.525 0.81 1.901-0.335 1.901-0.573 0-1.055-0.251-1.346-0.573"></path>
            <path stroke-linejoin="round" stroke-linecap="round" stroke-miterlimit="10"
                stroke-width="1"
                d="M16.886 24.776v2.63c0 0.448 0.222 0.749 0.6 0.991 0.184 0.117 0.416 0.201 0.704 0.201 0.25 0 0.459-0.058 0.631-0.145 0.44-0.221 0.72-0.558 0.72-1.050v-2.627"></path>
            <path stroke-linejoin="round" stroke-linecap="round" stroke-miterlimit="10"
                stroke-width="1" d="M27.798 24.756h-1.628v3.863h1.628"></path>
            <path stroke-linejoin="round" stroke-linecap="round" stroke-miterlimit="10"
                stroke-width="1" d="M27.678 26.688h-1.508"></path>
        </symbol>
        <symbol id="icon-green-zone" viewBox="0 0 17 32">
            <path fill="#4b8627" style="fill: var(--color1, #4b8627)"
                d="M5.383 15.052c-0.055 0.027-0.194 0.088-0.228 0.13-0.081 0.099-0.088 0.22-0.231 0.273-0.073 0.027-0.171 0.031-0.248 0.038-0.416 0.042-0.84-0.023-1.221-0.197 0.092-0.089 0.208-0.164 0.311-0.24-0.125-0.038-0.251-0.065-0.372-0.116-0.442-0.187-0.766-0.533-1.123-0.842 0.24-0.090 0.453-0.214 0.682-0.323 0.359-0.171 0.744-0.236 1.138-0.247l-0.252-0.358c0.229 0 0.477 0.020 0.698 0.084 0.151 0.044 0.293 0.113 0.436 0.177 0.312 0.214 0.52 0.422 0.725 0.741l-1.020-0.001c-0.136-0-0.389 0.031-0.507-0.027-0.060-0.029-0.117-0.040-0.182-0.019-0.059 0.019-0.104 0.061-0.128 0.118-0.018 0.044-0.021 0.091 0.001 0.135 0.025 0.051 0.079 0.093 0.133 0.105 0.081 0.019 0.141 0.001 0.211-0.039l0.060-0.034 1.732-0.004 0.006-0.187 0.393-0.009-0.004 0.379-0.574 0.008c-0.079 0.12-0.163 0.226-0.27 0.322-0.053 0.048-0.114 0.083-0.166 0.132z"></path>
            <path fill="#72bb37" style="fill: var(--color2, #72bb37)"
                d="M11.022 4.183c-0.128-0.764 0.106-1.426 0.391-2.124l0.324 0.298c0.203-0.733 0.619-1.385 1.114-1.953 0.121-0.139 0.247-0.288 0.389-0.404 0.3 0.512 0.603 1.007 0.832 1.557 0.135 0.325 0.232 0.664 0.334 1.001 0.1-0.093 0.196-0.188 0.313-0.26l0.025-0.016 0.015-0.009c0.124 0.491 0.204 0.95 0.203 1.458-0 0.194-0.004 0.392-0.040 0.584-0.132 1.009-0.574 1.919-1.181 2.728-0.2 0.267-0.41 0.526-0.651 0.757-0.182-0.075-0.359-0.143-0.528-0.246l0.747-0.771c-0.275-0.073-0.561-0.207-0.8-0.362-0.81-0.525-1.29-1.303-1.486-2.238z"></path>
            <path fill="#94ca3f" style="fill: var(--color3, #94ca3f)"
                d="M12.964 1.887c0.044 0.005 0.106 0.008 0.145 0.033 0.067 0.044 0.125 0.134 0.128 0.215 0.004 0.108-0.076 0.249-0.1 0.358-0.093 0.418-0.181 0.849-0.181 1.278 0 0.675 0.205 1.308 0.595 1.859 0.084 0.119 0.246 0.251 0.272 0.396-0.017 0.092-0.054 0.122-0.124 0.177-0.053 0.013-0.097 0.020-0.147-0.007-0.067-0.036-0.124-0.127-0.17-0.188-0.247-0.324-0.485-0.702-0.615-1.089-0.147-0.436-0.209-0.915-0.194-1.375 0.011-0.34 0.064-0.676 0.106-1.012 0.018-0.144 0.010-0.371 0.078-0.496 0.044-0.081 0.122-0.125 0.207-0.15z"></path>
            <path fill="#4b8627" style="fill: var(--color1, #4b8627)"
                d="M13.468 15.719l0.858-0.003c0.131-0 0.287-0.017 0.415 0.005l-0.001 0.125-0.003 3.711 0.001 4.174-1.245-0.088-0.018-0.056-0.014 0.053c-0.182 0.015-0.371 0.006-0.554 0.006-0.131 0-0.272 0.013-0.402 0.001l-1.363 0.063-0.005-4.149-0.008-3.744-0.005-0.092c0.114-0.017 0.232-0.010 0.347-0.010l0.55-0c0.145 0 0.347-0.024 0.486 0.008 0.308 0.030 0.65 0.009 0.959-0.007z"></path>
            <path fill="#31641b" style="fill: var(--color4, #31641b)"
                d="M11.125 15.728c0.114-0.017 0.232-0.010 0.347-0.010l0.55-0c0.145 0 0.347-0.024 0.486 0.008l-0.002 0.379-1.368 0.005-0.008-0.277-0.001-0.014-0.005-0.092z"></path>
            <path fill="#fff" style="fill: var(--color5, #fff)"
                d="M12.507 19.702l0.962 0.010 0.007 3.877-0.014 0.053c-0.182 0.015-0.371 0.006-0.554 0.006-0.131 0-0.272 0.013-0.402 0.001l0.001-3.948z"></path>
            <path fill="#94ca3f" style="fill: var(--color3, #94ca3f)"
                d="M12.508 15.726c0.308 0.030 0.65 0.009 0.959-0.007l-0.001 0.224 0.002 3.769-0.962-0.010-0-3.596 0.002-0.379z"></path>
            <path fill="#4b8627" style="fill: var(--color1, #4b8627)"
                d="M13.468 15.719l0.858-0.003c0.131-0 0.287-0.017 0.415 0.005l-0.001 0.125-0.003 3.711 0.001 4.174-1.245-0.088-0.018-0.056-0.007-3.877-0.002-3.769 0.001-0.224z"></path>
            <path fill="#31641b" style="fill: var(--color4, #31641b)"
                d="M13.468 15.719l0.858-0.003c0.131-0 0.287-0.017 0.415 0.005l-0.001 0.125-0.006 0.259-1.256 0.001-0.011-0.165 0.001-0.224z"></path>
            <path fill="#94ca3f" style="fill: var(--color3, #94ca3f)"
                d="M24.528 27.65c0.133 4.46-9.53 7.579-14.84 7.579s-9.835-2.716-9.615-4.991c0.11-1.761 1.397-2.592 1.397-2.592 0.215-0.192 0.453-0.362 0.683-0.535l1.119-0.792c0.716-0.457 1.5-0.866 2.28-1.201l0.026-0.011c0.313-0.134 0.622-0.267 0.946-0.371l-0.029-0.11c-0.037-0.147-0.144-0.637-0.074-0.756 0.018-0.007 0.021-0.010 0.042-0.012 0.053-0.006 0.141 0.034 0.187 0.055 0.264 0.121 0.437 0.293 0.629 0.505l0.202-0.066c-0.124-0.521-0.207-0.997-0.158-1.534 0.010-0.109 0.018-0.242 0.056-0.344 0.165 0.246 0.345 0.578 0.574 0.762 0.033-0.336 0.050-0.671 0.115-1.004 0.127-0.647 0.471-1.328 0.933-1.801 0.001 0.135-0.039 0.286-0.059 0.421l-0.134 0.999c-0.020 0.179-0.049 0.378-0.038 0.558l0 0.001c0.002 0.044 0.004 0.067 0.036 0.097 0.076-0.070 0.136-0.16 0.199-0.242 0.228-0.297 0.431-0.618 0.801-0.742-0.063 0.172-0.13 0.343-0.173 0.521-0.146 0.598-0.16 1.232-0.14 1.844l0.010-0.009c0.175-0.159 0.33-0.3 0.545-0.404-0.045 0.12-0.072 0.246-0.097 0.371l1.192-0.133 1.363-0.063c0.13 0.012 0.271-0.001 0.402-0.001 0.183-0.001 0.371 0.009 0.554-0.006l0.014-0.053 0.018 0.056 1.245 0.088c0.525 0.035 1.075 0.152 1.587 0.271-0.041-0.412-0.046-0.844 0.072-1.245 0.32 0.293 0.572 0.631 0.771 1.015 0.014-0.49 0.093-0.971 0.271-1.43 0.346-0.889 0.974-1.608 1.853-1.994-0.071 0.128-0.17 0.239-0.241 0.37-0.4 0.736-0.563 1.48-0.559 2.313 0.345-0.457 0.809-0.74 1.367-0.856-0.133 0.189-0.22 0.395-0.303 0.609-0.242 0.623-0.329 1.246-0.346 1.91 0.221-0.146 0.402-0.245 0.662-0.305l-0.142 0.448c1.12 0.443 2.176 0.985 3.19 1.635 0.568 0.462 1.412 0.866 1.609 1.176z"></path>
            <path fill="#94ca3f" style="fill: var(--color3, #94ca3f)"
                d="M17.484 5.476c0.298-0.562 0.597-1.143 0.971-1.658 0.181 0.208 0.339 0.417 0.468 0.661 0.248 0.468 0.349 0.96 0.424 1.478l0.316-0.214c0.044 0.379 0.016 0.761-0.077 1.132l0.663 1.197c0.307-0.202 0.615-0.397 0.968-0.509-0.011 0.166-0.034 0.324-0.073 0.485 0.295-0.088 0.585-0.191 0.885-0.264 0.493-0.12 1.001-0.169 1.507-0.176-0.191 0.978-0.565 1.863-1.109 2.697l0.536 0.097c-0.113 0.151-0.254 0.286-0.39 0.416-0.392 0.378-0.8 0.67-1.28 0.928-0.046 0.592-0.104 1.169-0.24 1.749-0.378 1.612-1.307 3.177-2.565 4.258-0.858 0.738-1.848 1.287-2.934 1.606l-0.816 0.199 0.003-3.711 0.001-0.125c-0.129-0.022-0.284-0.006-0.415-0.005l-0.858 0.003c-0.309 0.016-0.651 0.037-0.959 0.007-0.139-0.032-0.34-0.008-0.486-0.008l-0.55 0c-0.115 0-0.234-0.007-0.347 0.010l0.005 0.092 0.008 3.744c-0.613-0.096-1.232-0.307-1.796-0.562-1.304-0.588-2.459-1.532-3.28-2.706-0.267-0.382-0.514-0.808-0.68-1.244 0.052-0.049 0.113-0.084 0.166-0.132 0.108-0.097 0.191-0.202 0.27-0.322l0.574-0.008 0.004-0.379-0.393 0.009-0.006 0.187-1.732 0.004-0.060 0.034c-0.070 0.039-0.13 0.057-0.211 0.039-0.054-0.012-0.108-0.055-0.133-0.105-0.021-0.043-0.019-0.090-0.001-0.135 0.024-0.057 0.069-0.099 0.128-0.118 0.065-0.021 0.122-0.010 0.182 0.019 0.118 0.058 0.372 0.027 0.507 0.027l1.020 0.001c-0.205-0.319-0.413-0.527-0.725-0.741-0.277-1.337-0.22-2.724 0.183-4.031 0.080-0.258 0.184-0.507 0.283-0.758-0.202-0.434-0.284-0.911-0.302-1.386l0.469 0.061c-0.003-0.396 0.011-0.779 0.081-1.17 0.054-0.304 0.142-0.602 0.226-0.899 0.522 0.347 0.967 0.819 1.349 1.311 0.996-1.099 2.332-1.967 3.76-2.376 0.196 0.935 0.676 1.713 1.486 2.238 0.239 0.155 0.525 0.289 0.8 0.362l-0.747 0.771c0.169 0.103 0.346 0.171 0.528 0.246 0.242-0.231 0.451-0.49 0.651-0.757 0.608-0.808 1.049-1.719 1.181-2.728 0.896 0.225 1.837 0.572 2.561 1.16z"></path>
            <path fill="#fff" style="fill: var(--color5, #fff)"
                d="M13.914 8.824c0.076 0.017 0.143 0.093 0.185 0.154 0.079 0.116 0.123 0.271 0.098 0.41l-0.003 0.017 0.014 0.018 0.029-0.015c0.124-0.063 0.348-0.089 0.481-0.038 0.046 0.018 0.079 0.030 0.099 0.076-0.036 0.121-0.093 0.185-0.187 0.264-0.232 0.133-0.423 0.093-0.673 0.062-0.106-0.105-0.181-0.284-0.205-0.429-0.034-0.201 0.049-0.361 0.162-0.518z"></path>
            <path fill="#31641b" style="fill: var(--color4, #31641b)"
                d="M6.843 12.64l0.044 0.022-0.061 0.096c-0.005 0.055 0.003 0.071 0.038 0.114l1.227 1.21c-0.007 0.045-0.015 0.041-0.047 0.069l-0.896 0.843c-0.149 0.138-0.327 0.272-0.459 0.424-0.038 0.044-0.066 0.098-0.069 0.157-0.003 0.051 0.015 0.089 0.052 0.123l0.049 0.043c-0.047-0.001-0.098-0.001-0.144-0.014-0.049-0.015-0.096-0.056-0.12-0.102-0.022-0.044-0.024-0.107-0.008-0.152 0.011-0.032 0.044-0.072 0.067-0.096 0.117-0.127 0.256-0.239 0.381-0.359l0.659-0.616c0.090-0.083 0.194-0.205 0.304-0.255 0.011-0.018 0.019-0.036 0.027-0.056l-0.834-0.789c-0.124-0.119-0.334-0.267-0.405-0.423-0.002-0.045-0.004-0.090 0.017-0.131 0.036-0.072 0.108-0.087 0.179-0.107z"></path>
            <path fill="#fff" style="fill: var(--color5, #fff)"
                d="M12.231 10.084c0.041 0.002 0.055 0.002 0.087 0.032 0.045 0.043 0.056 0.147 0.056 0.204-0.002 0.198-0.063 0.396-0.209 0.536-0.046 0.044-0.232 0.205-0.292 0.202-0.271-0.015-0.517-0.135-0.695-0.336-0.045-0.063-0.094-0.133-0.111-0.21-0.011-0.049-0.013-0.086 0.012-0.128 0.096-0.037 0.255-0.039 0.354-0.014 0.171 0.044 0.304 0.165 0.394 0.312l0.014 0.024c-0.003-0.076 0.002-0.153 0.024-0.226 0.064-0.206 0.181-0.302 0.366-0.395z"></path>
            <path fill="#4b8627" style="fill: var(--color1, #4b8627)"
                d="M15.869 10.477c0.044-0.003 0.061-0.014 0.096 0.017-0.010 0.222-0.094 0.518-0.24 0.688l-0.011 0.012 0.003 0.013 0.168-0.001 0.001 0.019c-0.019 0.107-0.139 0.273-0.226 0.334-0.023 0.016-0.013 0.003-0.023 0.036 0.020 0.014 0.031 0.024 0.048 0.040-0.014 0.020-0.029 0.036-0.048 0.051-0.2 0.159-0.407 0.151-0.649 0.129l-0.134 0.215c-0.031 0.032-0.093 0.021-0.134 0.021l-0.018-0.024c0.073-0.126 0.177-0.24 0.268-0.353l0.316-0.409c0.050-0.067 0.108-0.118 0.17-0.172 0.005-0.040 0-0.066-0.021-0.101s-0.042-0.045-0.080-0.056c-0.106 0.061-0.17 0.183-0.238 0.28-0.106 0.152-0.213 0.314-0.343 0.445-0.064-0.121-0.109-0.232-0.116-0.371-0.004-0.068-0.001-0.19 0.047-0.241 0.032 0.012 0.054 0.014 0.088 0.014 0.019-0.045 0.023-0.092 0.041-0.136 0.036-0.086 0.112-0.169 0.17-0.241l0.078 0.268 0.088-0.141c0.153-0.217 0.45-0.297 0.698-0.339z"></path>
            <path fill="#4b8627" style="fill: var(--color1, #4b8627)"
                d="M9.764 6.637c0.296 0.122 0.617 0.289 0.787 0.572 0.014 0.024 0.020 0.035 0.041 0.054l0.185-0.277c0.103 0.095 0.183 0.205 0.22 0.341l0.006 0.023c0.029 0.108 0.028 0.201 0.024 0.313 0.058-0.028 0.122-0.070 0.188-0.068 0.007 0.012 0.012 0.017 0.015 0.033 0.047 0.227-0.054 0.466-0.157 0.661-0.102-0.103-0.187-0.231-0.273-0.348-0.126-0.171-0.248-0.326-0.335-0.519-0.021-0.046-0.070-0.090-0.119-0.104-0.038-0.011-0.061-0.012-0.094 0.013-0.036 0.027-0.057 0.079-0.056 0.123 0.003 0.084 0.136 0.204 0.191 0.267l0.886 1.093-0.24 0.195-0.363-0.541-0.242-0.069c-0.36-0.129-0.591-0.436-0.752-0.768l0.221-0.002c-0.12-0.338-0.139-0.639-0.133-0.995z"></path>
            <path fill="#72bb37" style="fill: var(--color2, #72bb37)"
                d="M17.484 5.476c0.298-0.562 0.597-1.143 0.971-1.658 0.181 0.208 0.339 0.417 0.468 0.661 0.248 0.468 0.349 0.96 0.424 1.478l0.316-0.214c0.044 0.379 0.016 0.761-0.077 1.132-0.072 0.242-0.169 0.473-0.293 0.692-0.239 0.42-0.683 0.833-1.16 0.958l-0.024 0.006c-0.105 0.028-0.212 0.035-0.319 0.046 0.21 0.372 0.494 0.727 0.828 0.993l-0.306 0.325c-0.227-0.221-0.442-0.469-0.586-0.754-0.074-0.146-0.134-0.307-0.174-0.466l-0.062-0.277c-0.005-0.026-0.008-0.093-0.019-0.113-0.008-0.014-0.069-0.050-0.084-0.061-0.203-0.145-0.371-0.339-0.459-0.574-0.268-0.711 0.279-1.549 0.558-2.175z"></path>
            <path fill="#4b8627" style="fill: var(--color1, #4b8627)"
                d="M5.439 8.642c-0.202-0.434-0.284-0.911-0.302-1.386l0.469 0.061c-0.003-0.396 0.011-0.779 0.081-1.17 0.054-0.304 0.142-0.602 0.226-0.899 0.522 0.347 0.967 0.819 1.349 1.311l0.287 0.434c0.059-0.13 0.112-0.279 0.189-0.399 0.482 0.482 0.819 1.215 0.818 1.903-0.001 0.433-0.118 0.892-0.435 1.203l-0.245 0.225 0.26 0.845c-0.025 0.025-0.067 0.034-0.101 0.046l-0.285 0.103c-0.193-0.403-0.408-0.74-0.833-0.928-0.174-0.077-0.349-0.138-0.514-0.236-0.424-0.252-0.74-0.684-0.965-1.114z"></path>
            <path fill="#94ca3f" style="fill: var(--color3, #94ca3f)"
                d="M6.346 7.070l0.135 0.003c0.040 0.007 0.079 0.044 0.101 0.078 0.083 0.131 0.131 0.291 0.212 0.427l0.321 0.515c0.21 0.364 0.397 0.762 0.533 1.16 0.127 0.373 0.202 0.722 0.134 1.116l-0.014-0.014c-0.301-0.829-0.695-1.628-1.155-2.38l-0.238-0.391c-0.062-0.102-0.162-0.23-0.146-0.356 0.010-0.074 0.063-0.112 0.118-0.156z"></path>
            <path fill="#4b8627" style="fill: var(--color1, #4b8627)"
                d="M6.843 12.64l11.427 0.011c0.077 0 0.185-0.011 0.257 0.011l-0.006 0.032 0.016 0.023c0.037 0.055 0.049 0.111 0.043 0.176-0.045 0.093-0.128 0.163-0.201 0.235l-0.341 0.333-0.723 0.717 0.807 0.805c0.143 0.141 0.341 0.296 0.448 0.463l0.037 0.059c-0.046 0.075-0.082 0.126-0.156 0.178l-0.060 0.041-3.651-0.002c-0.129-0.022-0.284-0.006-0.415-0.005l-0.858 0.003c-0.309 0.016-0.651 0.037-0.959 0.007-0.139-0.032-0.34-0.008-0.486-0.008l-0.55 0c-0.115 0-0.234-0.007-0.347 0.010-0.149 0.022-0.321 0.009-0.472 0.010l-0.969 0.004-1.828 0.002-1.137-0.003-0.049-0.043c-0.037-0.034-0.055-0.072-0.052-0.123 0.004-0.058 0.032-0.113 0.069-0.157 0.132-0.152 0.31-0.285 0.459-0.424l0.896-0.843c0.032-0.028 0.040-0.025 0.047-0.069l-1.227-1.21c-0.035-0.043-0.043-0.059-0.038-0.114l0.061-0.096-0.044-0.022z"></path>
            <path fill="#fff" style="fill: var(--color5, #fff)"
                d="M15.501 14.205c0.041 0.017 0.057 0.036 0.083 0.073 0.088 0.125 0.088 0.202 0.065 0.345l0.127-0.065c0.129-0.054 0.317 0.009 0.441 0.055l-0.011 0.025c-0.050 0.115-0.108 0.194-0.204 0.274-0.047 0.027-0.097 0.055-0.149 0.071-0.143 0.044-0.303 0.006-0.431-0.063l-0.018-0.010-0.044 0.033-0.026-0.011c-0.002-0.035-0.006-0.063 0.011-0.095 0.032-0.062-0.016-0.204-0.016-0.282 0-0.165 0.062-0.24 0.173-0.351z"></path>
        </symbol>
        <symbol id="icon-facebook" viewBox="0 0 33 32">
            <path
                d="M13.716 25.333v-8.759h-2.383v-3.154h2.383v-2.694c0-2.117 1.407-4.060 4.65-4.060 1.313 0 2.284 0.122 2.284 0.122l-0.077 2.945c0 0-0.99-0.009-2.071-0.009-1.169 0-1.357 0.524-1.357 1.393v2.303h3.521l-0.153 3.154h-3.367v8.759h-3.43z"></path>
        </symbol>
        <symbol id="icon-instagram" viewBox="0 0 33 32">
            <path
                d="M16.672 10.61c-3.029 0-5.471 2.405-5.471 5.386s2.443 5.386 5.471 5.386 5.471-2.405 5.471-5.386c0-2.981-2.443-5.386-5.471-5.386zM16.672 19.497c-1.957 0-3.557-1.57-3.557-3.501s1.595-3.502 3.557-3.502 3.557 1.57 3.557 3.502c0 1.931-1.6 3.501-3.557 3.501zM23.643 10.389c0 0.698-0.571 1.256-1.276 1.256-0.709 0-1.276-0.563-1.276-1.256s0.571-1.256 1.276-1.256c0.705 0 1.276 0.563 1.276 1.256zM27.267 11.664c-0.081-1.683-0.471-3.173-1.724-4.402-1.248-1.228-2.762-1.612-4.471-1.697-1.762-0.098-7.043-0.098-8.805 0-1.705 0.080-3.219 0.464-4.471 1.692s-1.638 2.719-1.724 4.402c-0.1 1.734-0.1 6.933 0 8.667 0.081 1.683 0.471 3.173 1.724 4.402s2.762 1.613 4.471 1.697c1.762 0.099 7.043 0.099 8.805 0 1.709-0.080 3.224-0.464 4.471-1.697 1.248-1.228 1.638-2.719 1.724-4.402 0.1-1.734 0.1-6.928 0-8.662zM24.991 22.188c-0.371 0.919-1.091 1.627-2.029 1.997-1.405 0.548-4.738 0.422-6.29 0.422s-4.89 0.122-6.29-0.422c-0.933-0.366-1.652-1.073-2.029-1.997-0.557-1.383-0.429-4.664-0.429-6.192s-0.124-4.814 0.429-6.192c0.371-0.919 1.090-1.627 2.029-1.997 1.405-0.548 4.738-0.422 6.29-0.422s4.89-0.122 6.29 0.422c0.933 0.366 1.652 1.073 2.029 1.997 0.557 1.383 0.429 4.664 0.429 6.192s0.129 4.814-0.429 6.192z"></path>
        </symbol>
        <symbol id="icon-linkedin" viewBox="0 0 33 32">
            <path
                d="M10.844 25.333v-13.494h-4.574v13.494h4.574zM8.557 9.996c1.595 0 2.588-1.036 2.588-2.331-0.030-1.324-0.993-2.332-2.557-2.332s-2.588 1.007-2.588 2.332c0 1.295 0.993 2.331 2.527 2.331h0.030zM13.375 25.333h4.574v-7.536c0-0.403 0.030-0.806 0.15-1.094 0.331-0.806 1.083-1.64 2.347-1.64 1.655 0 2.317 1.237 2.317 3.051v7.219h4.573v-7.737c0-4.145-2.256-6.073-5.266-6.073-2.467 0-3.551 1.352-4.152 2.274h0.031v-1.957h-4.574c0.060 1.266 0 13.494 0 13.494v0z"></path>
        </symbol>
        <symbol id="icon-twitter" viewBox="0 0 33 32">
            <path
                d="M28.666 8.939c-0.899 0.379-1.852 0.628-2.828 0.739 1.017-0.581 1.797-1.5 2.165-2.595-0.967 0.546-2.024 0.931-3.127 1.138-0.898-0.912-2.178-1.481-3.594-1.481-2.719 0-4.924 2.1-4.924 4.691 0 0.368 0.044 0.726 0.127 1.069-4.092-0.196-7.72-2.063-10.149-4.901-0.424 0.693-0.667 1.499-0.667 2.358 0 1.627 0.869 3.063 2.19 3.904-0.782-0.023-1.547-0.225-2.23-0.587-0 0.020-0 0.039-0 0.059 0 2.273 1.697 4.169 3.95 4.6-0.725 0.188-1.486 0.215-2.224 0.080 0.627 1.864 2.445 3.22 4.6 3.258-1.685 1.258-3.808 2.008-6.115 2.008-0.397 0-0.789-0.022-1.175-0.066 2.179 1.331 4.767 2.108 7.548 2.108 9.057 0 14.009-7.148 14.009-13.347 0-0.203-0.005-0.406-0.014-0.607 0.964-0.664 1.796-1.486 2.457-2.428z"></path>
        </symbol>
        <symbol id="icon-plus" viewBox="0 0 32 32">
<path stroke-linejoin="round" stroke-linecap="round" stroke-miterlimit="4" stroke-width="2.6667" d="M16 6.667v18.667"></path>
<path stroke-linejoin="round" stroke-linecap="round" stroke-miterlimit="4" stroke-width="2.6667" d="M6.667 16h18.667"></path>
</symbol>
<symbol id="icon-x" viewBox="0 0 31 32">
<path fill="none" stroke="#fff" style="stroke: var(--color1, #fff)" stroke-linejoin="round" stroke-linecap="round" stroke-miterlimit="4" stroke-width="2.56" d="M23.040 8.32l-15.36 15.36"></path>
<path fill="none" stroke="#fff" style="stroke: var(--color1, #fff)" stroke-linejoin="round" stroke-linecap="round" stroke-miterlimit="4" stroke-width="2.56" d="M7.68 8.32l15.36 15.36"></path>
</symbol>
        <symbol id="icon-class-a" viewBox="0 0 33 32">
            <path stroke-linejoin="round" stroke-linecap="round" stroke-miterlimit="22.926"
                stroke-width="0.6154"
                d="M29.080 21.118h1.562c0.516 0 0.938-0.422 0.938-0.938v-1.562h-3.455"></path>
            <path stroke-linejoin="round" stroke-linecap="round" stroke-miterlimit="22.926"
                stroke-width="0.6154"
                d="M3.955 21.118h-2.188c-0.515 0-0.937-0.422-0.937-0.938v-1.562h4.080"></path>
            <path stroke-linejoin="round" stroke-linecap="round" stroke-miterlimit="22.926"
                stroke-width="0.6154" d="M11.455 21.118h4.5"></path>
            <path stroke-linejoin="round" stroke-linecap="round" stroke-miterlimit="22.926"
                stroke-width="0.6154"
                d="M7.705 24.868c2.065 0 3.75-1.685 3.75-3.75s-1.685-3.75-3.75-3.75c-2.065 0-3.75 1.685-3.75 3.75s1.685 3.75 3.75 3.75z"></path>
            <path stroke-linejoin="round" stroke-linecap="round" stroke-miterlimit="22.926"
                stroke-width="0.6154"
                d="M7.705 22.368c0.688 0 1.25-0.562 1.25-1.25s-0.561-1.25-1.25-1.25c-0.689 0-1.25 0.562-1.25 1.25s0.562 1.25 1.25 1.25z"></path>
            <path stroke-linejoin="round" stroke-linecap="round" stroke-miterlimit="22.926"
                stroke-width="0.6154"
                d="M25.33 24.868c2.065 0 3.75-1.685 3.75-3.75s-1.685-3.75-3.75-3.75c-2.065 0-3.75 1.685-3.75 3.75s1.685 3.75 3.75 3.75z"></path>
            <path stroke-linejoin="round" stroke-linecap="round" stroke-miterlimit="22.926"
                stroke-width="0.6154"
                d="M25.33 22.368c0.689 0 1.25-0.562 1.25-1.25s-0.561-1.25-1.25-1.25c-0.689 0-1.25 0.562-1.25 1.25s0.562 1.25 1.25 1.25z"></path>
            <path stroke-linejoin="round" stroke-linecap="round" stroke-miterlimit="22.926"
                stroke-width="0.6154" d="M10.5 18.618h12.036"></path>
            <path stroke-linejoin="round" stroke-linecap="round" stroke-miterlimit="22.926"
                stroke-width="0.6154" d="M30.869 16.103h-0.975"></path>
            <path stroke-linejoin="round" stroke-linecap="round" stroke-miterlimit="22.926"
                stroke-width="0.6154" d="M2.747 16.103h-1.013"></path>
            <path stroke-linejoin="round" stroke-linecap="round" stroke-miterlimit="22.926"
                stroke-width="0.6154"
                d="M2.393 12.021l-0.938 0.929v5.667M30.955 18.618v-4.23c0-0.79-0.574-1.43-1.277-1.437h-6.274l-1.479-4.88c-0.157-0.518-0.646-0.939-1.18-0.939h-13.419l-0.938 0.93"></path>
            <path stroke-linejoin="round" stroke-linecap="round" stroke-miterlimit="22.926"
                stroke-width="0.6154" d="M22.398 9.632h-4.573v3.319h5.578"></path>
            <path stroke-linejoin="round" stroke-linecap="round" stroke-miterlimit="22.926"
                stroke-width="0.6154" d="M14.7 18.618v-11.486"></path>
            <path stroke-linejoin="round" stroke-linecap="round" stroke-miterlimit="22.926"
                stroke-width="0.6154" d="M8.881 12.951h3.319v-3.319h-3.319v3.319z"></path>
            <path stroke-linejoin="round" stroke-linecap="round" stroke-miterlimit="2.613"
                stroke-width="0.6154" d="M18.767 21.118h0"></path>
            <path stroke-linejoin="round" stroke-linecap="round" stroke-miterlimit="2.613"
                stroke-width="0.6154" d="M4.39 10.042l-0 0"></path>
        </symbol>
        <symbol id="icon-class-b" viewBox="0 0 32 32">
            <path stroke-linejoin="round" stroke-linecap="round" stroke-miterlimit="10"
                stroke-width="0.6154" d="M21.535 16.096h-18.235v6.578h18.235v-6.578z"></path>
            <path stroke-linejoin="round" stroke-linecap="round" stroke-miterlimit="10"
                stroke-width="0.6154" d="M6.94 13.31h-3.522"></path>
            <path stroke-linejoin="round" stroke-linecap="round" stroke-miterlimit="10"
                stroke-width="0.6154"
                d="M1.25 13.31c0 0.345-0.28 0.625-0.625 0.625s-0.625-0.28-0.625-0.625c0-0.345 0.28-0.625 0.625-0.625s0.625 0.28 0.625 0.625z"></path>
            <path stroke-linejoin="round" stroke-linecap="round" stroke-miterlimit="10"
                stroke-width="0.6154" d="M6.94 7.638h-3.367"></path>
            <path stroke-linejoin="round" stroke-linecap="round" stroke-miterlimit="10"
                stroke-width="0.6154"
                d="M1.25 7.638c0 0.345-0.28 0.625-0.625 0.625s-0.625-0.28-0.625-0.625c0-0.345 0.28-0.625 0.625-0.625s0.625 0.28 0.625 0.625z"></path>
            <path stroke-linejoin="round" stroke-linecap="round" stroke-miterlimit="10"
                stroke-width="0.6154"
                d="M9.547 10.475c0 0.345-0.28 0.625-0.625 0.625s-0.625-0.28-0.625-0.625c0-0.345 0.28-0.625 0.625-0.625s0.625 0.28 0.625 0.625z"></path>
            <path stroke-linejoin="round" stroke-linecap="round" stroke-miterlimit="10"
                stroke-width="0.6154" d="M6.171 10.475h-4.225"></path>
            <path stroke-linejoin="round" stroke-linecap="round" stroke-miterlimit="10"
                stroke-width="0.6154" d="M3.146 16.096h-2.521"></path>
            <path stroke-linejoin="round" stroke-linecap="round" stroke-miterlimit="10"
                stroke-width="0.6154"
                d="M24.668 10.084h-3.133v12.591h9.105v-5.458c0-0.544-0.176-1.072-0.502-1.507l-3.463-4.621c-0.474-0.632-1.217-1.005-2.007-1.005z"></path>
            <path stroke-linejoin="round" stroke-linecap="round" stroke-miterlimit="10"
                stroke-width="0.6154" d="M21.535 17.264v-4.53h3.068l3.395 4.53h-6.462z"></path>
            <path stroke-linejoin="round" stroke-linecap="round" stroke-miterlimit="10"
                stroke-width="0.6154"
                d="M21.535 22.675h-18.235v-16.423c0-1.386 1.124-2.51 2.51-2.51h13.215c1.386 0 2.51 1.124 2.51 2.51v16.423h0z"></path>
            <path stroke-linejoin="round" stroke-linecap="round" stroke-miterlimit="10"
                stroke-width="0.6154" d="M6.089 25.648h-3.524v-2.974h28.81v2.974h-3.531"></path>
            <path stroke-linejoin="round" stroke-linecap="round" stroke-miterlimit="10"
                stroke-width="0.6154" d="M22.163 25.649h-10.383"></path>
            <path stroke-linejoin="round" stroke-linecap="round" stroke-miterlimit="10"
                stroke-width="0.6154"
                d="M8.926 28.258c1.537 0 2.783-1.25 2.783-2.792s-1.246-2.792-2.783-2.792c-1.537 0-2.783 1.25-2.783 2.792s1.246 2.792 2.783 2.792z"></path>
            <path stroke-linejoin="round" stroke-linecap="round" stroke-miterlimit="10"
                stroke-width="0.6154"
                d="M25.002 28.258c1.537 0 2.783-1.25 2.783-2.792s-1.246-2.792-2.783-2.792c-1.537 0-2.783 1.25-2.783 2.792s1.246 2.792 2.783 2.792z"></path>
        </symbol>
        <symbol id="icon-other-vehicles" viewBox="0 0 33 32">
            <path stroke-linejoin="round" stroke-linecap="round" stroke-miterlimit="10"
                stroke-width="0.6154"
                d="M9.273 7.037c-0.379-0.314-0.71-0.667-0.968-1.079-1.369-2.18 0.57-4.073 3.028-5.498h4.648c-0.605 0.603-2.7 1.696-2.4 3.011 0.141 0.618 0.759 1.005 1.167 1.257 0.322 0.199 0.661 0.363 1.006 0.508 3.215 1.349 6.67 1.931 9.716 3.792 2.081 1.271 3.633 3.224 4.118 5.813 0.336 1.792 0.153 3.642-0.208 5.438l-0.007 0.033"></path>
            <path stroke-linejoin="round" stroke-linecap="round" stroke-miterlimit="10"
                stroke-width="0.6154"
                d="M28.874 22.43c-0.129 0.498-0.262 0.988-0.389 1.467-0.7 2.628-1.546 5.108-2.368 7.643h-21.878c0.31-0.486 5.962-7.347 8.369-10.074 1.264-1.432 4.322-5.179 3.809-8.086-0.528-2.997-3.061-3.995-5.26-5.153l-0.038-0.020"></path>
            <path stroke-linejoin="round" stroke-linecap="round" stroke-miterlimit="10"
                stroke-width="0.6154"
                d="M15.98 0.46h2.415c0 0-2.284 1.737-2.662 2.169-0.464 0.529 0.254 0.858 0.698 1.025 0.872 0.329 1.759 0.581 2.639 0.882 0.956 0.326 1.907 0.664 2.853 1.017 0.59 0.22 1.179 0.443 1.761 0.682 1.147 0.471 2.274 1.002 3.316 1.678 0.744 0.483 1.448 1.043 2.074 1.696 1.386 1.444 2.231 3.335 2.612 5.369 0.568 3.034 0.052 6.186-0.699 9.006-0.7 2.628-1.376 5.021-2.198 7.556l-2.671-0"></path>
            <path stroke-linejoin="round" stroke-linecap="round" stroke-miterlimit="10"
                stroke-width="0.6154"
                d="M11.332 0.46h-2.566c-1.935 1.122-3.346 3.533-2.279 5.937 0.875 1.97 3.002 2.846 4.623 3.904 0.899 0.586 1.877 1.103 2.623 1.923 0.686 0.754 0.872 1.716 0.595 2.721-0.693 2.522-2.934 4.673-4.564 6.52-2.407 2.727-8.561 9.588-8.871 10.074h3.722"></path>
            <path stroke-linejoin="round" stroke-linecap="round" stroke-miterlimit="10"
                stroke-width="0.6154"
                d="M11.857 2.416c-0.805 0.622-1.094 2.212-0.432 3.021 0.62 0.757 1.662 1.093 2.511 1.511 1.21 0.595 2.389 1.227 3.596 1.839 0.86 0.436 1.653 0.974 2.521 1.42 1.927 0.989 3.369 3.103 3.336 5.302-0.040 2.629-1.623 4.835-2.853 7.070-1.26 2.287-3.983 6.868-5.319 8.961"></path>
        </symbol>
        <symbol id="icon-Bg-Bulgaria" viewBox="0 0 32 32">
<path fill="#5eaa22" style="fill: var(--color1, #5eaa22)" d="M0 0v32h32v-32h-32z"></path>
<path fill="#f7fcff" style="fill: var(--color2, #f7fcff)" d="M0 0v10.667h32v-10.667h-32z"></path>
<path fill="#e22c18" style="fill: var(--color3, #e22c18)" d="M0 21.333v10.667h32v-10.667h-32z"></path>
</symbol>
<symbol id="icon-Dk-Denmark" viewBox="0 0 32 32">
<path fill="#c51918" style="fill: var(--color4, #c51918)" d="M0 0v32h32v-32h-32z"></path>
<path fill="#f7fcff" style="fill: var(--color2, #f7fcff)" d="M10 0h4v13.333h18v5.333h-18v13.333h-4v-13.333h-10v-5.333h10v-13.333z"></path>
</symbol>
<symbol id="icon-Ee-Estonia" viewBox="0 0 32 32">
<path fill="#f7fcff" style="fill: var(--color2, #f7fcff)" d="M0 0v32h32v-32h-32z"></path>
<path fill="#40a8ff" style="fill: var(--color5, #40a8ff)" d="M-1.333 0v10.667h34.667v-10.667h-34.667z"></path>
<path fill="#272727" style="fill: var(--color6, #272727)" d="M-1.333 10.667v10.667h34.667v-10.667h-34.667z"></path>
</symbol>
<symbol id="icon-Es-Spain" viewBox="0 0 32 32">
<path fill="#ffb400" style="fill: var(--color7, #ffb400)" d="M0 0v32h32v-32h-32z"></path>
<path fill="#c51918" style="fill: var(--color4, #c51918)" d="M0 0v8h32v-8h-32zM0 24v8h32v-8h-32z"></path>
<path fill="#f1f9ff" style="fill: var(--color8, #f1f9ff)" d="M5.008 13.697h1.12v7.765h-1.12v-7.765z"></path>
<path fill="#c88a02" style="fill: var(--color9, #c88a02)" d="M6.576 12.352h-2.016v0.747h0.336v0.597h1.344v-0.597h0.336v-0.747zM6.24 21.909h0.336v0.747h-2.016v-0.747h0.336v-0.597h1.344v0.597z"></path>
<path fill="#ad1619" style="fill: var(--color10, #ad1619)" d="M5.568 12.501c0.243 0 0.268-0.123 0.412-0.305 0.112-0.141 0.372-0.317 0.372-0.516 0-0.453-0.351-0.821-0.784-0.821s-0.784 0.368-0.784 0.821c0 0.221 0.179 0.369 0.314 0.516 0.143 0.156 0.248 0.305 0.47 0.305z"></path>
<path fill="#005bbf" style="fill: var(--color11, #005bbf)" d="M4.56 22.656h2.016v1.195c0 0-0.252-0.149-0.504-0.149s-0.504 0.149-0.504 0.149c0 0-0.252-0.149-0.504-0.149s-0.504 0.149-0.504 0.149v-1.195z"></path>
<path fill="#fff" style="fill: var(--color12, #fff)" d="M4.542 23.616l-0.044-0.143c0.181-0.108 0.363-0.163 0.546-0.163 0.118 0 0.18 0.023 0.284 0.084 0.074 0.051 0.157 0.076 0.24 0.072 0.083 0.004 0.166-0.021 0.24-0.072 0.088-0.059 0.186-0.088 0.284-0.084 0.183 0 0.365 0.053 0.547 0.163l-0.044 0.143c-0.158-0.097-0.329-0.148-0.503-0.149-0.083-0.004-0.166 0.021-0.24 0.072-0.088 0.059-0.186 0.088-0.284 0.084-0.098 0.004-0.196-0.025-0.284-0.084-0.074-0.051-0.157-0.076-0.24-0.072-0.167 0-0.334 0.049-0.502 0.149zM4.542 23.168l-0.044-0.143c0.181-0.108 0.363-0.161 0.546-0.161 0.118 0 0.18 0.021 0.284 0.084 0.074 0.050 0.157 0.075 0.24 0.071 0.083 0.004 0.166-0.020 0.24-0.071 0.088-0.059 0.186-0.088 0.284-0.084 0.183 0 0.365 0.053 0.547 0.16l-0.044 0.144c-0.158-0.097-0.329-0.148-0.503-0.149-0.083-0.004-0.166 0.021-0.24 0.072-0.088 0.059-0.186 0.088-0.284 0.084-0.098 0.004-0.196-0.025-0.284-0.084-0.074-0.051-0.157-0.076-0.24-0.072-0.167 0-0.334 0.049-0.502 0.149z"></path>
<path fill="#f1f9ff" style="fill: var(--color8, #f1f9ff)" d="M15.984 13.697h1.12v7.765h-1.12v-7.765z"></path>
<path fill="#c88a02" style="fill: var(--color9, #c88a02)" d="M17.552 12.352h-2.016v0.747h0.336v0.597h1.344v-0.597h0.336v-0.747zM17.216 21.909h0.336v0.747h-2.016v-0.747h0.336v-0.597h1.344v0.597z"></path>
<path fill="#ad1619" style="fill: var(--color10, #ad1619)" d="M16.544 12.501c0.244 0 0.268-0.123 0.412-0.305 0.112-0.141 0.372-0.317 0.372-0.516 0-0.453-0.351-0.821-0.784-0.821s-0.784 0.368-0.784 0.821c0 0.221 0.179 0.369 0.314 0.516 0.143 0.156 0.248 0.305 0.47 0.305z"></path>
<path fill="#005bbf" style="fill: var(--color11, #005bbf)" d="M15.536 22.656h2.016v1.195c0 0-0.252-0.149-0.504-0.149s-0.504 0.149-0.504 0.149c0 0-0.252-0.149-0.504-0.149s-0.504 0.149-0.504 0.149v-1.195z"></path>
<path fill="#fff" style="fill: var(--color12, #fff)" d="M15.518 23.616l-0.044-0.143c0.181-0.108 0.363-0.163 0.546-0.163 0.118 0 0.18 0.023 0.284 0.084 0.074 0.051 0.157 0.076 0.24 0.072 0.083 0.004 0.166-0.021 0.24-0.072 0.088-0.059 0.186-0.088 0.285-0.084 0.182 0 0.364 0.053 0.546 0.163l-0.044 0.143c-0.158-0.097-0.329-0.147-0.503-0.149-0.083-0.004-0.166 0.021-0.24 0.072-0.088 0.059-0.186 0.088-0.284 0.084-0.099 0.004-0.196-0.025-0.284-0.084-0.074-0.051-0.157-0.076-0.24-0.072-0.167 0-0.334 0.049-0.502 0.149zM15.518 23.168l-0.044-0.143c0.181-0.108 0.363-0.161 0.546-0.161 0.118 0 0.18 0.021 0.284 0.084 0.074 0.050 0.157 0.075 0.24 0.071 0.083 0.004 0.166-0.020 0.24-0.071 0.088-0.059 0.186-0.088 0.285-0.084 0.182 0 0.364 0.053 0.546 0.16l-0.044 0.144c-0.158-0.097-0.329-0.147-0.503-0.149-0.083-0.004-0.166 0.021-0.24 0.072-0.088 0.059-0.186 0.088-0.284 0.084-0.099 0.004-0.196-0.025-0.284-0.084-0.074-0.051-0.157-0.075-0.24-0.072-0.167 0-0.334 0.049-0.502 0.149z"></path>
<path fill="#ad1619" style="fill: var(--color10, #ad1619)" d="M16.706 19.968c0 0.315 0.113 0.613 0.315 0.939l0.687-0.756 0.066-0.027 0.037-0.383c0.067-0.707-0.16-1.097-0.625-1.38l-0.032-0.019c-0.064-0.037-0.204-0.12-0.25-0.149-0.090-0.056-0.175-0.122-0.256-0.199-0.081-0.078-0.165-0.15-0.252-0.216 0.577-0.123 0.889-0.213 1.128-0.352 0.573-0.329 0.646-1.093 0.096-1.597-0.75-0.689-2.758-0.751-3.64-0.144l0.412 1.061c0.432-0.297 1.415-0.353 2.104-0.2-0.229 0.054-0.459 0.103-0.69 0.147l-0.057 0.011c-0.275 0.057-0.463 0.129-0.602 0.256-0.065 0.054-0.12 0.127-0.162 0.212s-0.070 0.182-0.081 0.283c-0.012 0.101-0.007 0.204 0.014 0.302s0.057 0.189 0.107 0.267c0.085 0.145 0.197 0.253 0.366 0.384 0.055 0.041 0.113 0.084 0.192 0.14l0.040 0.029 0.152 0.107c0.162 0.116 0.268 0.2 0.347 0.277 0.123 0.12 0.25 0.217 0.395 0.309 0.077 0.049 0.3 0.179 0.299 0.179l0.013 0.008c-0.081 0.148-0.124 0.327-0.122 0.511zM4.988 20.907c0.202-0.327 0.315-0.624 0.315-0.939 0.002-0.184-0.041-0.363-0.123-0.511l0.014-0.008c-0.002 0 0.221-0.129 0.299-0.179 0.139-0.087 0.271-0.19 0.395-0.309 0.079-0.077 0.185-0.16 0.346-0.276l0.152-0.107 0.040-0.031c0.065-0.045 0.129-0.092 0.192-0.14 0.17-0.131 0.28-0.24 0.366-0.384 0.049-0.078 0.086-0.169 0.106-0.267s0.025-0.201 0.014-0.302c-0.012-0.101-0.039-0.197-0.081-0.283s-0.097-0.158-0.162-0.212c-0.139-0.127-0.327-0.199-0.602-0.256l-0.057-0.011-0.336-0.071c-0.118-0.025-0.236-0.050-0.354-0.077 0.689-0.152 1.672-0.096 2.105 0.201l0.41-1.061c-0.88-0.607-2.889-0.545-3.639 0.144-0.55 0.505-0.476 1.268 0.096 1.597 0.24 0.137 0.551 0.229 1.128 0.352-0.086 0.066-0.17 0.138-0.251 0.216s-0.166 0.144-0.256 0.2c-0.083 0.050-0.166 0.099-0.25 0.147l-0.032 0.020c-0.467 0.283-0.693 0.673-0.625 1.38l0.036 0.383 0.066 0.027 0.688 0.756z"></path>
<path fill="#f1f9ff" style="fill: var(--color8, #f1f9ff)" d="M5.923 16.534l0.33 0.091v0.657c-0.351 0.375-1.245 1.007-1.245 1.007v-1.755h0.915zM16.315 16.534l-0.331 0.091v0.657c0.352 0.375 1.246 1.007 1.246 1.007v-1.755h-0.915z"></path>
<path fill="#ad1619" style="fill: var(--color10, #ad1619)" d="M14.776 9.608l-1.13 1.513c-0.196 0.725-0.525 0.853-0.815 0.965l-0.127 0.052c-0.104 0.047-1.578 0.1-1.578 0.1v-0.004c-2.227 0.343-2.545-1.113-2.545-1.113l-1.13-1.513v-0.219c0 0 0.865-0.827 1.81-0.827 0 0 0.939-0.54 1.869-0.419v0.004c0.629-0.078 1.262 0.065 1.836 0.415 0.63 0 1.234 0.276 1.81 0.827v0.219zM11.126 8.215c-0.032 0.504-0.216 3.54 0 4.011v-4.011z"></path>
<path fill="#c88a02" style="fill: var(--color9, #c88a02)" d="M8.313 10.867l0.001-0.005-0.794-0.997 0.076-0.108 0.746 0.935 0.020-0.116c0.085 0.030 0.174 0.043 0.262 0.040v-0.203l0.166 0.12c0.080 0.059 0.197 0.075 0.35 0.040 0.113-0.024 0.19-0.199 0.214-0.569l0.050-0.751 0.169 0.72c0.076 0.324 0.192 0.468 0.357 0.468 0.162 0 0.227-0.080 0.234-0.279l0.020-0.564 0.192 0.504c0.069 0.181 0.164 0.264 0.3 0.264 0.193 0 0.322-0.215 0.322-0.552h0.228c0 0.337 0.129 0.552 0.322 0.552 0.135 0 0.23-0.081 0.3-0.264l0.191-0.504 0.020 0.564c0.008 0.2 0.072 0.279 0.234 0.279 0.165 0 0.282-0.144 0.358-0.469l0.168-0.719 0.050 0.751c0.025 0.371 0.101 0.547 0.214 0.571 0.153 0.033 0.27 0.017 0.35-0.041l0.166-0.12v0.203c0.089 0.003 0.177-0.010 0.263-0.040l0.036 0.217 0.825-1.036 0.077 0.109-1.027 1.288c-0.15 0.368-0.226 0.611-0.226 0.712 0 0.153-0.3 0.245-0.886 0.339-0.46 0.073-1.002 0.123-1.445 0.131h-0.112c-0.483-0.011-0.965-0.055-1.445-0.131-0.586-0.093-0.887-0.185-0.887-0.339-0.001-0.024-0.003-0.049-0.008-0.072-0.062-0.126-0.106-0.266-0.128-0.413-0.029-0.076-0.059-0.152-0.090-0.227l-0.227-0.285-0.006-0.001zM13.819 10.891c-0.184 0.043-0.316 0.039-0.386-0.037-0.126 0.043-0.258 0.047-0.386 0.013-0.158-0.033-0.267-0.173-0.333-0.404-0.079 0.141-0.195 0.237-0.325 0.267 0.717 0.133 1.219 0.325 1.219 0.325s-0.013 0.141-0.043 0.307c0.032-0.087 0.070-0.183 0.114-0.289l0.010-0.019 0.13-0.163zM12.051 10.673c-0.061-0.040-0.112-0.102-0.148-0.179-0.053 0.062-0.115 0.109-0.182 0.137 0.113 0.011 0.223 0.027 0.33 0.041zM11.326 10.602c-0.088-0.055-0.162-0.142-0.214-0.251-0.052 0.108-0.125 0.194-0.212 0.249l0.154-0.004h0.090c0.060 0 0.121 0.003 0.182 0.005zM8.622 11.042l-0.104-0.129c0.125 0.016 0.218 0 0.273-0.059 0.11 0.043 0.238 0.047 0.386 0.013 0.157-0.033 0.266-0.173 0.332-0.404 0.077 0.137 0.188 0.23 0.314 0.263-0.618 0.116-1.079 0.272-1.201 0.316zM10.498 10.629c-0.106 0.011-0.213 0.024-0.319 0.040 0.058-0.040 0.108-0.1 0.142-0.175 0.051 0.061 0.111 0.107 0.177 0.135zM13.253 11.869c0.078 0.049 0.141 0 0.19-0.093-0.004 0.023-0.006 0.047-0.007 0.071-0.009 0.008-0.020 0.015-0.030 0.020-0.054 0.027-0.11 0.049-0.167 0.064-0.196 0.055-0.393 0.098-0.592 0.127-0.474 0.076-1.039 0.127-1.487 0.131-0.497-0.009-0.994-0.052-1.488-0.131-0.199-0.029-0.396-0.072-0.592-0.127-0.050-0.014-0.099-0.032-0.147-0.053 0.004-0.002 0.008-0.005 0.012-0.008 0.245-0.152 1.862-0.296 2.154-0.32 0.291 0.024 1.91 0.168 2.154 0.32z"></path>
<path fill="#005bbf" style="fill: var(--color11, #005bbf)" d="M11.112 7.129c0.089 0 0.175-0.047 0.238-0.131s0.098-0.198 0.098-0.317c0-0.119-0.035-0.233-0.098-0.317s-0.148-0.131-0.238-0.131c-0.089 0-0.175 0.047-0.238 0.131s-0.098 0.198-0.098 0.317c0 0.119 0.035 0.233 0.098 0.317s0.148 0.131 0.238 0.131z"></path>
<path fill="#c88a02" style="fill: var(--color9, #c88a02)" d="M10.893 9.33c0.007 0.047 0.017 0.093 0.032 0.136-0.048-0.024-0.099-0.036-0.15-0.036-0.154 0-0.28 0.101-0.28 0.224 0 0.124 0.126 0.224 0.28 0.224s0.28-0.1 0.28-0.224c0 0.124 0.126 0.224 0.28 0.224s0.28-0.1 0.28-0.224c0-0.123-0.125-0.224-0.28-0.224-0.037 0-0.074 0.006-0.11 0.019 0.009-0.068 0.008-0.137-0.002-0.204-0.030-0.203-0.127-0.347-0.219-0.324-0.090 0.024-0.14 0.207-0.111 0.409zM9.245 9.614c-0.015-0.043-0.025-0.088-0.032-0.135-0.030-0.203 0.020-0.387 0.112-0.409 0.090-0.024 0.188 0.12 0.218 0.324 0.010 0.072 0.010 0.143 0.003 0.204 0.036-0.012 0.073-0.019 0.11-0.019 0.154 0 0.28 0.101 0.28 0.224 0 0.124-0.126 0.224-0.28 0.224s-0.28-0.1-0.28-0.224c0 0.124-0.126 0.224-0.28 0.224s-0.28-0.1-0.28-0.224c0-0.123 0.125-0.224 0.28-0.224 0.055 0 0.106 0.013 0.15 0.036l-0.001-0.001zM12.753 9.751c-0.013 0.123-0.147 0.199-0.3 0.169-0.153-0.028-0.267-0.151-0.254-0.273s0.147-0.199 0.3-0.169c0.051 0.008 0.101 0.029 0.146 0.061-0.011-0.045-0.017-0.092-0.019-0.14-0.008-0.205 0.060-0.377 0.154-0.384 0.092-0.007 0.174 0.155 0.182 0.36 0.003 0.069-0.003 0.138-0.018 0.204 0.037-0.005 0.074-0.004 0.11 0.003 0.153 0.028 0.267 0.151 0.254 0.273s-0.148 0.199-0.3 0.169c-0.154-0.028-0.268-0.151-0.255-0.273zM13.82 10.343c0.136 0.097 0.282 0.087 0.326-0.023l0.002-0.005c0.013 0.019 0.030 0.032 0.048 0.040 0.088 0.036 0.197-0.093 0.242-0.292 0.045-0.197 0.010-0.387-0.079-0.423-0.088-0.036-0.197 0.095-0.242 0.292-0.011 0.045-0.017 0.092-0.020 0.14-0.034-0.051-0.075-0.093-0.12-0.124-0.136-0.097-0.282-0.088-0.326 0.021-0.043 0.109 0.032 0.277 0.169 0.373zM8.324 10.388c-0.136 0.097-0.282 0.088-0.326-0.021l-0.002-0.007c-0.013 0.019-0.030 0.033-0.048 0.040-0.088 0.036-0.197-0.093-0.242-0.291s-0.010-0.387 0.079-0.423c0.088-0.036 0.197 0.093 0.242 0.291 0.011 0.045 0.018 0.092 0.020 0.14 0.034-0.051 0.075-0.093 0.12-0.124 0.136-0.097 0.282-0.087 0.326 0.023 0.043 0.109-0.032 0.275-0.169 0.372zM10.986 5.436h0.234v0.196h0.152v0.311h-0.152v0.623h0.152v0.311h-0.54v-0.311h0.154v-0.623h-0.155v-0.311h0.155v-0.196z"></path>
<path fill="#c88a02" style="fill: var(--color9, #c88a02)" d="M10.943 7.125h0.448v1.941h-0.448v-1.941z"></path>
<path fill="#fff" style="fill: var(--color12, #fff)" d="M9.14 7.451l-0.002 0.149c-0.993-0.024-1.563 0.169-1.707 0.555-0.15 0.399-0.122 0.883 0.088 1.457l-0.101 0.067c-0.224-0.615-0.254-1.147-0.087-1.591 0.171-0.457 0.773-0.661 1.809-0.637z"></path>
<path fill="#fff" style="fill: var(--color12, #fff)" d="M9.332 8.773l-0.057 0.129c-0.217-0.172-0.325-0.467-0.325-0.871 0-0.583 0.225-0.924 0.722-1.157 0.318-0.148 0.751-0.088 1.302 0.179l-0.038 0.14c-0.529-0.255-0.938-0.313-1.226-0.177-0.457 0.213-0.648 0.504-0.648 1.016 0 0.355 0.090 0.6 0.27 0.743v-0.001z"></path>
<path fill="#c88a02" style="fill: var(--color9, #c88a02)" d="M7.66 9.383l-0.212 0.1c-0.219-0.833-0.156-1.399 0.219-1.643 0.33-0.213 0.81-0.301 1.445-0.267l-0.009 0.297c-0.6-0.032-1.047 0.049-1.338 0.239-0.246 0.16-0.292 0.567-0.105 1.273z"></path>
<path fill="#c88a02" style="fill: var(--color9, #c88a02)" d="M10.129 7.252c-0.512 0-0.723 0.167-0.843 0.657-0.076 0.313-0.002 0.58 0.239 0.829l-0.138 0.236c-0.311-0.323-0.421-0.719-0.314-1.159 0.153-0.625 0.454-0.863 1.056-0.863 0.395 0 0.702 0.139 0.916 0.419l0.033 0.044v1.44h-0.224v-1.312c-0.167-0.193-0.407-0.293-0.725-0.293v0.001z"></path>
<path fill="#fff" style="fill: var(--color12, #fff)" d="M13.049 7.6l0.002 0.149c0.993-0.024 1.563 0.169 1.707 0.555 0.15 0.399 0.122 0.883-0.088 1.457l0.101 0.065c0.224-0.613 0.254-1.145 0.087-1.589-0.171-0.457-0.773-0.661-1.809-0.637z"></path>
<path fill="#fff" style="fill: var(--color12, #fff)" d="M12.698 8.805l0.058 0.129c0.216-0.173 0.324-0.467 0.324-0.872 0-0.581-0.225-0.923-0.722-1.156-0.318-0.149-0.751-0.088-1.302 0.179l0.038 0.14c0.529-0.256 0.938-0.313 1.227-0.179 0.456 0.215 0.647 0.505 0.647 1.016 0 0.356-0.090 0.6-0.27 0.743z"></path>
<path fill="#c88a02" style="fill: var(--color9, #c88a02)" d="M14.599 9.533l0.211 0.097c0.22-0.832 0.157-1.397-0.218-1.64-0.33-0.216-0.811-0.304-1.446-0.269l0.010 0.299c0.6-0.032 1.047 0.049 1.338 0.237 0.246 0.16 0.291 0.569 0.105 1.276z"></path>
<path fill="#c88a02" style="fill: var(--color9, #c88a02)" d="M12.117 7.275c0.512 0 0.722 0.167 0.842 0.657 0.077 0.313 0.003 0.58-0.238 0.829l0.137 0.236c0.312-0.323 0.422-0.719 0.314-1.159-0.153-0.625-0.453-0.863-1.055-0.863-0.395 0-0.702 0.139-0.916 0.42l-0.034 0.043v1.44h0.224v-1.312c0.168-0.193 0.408-0.293 0.726-0.293v0.001z"></path>
<path fill="#e1e5e8" style="fill: var(--color13, #e1e5e8)" opacity="0.3" d="M7.472 12.352h7.28v8.721c0 0-0.542 2.927-3.64 2.927-3.1 0-3.64-3.004-3.64-3.004v-8.644z"></path>
<path fill="#ffc034" style="fill: var(--color14, #ffc034)" d="M7.472 17.727h3.696v5.824h-3.696v-5.824z"></path>
<path fill="#ad1619" style="fill: var(--color10, #ad1619)" d="M7.92 18.026h0.448v5.525h-0.448v-5.525zM9.488 18.026h0.448v5.525h-0.448v-5.525zM8.704 18.026h0.448v5.525h-0.448v-5.525zM10.271 18.026h0.448v5.525h-0.448v-5.525zM7.472 12.202h3.696v5.675h-3.696v-5.675z"></path>
<path fill="#ad1619" style="fill: var(--color10, #ad1619)" d="M11.056 17.578h3.696v5.675h-3.696v-5.675z"></path>
<path fill="#f1f9ff" style="fill: var(--color8, #f1f9ff)" d="M11.056 12.352h3.92v5.525h-3.92v-5.525z"></path>
<path fill="#c88a02" style="fill: var(--color9, #c88a02)" d="M9.040 12.799h0.336v1.24h0.224v-0.62h0.336v0.619h0.336v0.775h-0.336v1.393h0.336v0.775h-2.016v-0.773h0.336v-1.395h-0.336v-0.773h0.224v-0.62h0.336v0.619h0.224v-1.239z"></path>
<path fill="#c88a02" style="fill: var(--color9, #c88a02)" d="M12.979 13.060l0.229-0.327 0.481 0.6-0.229 0.327-0.482-0.6h0.001z"></path>
<path fill="#ffc034" style="fill: var(--color14, #ffc034)" d="M14.36 21.519v-3.269h-2.8v3.241l0.004 0.027c0.142 0.804 0.624 1.212 1.396 1.212 0.77 0 1.253-0.397 1.395-1.184l0.005-0.027zM12.96 22.282c-0.62 0-0.957-0.277-1.064-0.843v-2.741h2.128v2.767c-0.108 0.547-0.445 0.817-1.064 0.817z"></path>
<path fill="#ffc034" style="fill: var(--color14, #ffc034)" d="M13.075 18.523h-0.233v1.483l-0.92-1.333-0.165 0.2 0.832 1.208h-0.754v0.448h0.773l-0.85 1.232 0.164 0.203 0.92-1.333v1.732h0.233v-1.576l0.813 1.177 0.165-0.203-0.85-1.232h0.948v-0.448h-0.93l0.832-1.207-0.165-0.203-0.813 1.179v-1.327z"></path>
<path fill="#f1f9ff" style="fill: var(--color8, #f1f9ff)" d="M13.482 23.257c0 0-2.372 0.249-2.372-1.791 0 0-0.023 1.791-2.5 1.791v1.611h4.872v-1.611z"></path>
<path fill="#005bbf" style="fill: var(--color11, #005bbf); stroke: var(--color10, #ad1619)" stroke="#ad1619" stroke-linejoin="miter" stroke-linecap="butt" stroke-miterlimit="4" stroke-width="1.167" d="M11.111 18.922c0.464 0 0.84-0.533 0.84-1.195 0-0.659-0.376-1.195-0.84-1.195-0.463 0-0.84 0.536-0.84 1.195 0 0.66 0.377 1.195 0.84 1.195z"></path>
</symbol>
<symbol id="icon-Fi-Finland" viewBox="0 0 32 32">
<path fill="#f7fcff" style="fill: var(--color2, #f7fcff)" d="M-1.333-1.333v34.667h33.333v-34.667h-33.333z"></path>
<path fill="#2e42a5" style="fill: var(--color15, #2e42a5); stroke: var(--color15, #2e42a5)" stroke="#2e42a5" stroke-linejoin="miter" stroke-linecap="butt" stroke-miterlimit="4" stroke-width="2" d="M11.076-2.333h-0.95v15.538h-10.281v6.667h10.281v17.795h3.801v-17.795h18.228v-6.667h-18.228v-15.538h-2.851z"></path>
</symbol>
<symbol id="icon-Fr-France" viewBox="0 0 32 32">
<path fill="#f50100" style="fill: var(--color16, #f50100)" d="M21.333 0h10.667v32h-10.667v-32z"></path>
<path fill="#2e42a5" style="fill: var(--color15, #2e42a5)" d="M0-1.333h12v33.333h-12v-33.333z"></path>
<path fill="#f7fcff" style="fill: var(--color2, #f7fcff)" d="M10.667 0h10.667v32h-10.667v-32z"></path>
</symbol>
<symbol id="icon-Hu-Hungary" viewBox="0 0 32 32">
<path fill="#f7fcff" style="fill: var(--color2, #f7fcff)" d="M0 0v32h32v-32h-32z"></path>
<path fill="#f14423" style="fill: var(--color17, #f14423)" d="M0 0v10.667h32v-10.667h-32z"></path>
<path fill="#5eaa22" style="fill: var(--color1, #5eaa22)" d="M0 21.333v10.667h32v-10.667h-32z"></path>
</symbol>
<symbol id="icon-It-Italy" viewBox="0 0 32 32">
<path fill="#c51918" style="fill: var(--color4, #c51918)" d="M21.333-5.333h13.333v37.333h-13.333v-37.333z"></path>
<path fill="#5eaa22" style="fill: var(--color1, #5eaa22)" d="M-2.667-1.333h14.667v33.333h-14.667v-33.333z"></path>
<path fill="#fff" style="fill: var(--color12, #fff)" d="M10.667-5.333h10.667v41.333h-10.667v-41.333z"></path>
</symbol>
<symbol id="icon-Lt-Lithuania" viewBox="0 0 32 32">
<path fill="#55ba07" style="fill: var(--color18, #55ba07)" d="M0 0v32h32v-32h-32z"></path>
<path fill="#feca00" style="fill: var(--color19, #feca00)" d="M0 0v10.667h32v-10.667h-32z"></path>
<path fill="#c51918" style="fill: var(--color4, #c51918)" d="M0 21.333v10.667h32v-10.667h-32z"></path>
</symbol>
<symbol id="icon-Lv-Latvia" viewBox="0 0 32 32">
<path fill="#c51918" style="fill: var(--color4, #c51918)" d="M0 18.667h33.333v16h-33.333v-16z"></path>
<path fill="#f7fcff" style="fill: var(--color2, #f7fcff)" d="M-2.667 10.667h37.333v8h-37.333v-8z"></path>
<path fill="#c51918" style="fill: var(--color4, #c51918)" d="M-2.667-1.333h36v14.667h-36v-14.667z"></path>
</symbol>
<symbol id="icon-Nl-Netherlands" viewBox="0 0 32 32">
<path fill="#f7fcff" style="fill: var(--color2, #f7fcff)" d="M0 0v32h32v-32h-32z"></path>
<path fill="#e31d1c" style="fill: var(--color20, #e31d1c)" d="M0 0v10.667h32v-10.667h-32z"></path>
<path fill="#3d58db" style="fill: var(--color21, #3d58db)" d="M0 21.333v10.667h32v-10.667h-32z"></path>
</symbol>
<symbol id="icon-Pl-Poland" viewBox="0 0 32 32">
<path fill="#f7fcff" style="fill: var(--color2, #f7fcff)" d="M0 0v32h32v-32h-32z"></path>
<path fill="#c51918" style="fill: var(--color4, #c51918)" d="M0 16v16h32v-16h-32z"></path>
</symbol>
<symbol id="icon-Ro-Romania" viewBox="0 0 32 32">
<path fill="#fbcd17" style="fill: var(--color22, #fbcd17)" d="M10.667-4h10.667v37.333h-10.667v-37.333z"></path>
<path fill="#e11c1b" style="fill: var(--color23, #e11c1b)" d="M21.333-4h13.333v36h-13.333v-36z"></path>
<path fill="#2e42a5" style="fill: var(--color15, #2e42a5)" d="M-1.333-5.333h12v37.333h-12v-37.333z"></path>
</symbol>
<symbol id="icon-Ru-Russian-Federation" viewBox="0 0 32 32">
<path fill="#3d58db" style="fill: var(--color21, #3d58db)" d="M0 0v32h32v-32h-32z"></path>
<path fill="#f7fcff" style="fill: var(--color2, #f7fcff)" d="M0 0v10.667h32v-10.667h-32z"></path>
<path fill="#c51918" style="fill: var(--color4, #c51918)" d="M0 21.333v10.667h32v-10.667h-32z"></path>
</symbol>
<symbol id="icon-Se-Sweden" viewBox="0 0 32 32">
<path fill="#3d58db" style="fill: var(--color21, #3d58db)" d="M0 0v32h32v-32h-32z"></path>
<path fill="#feca00" style="fill: var(--color19, #feca00)" d="M10 0h4v13.333h18v5.333h-18v13.333h-4v-13.333h-10v-5.333h10v-13.333z"></path>
</symbol>
<symbol id="icon-Si-Slovenia" viewBox="0 0 32 32">
<path fill="#2e42a5" style="fill: var(--color15, #2e42a5)" d="M0 0v32h32v-32h-32z"></path>
<path fill="#f7fcff" style="fill: var(--color2, #f7fcff)" d="M0 0v10.667h32v-10.667h-32z"></path>
<path fill="#c51918" style="fill: var(--color4, #c51918)" d="M0 21.333v10.667h32v-10.667h-32z"></path>
<path fill="#2e42a5" style="fill: var(--color15, #2e42a5)" d="M13.74 6.715c0 0-2.104-1.325-4.722-1.325s-4.723 1.325-4.723 1.325c0 0 0.234 5.327 0.605 8.148 0.158 1.205 0.917 2.963 1.605 3.793 0.784 0.948 2.513 2.072 2.513 2.072 0.5-0.46 1.435-0.667 2.63-2.071 1.196-1.405 1.493-3.795 1.493-3.795l0.6-8.147-0.001-0.001z"></path>
<path fill="#c51918" style="fill: var(--color4, #c51918)" d="M13.462 6.542l0.877 0.583-0.602 8.031c-0.21 1.7-0.738 3.040-1.582 4.031-0.42 0.499-0.884 0.926-1.382 1.273-0.27 0.188-1.4 0.964-1.39 0.959-0.114 0.072-0.2 0.136-0.27 0.2l-0.11 0.1-0.117-0.076c-1.17-0.76-2.263-1.784-2.806-2.44-0.741-0.896-1.522-2.731-1.689-4-0.249-1.897-0.472-4.512-0.629-8.077l0.787-0.548c0.156 3.537 0.344 6.357 0.588 8.22 0.145 1.104 0.865 2.795 1.523 3.589 0.485 0.587 1.268 1.237 2.344 1.947 0.071-0.055 0.143-0.106 0.217-0.152 0.002-0.001 0.734-0.436 0.988-0.613 0.464-0.323 0.897-0.721 1.288-1.185 0.748-0.88 1.216-2.064 1.405-3.569l0.56-8.271z"></path>
<path fill="#fff" style="fill: var(--color12, #fff)" d="M5.542 14.699c0 0 0.19 0.779 0.543 1.653 0.518 0.181 0.835 0.172 0.936 0.023 0.29-0.432 1.32-0.617 1.513-0.248 0.118 0.227 0.536 0.387 0.992 0.177l-0.051 0.012c0.080-0.039 0.265-0.137 0.38-0.197l0.092-0.049c0.172-0.085 0.298-0.131 0.427-0.144 0.166-0.016 0.332 0.029 0.48 0.128 0.359 0.228 0.803 0.335 1.106 0.267 0.37-0.86 0.633-1.621 0.633-1.621l-1.755-2.245-0.698 1.009-1.16-2.204-0.97 2.204-0.744-1.009-1.724 2.245zM6.557 17.352c-0.081-0.145-0.158-0.294-0.23-0.447 0.45 0.109 0.754 0.052 0.924-0.201 0.080-0.12 0.318-0.236 0.589-0.284 0.113-0.022 0.227-0.028 0.34-0.017 0.042 0.005 0.077 0.013 0.1 0.025 0.007 0.003 0.007 0.003 0-0.012l-0.002-0.003c0.207 0.395 0.769 0.605 1.299 0.349l-0.051 0.012c0.166-0.074 0.331-0.155 0.494-0.243l0.032-0.017c0.11-0.062 0.226-0.102 0.344-0.12 0.113-0.010 0.227 0.021 0.328 0.091 0.318 0.203 0.664 0.314 1.016 0.325-0.070 0.151-0.141 0.299-0.215 0.444-0.254 0.080-0.646-0.024-0.963-0.255-0.132-0.103-0.285-0.149-0.437-0.133-0.133 0.020-0.262 0.070-0.382 0.147l-0.083 0.051c-0.1 0.061-0.26 0.159-0.329 0.196l0.058-0.015c-0.397 0.204-0.744 0.053-0.843-0.165-0.177-0.389-1.103-0.199-1.364 0.248-0.070 0.119-0.28 0.139-0.625 0.024zM6.902 17.899l0.059 0.079c0.903 1.173 2.020 1.749 2.020 1.749s1.33-0.536 2.084-1.667c0.065-0.096 0.13-0.2 0.193-0.311-0.295-0.027-0.581-0.139-0.84-0.329-0.081-0.064-0.174-0.093-0.268-0.084-0.1 0.018-0.198 0.057-0.289 0.116l-0.023 0.013c-0.077 0.047-0.31 0.187-0.45 0.251l0.058-0.016c-0.467 0.26-0.963 0.055-1.157-0.333-0.025-0.012-0.051-0.019-0.078-0.023-0.096-0.011-0.192-0.005-0.287 0.016-0.23 0.047-0.43 0.16-0.497 0.273-0.111 0.191-0.286 0.275-0.525 0.265z"></path>
<path fill="#feca00" style="fill: var(--color19, #feca00)" d="M7.147 7.847h-0.703l0.545-0.68-0.545-0.72h0.703l0.297-0.699 0.298 0.699h0.702l-0.518 0.676 0.46 0.724h-0.644l-0.298 0.737-0.297-0.737zM10.46 7.847h-0.702l0.545-0.68-0.545-0.72h0.703l0.297-0.699 0.298 0.699h0.702l-0.518 0.676 0.46 0.724h-0.644l-0.298 0.737-0.297-0.737h-0.001zM8.6 10.089h-0.703l0.545-0.68-0.545-0.72h0.703l0.297-0.699 0.298 0.699h0.702l-0.518 0.676 0.46 0.724h-0.644l-0.298 0.737-0.297-0.737z"></path>
</symbol>
<symbol id="icon-Sj-Svalbard-And-Jan-Maye" viewBox="0 0 32 32">
<path fill="#e31d1c" style="fill: var(--color20, #e31d1c)" d="M0.795 0.32v31.36h30.41v-31.36h-30.41z"></path>
<path fill="#2e42a5" style="fill: var(--color15, #2e42a5); stroke: var(--color2, #f7fcff)" stroke="#f7fcff" stroke-linejoin="miter" stroke-linecap="butt" stroke-miterlimit="4" stroke-width="2" d="M9.5-0.987h-1.083v13.067h-10.833v7.84h10.833v13.067h6.5v-13.067h19.5v-7.84h-19.5v-13.067h-5.417z"></path>
</symbol>
<symbol id="icon-Sk-Slovakia" viewBox="0 0 32 32">
<path fill="#3d58db" style="fill: var(--color21, #3d58db)" d="M0 0v32h32v-32h-32z"></path>
<path fill="#f7fcff" style="fill: var(--color2, #f7fcff)" d="M0 0v10.667h32v-10.667h-32z"></path>
<path fill="#e31d1c" style="fill: var(--color20, #e31d1c)" d="M0 21.333v10.667h32v-10.667h-32z"></path>
<path fill="#e31d1c" style="fill: var(--color20, #e31d1c)" d="M15.604 8.040l0.497-0.071-0.047-0.596h-10.176l-0.032 0.623v0.005l-0.001 0.016-0.003 0.061-0.011 0.235c-0.057 1.194-0.105 2.389-0.143 3.584-0.064 2.053-0.107 4.456 0.005 5.579 0.218 2.189 1.219 7.107 5.087 9.333l0.202 0.116 0.2-0.12c3.675-2.189 4.903-6.6 5.187-9.327 0.143-1.375 0.070-3.781-0.030-5.781-0.062-1.218-0.139-2.435-0.232-3.649l-0.004-0.057-0.001-0.016v-0.004l-0.498 0.069z"></path>
<path fill="none" stroke="#fff" style="stroke: var(--color12, #fff)" stroke-linejoin="miter" stroke-linecap="butt" stroke-miterlimit="4" stroke-width="1" d="M5.846 7.996l0.032-0.623h10.176l0.047 0.596-0.497 0.071 0.498-0.069v0.004l0.001 0.016 0.004 0.057c0.093 1.215 0.17 2.431 0.232 3.649 0.1 2 0.173 4.407 0.030 5.781-0.284 2.727-1.512 7.137-5.187 9.327l-0.2 0.12-0.202-0.116c-3.868-2.227-4.869-7.144-5.087-9.333-0.112-1.123-0.069-3.525-0.005-5.579 0.038-1.195 0.086-2.39 0.143-3.584l0.011-0.235 0.003-0.061 0.001-0.016v-0.005zM5.846 7.996l0.499 0.044"></path>
<path fill="#f7fcff" style="fill: var(--color2, #f7fcff)" d="M10.257 8.786c0 0 0.207 0.42 0.299 1.061 0.093 0.64 0.108 1.765 0.108 1.765l-1.958-0.323v1.981l2.002-0.34-0.032 1.88c0 0-0.6 0.083-1.090 0-0.492-0.084-1.46-0.431-1.46-0.431v2.267c0 0 0.983-0.419 1.46-0.515 0.475-0.097 1.090 0 1.090 0v2.784h0.813v-2.784c0 0 0.888-0.104 1.419 0.008 0.53 0.112 1.033 0.507 1.033 0.507v-2.267c0 0-0.51 0.339-0.99 0.423s-1.462 0.007-1.462 0.007l0.032-1.88c0 0 0.665-0.091 1.039-0.024 0.373 0.068 0.84 0.365 0.84 0.365v-1.981c0 0-0.455 0.331-0.814 0.391s-1.109-0.068-1.109-0.068 0.014-1.16 0.090-1.725c0.078-0.564 0.296-1.101 0.296-1.101h-1.606z"></path>
<path fill="#2e42a5" style="fill: var(--color15, #2e42a5)" d="M6.897 21.659c0 0 0.44-1.257 1.155-1.496 0.715-0.24 1.465 0.747 1.465 0.747s0.458-1.993 1.574-1.993c1.116 0 1.508 1.995 1.508 1.995s0.476-0.748 1.16-0.748c0.686 0 1.32 1.496 1.32 1.496s-2.045 4.952-4.090 4.952c-2.046 0-4.092-4.952-4.092-4.952z"></path>
</symbol>
<symbol id="icon-Tr-Turkey" viewBox="0 0 32 32">
<path fill="#e31d1c" style="fill: var(--color20, #e31d1c)" d="M0 0v32h32v-32h-32z"></path>
<path fill="#f7fcff" style="fill: var(--color2, #f7fcff)" d="M16.025 20.708c-2.141-0.558-3.818-2.451-3.799-5.228 0.019-2.598 1.508-4.794 3.862-5.388 2.354-0.595 4.426 0.667 4.426 0.667-0.65-1.623-2.91-2.762-4.764-2.759-3.449 0.005-7.126 2.961-7.158 7.48-0.032 4.686 3.938 7.354 7.43 7.348 2.799-0.004 4.127-2.028 4.402-2.888 0 0-2.257 1.325-4.399 0.768zM20.903 14.594l-2.133 0.827 2.407 0.898-0.041 2.68 1.586-2.012 2.62 0.201-2.076-1.884 1.363-2.012-2.22 0.789-1.586-1.863 0.080 2.375v-0.001z"></path>
</symbol>
<symbol id="icon-Ua-Ukraine" viewBox="0 0 32 32">
<path fill="#3195f9" style="fill: var(--color24, #3195f9)" d="M0 0v32h32v-32h-32z"></path>
<path fill="#feca00" style="fill: var(--color19, #feca00)" d="M0 16v16h32v-16h-32z"></path>
</symbol>
    </defs>
</svg>
    