<svg aria-hidden="true" style="position: absolute; width: 0; height: 0; overflow: hidden;"
    version="1.1" xmlns="http://www.w3.org/2000/svg" xmlns:xlink="http://www.w3.org/1999/xlink">
    <defs>
        <symbol id="icon-logo" viewBox="0 0 122 32">
            <path
                d="M10.667 0.576h9.516c5.891 0 10.667 4.776 10.667 10.667v9.516c0 5.891-4.776 10.667-10.667 10.667h-9.516c-5.891 0-10.667-4.776-10.667-10.667v-9.516c0-5.891 4.776-10.667 10.667-10.667zM17.939 8.874c-1.389-1.389-3.64-1.389-5.028 0l-4.612 4.612c-1.389 1.389-1.389 3.64 0 5.028l4.612 4.612c1.389 1.389 3.64 1.389 5.028 0l4.612-4.612c1.389-1.389 1.389-3.64 0-5.028l-4.612-4.612z"></path>
            <path d="M49.886 21.997h6.306v3.59h-11.12v-19.093h4.814v15.503z"></path>
            <path
                d="M67.835 25.778c-1.858 0-3.566-0.417-5.124-1.251-1.539-0.834-2.768-1.995-3.688-3.481-0.901-1.505-1.351-3.191-1.351-5.059s0.45-3.545 1.351-5.032c0.92-1.487 2.149-2.647 3.688-3.481 1.558-0.834 3.266-1.251 5.124-1.251s3.557 0.417 5.095 1.251c1.558 0.834 2.778 1.995 3.66 3.481 0.901 1.487 1.351 3.164 1.351 5.032s-0.45 3.554-1.351 5.059c-0.901 1.487-2.121 2.647-3.66 3.481s-3.237 1.251-5.095 1.251zM67.835 21.535c1.577 0 2.834-0.508 3.772-1.523 0.957-1.015 1.436-2.357 1.436-4.025 0-1.686-0.479-3.028-1.436-4.025-0.938-1.015-2.196-1.523-3.772-1.523-1.595 0-2.872 0.499-3.829 1.496-0.938 0.997-1.408 2.348-1.408 4.053 0 1.686 0.469 3.037 1.408 4.053 0.957 0.997 2.233 1.496 3.829 1.496z"></path>
            <path
                d="M93.739 12.532c-0.357-0.635-0.873-1.115-1.548-1.441-0.657-0.344-1.436-0.517-2.337-0.517-1.558 0-2.806 0.499-3.744 1.496-0.938 0.979-1.408 2.294-1.408 3.944 0 1.759 0.488 3.137 1.464 4.134 0.995 0.979 2.355 1.469 4.082 1.469 1.183 0 2.178-0.29 2.984-0.87 0.826-0.58 1.427-1.414 1.802-2.502h-6.108v-3.427h10.472v4.325c-0.356 1.16-0.966 2.239-1.829 3.237-0.844 0.997-1.924 1.804-3.237 2.421s-2.796 0.925-4.448 0.925c-1.952 0-3.698-0.408-5.237-1.224-1.52-0.834-2.712-1.986-3.575-3.454-0.845-1.469-1.267-3.146-1.267-5.032s0.422-3.563 1.267-5.032c0.863-1.487 2.055-2.638 3.575-3.454 1.52-0.834 3.256-1.251 5.208-1.251 2.364 0 4.354 0.553 5.968 1.659 1.633 1.106 2.712 2.638 3.237 4.596h-5.32z"></path>
            <path
                d="M111.41 25.778c-1.858 0-3.566-0.417-5.124-1.251-1.539-0.834-2.768-1.995-3.688-3.481-0.9-1.505-1.351-3.191-1.351-5.059s0.451-3.545 1.351-5.032c0.92-1.487 2.149-2.647 3.688-3.481 1.557-0.834 3.266-1.251 5.124-1.251s3.556 0.417 5.096 1.251c1.557 0.834 2.777 1.995 3.66 3.481 0.9 1.487 1.351 3.164 1.351 5.032s-0.451 3.554-1.351 5.059c-0.901 1.487-2.121 2.647-3.66 3.481s-3.238 1.251-5.096 1.251zM111.41 21.535c1.577 0 2.834-0.508 3.772-1.523 0.957-1.015 1.436-2.357 1.436-4.025 0-1.686-0.478-3.028-1.436-4.025-0.939-1.015-2.196-1.523-3.772-1.523-1.596 0-2.871 0.499-3.828 1.496-0.939 0.997-1.408 2.348-1.408 4.053 0 1.686 0.469 3.037 1.408 4.053 0.957 0.997 2.233 1.496 3.828 1.496z"></path>
        </symbol>
        <symbol id="icon-road" viewBox="0 0 17 32">
            <path fill="#202124" style="fill: var(--color1, #202124)"
                d="M0.685 32h16.46c-0.442-0.689-0.852-1.36-1.228-2.015-0.697-1.217-1.272-2.379-1.701-3.489-0.398-1.030-0.671-2.021-0.813-2.962-0.259-1.719-0.057-3.32 0.403-4.713 0.432-1.307 1.071-2.459 1.662-3.524 1.030-1.855 1.767-3.565 1.227-4.894-0.56-1.372-2.092-2.401-3.555-3.402-1.323-0.905-2.48-1.684-2.602-2.49-0.098-0.655 0.68-1.235 1.419-1.724 0.677-0.448 1.256-0.93 1.094-1.329-0.203-0.496-1.007-0.837-1.81-1.221-1.277-0.079-2.567-0.158-3.87-0.238 0.693 0.381 1.412 0.756 1.432 1.215 0.018 0.458-0.781 0.875-1.673 1.321-0.976 0.488-2.007 0.989-2.18 1.722-0.171 0.729 0.732 1.597 1.779 2.51 1.16 1.012 2.393 2.132 2.449 3.455 0.029 0.697-0.277 1.465-0.801 2.229-0.609 0.886-1.482 1.788-2.452 2.794-1.063 1.101-2.207 2.285-3.215 3.663-1.052 1.438-1.931 3.095-2.37 4.96-0.232 0.985-0.347 2.041-0.34 3.152 0.008 1.177 0.153 2.428 0.413 3.746 0.079 0.404 0.171 0.816 0.272 1.234z"></path>
            <path fill="#fb7500" style="fill: var(--color2, #fb7500)"
                d="M1.763 30.697c0.098 0.426 0.209 0.861 0.331 1.303h0.408c-0.128-0.449-0.245-0.89-0.349-1.322-0.312-1.307-0.508-2.548-0.565-3.717-0.053-1.101 0.017-2.15 0.205-3.13 0.356-1.849 1.16-3.5 2.144-4.932 0.943-1.371 2.029-2.551 3.038-3.648 0.922-1.002 1.752-1.903 2.32-2.785 0.49-0.763 0.762-1.532 0.705-2.223-0.11-1.331-1.379-2.439-2.573-3.449-1.077-0.912-2.011-1.769-1.87-2.507 0.141-0.725 1.146-1.234 2.096-1.722 0.868-0.446 1.646-0.87 1.609-1.322-0.039-0.465-0.768-0.834-1.473-1.215-0.031-0.002-0.063-0.004-0.094-0.006 0.703 0.381 1.43 0.752 1.464 1.215 0.032 0.453-0.75 0.876-1.624 1.321-0.956 0.488-1.967 0.995-2.115 1.722-0.148 0.737 0.779 1.596 1.85 2.508 1.186 1.011 2.447 2.122 2.545 3.451 0.050 0.693-0.229 1.462-0.727 2.225-0.577 0.883-1.417 1.784-2.35 2.787-1.021 1.098-2.121 2.279-3.078 3.651-0.999 1.433-1.819 3.086-2.194 4.938-0.198 0.981-0.278 2.032-0.235 3.135 0.046 1.171 0.23 2.414 0.531 3.723z"></path>
            <path fill="#fb7500" style="fill: var(--color2, #fb7500)"
                d="M12.385 6.973c1.428 1.002 2.928 2.039 3.428 3.408 0.489 1.342-0.336 3.049-1.457 4.909-0.644 1.069-1.34 2.224-1.837 3.54-0.527 1.397-0.805 3.006-0.621 4.741 0.1 0.946 0.331 1.945 0.687 2.984 0.383 1.118 0.911 2.29 1.561 3.519 0.332 0.626 0.696 1.268 1.087 1.926h0.384c-0.401-0.664-0.774-1.312-1.115-1.944-0.659-1.226-1.197-2.396-1.589-3.513-0.364-1.037-0.603-2.035-0.712-2.98-0.198-1.732 0.064-3.339 0.577-4.735 0.484-1.314 1.168-2.469 1.802-3.537 1.103-1.859 1.91-3.567 1.411-4.906-0.513-1.37-2.019-2.406-3.454-3.407-1.298-0.905-2.433-1.691-2.526-2.491-0.075-0.662 0.728-1.235 1.49-1.724 0.697-0.447 1.298-0.925 1.148-1.328-0.185-0.494-0.982-0.837-1.774-1.22-0.031-0.002-0.061-0.004-0.092-0.006 0.79 0.383 1.585 0.726 1.766 1.22 0.147 0.405-0.46 0.881-1.162 1.328-0.767 0.489-1.577 1.059-1.508 1.723 0.085 0.799 1.216 1.587 2.507 2.492z"></path>
            <path fill="#fff" style="fill: var(--color3, #fff)"
                d="M10.513 0.772c0.197 0.141 0.358 0.29 0.439 0.452-0.034-0.002-0.067-0.004-0.101-0.006-0.079-0.161-0.239-0.311-0.436-0.452 0.033 0.002 0.065 0.004 0.098 0.006zM10.939 1.684c-0.093 0.167-0.269 0.322-0.485 0.475-0.037-0.002-0.074-0.004-0.11-0.006 0.218-0.153 0.396-0.308 0.49-0.475 0.035 0.002 0.070 0.004 0.105 0.006zM9.627 2.664c-0.31 0.178-0.623 0.356-0.912 0.556-0.041-0.002-0.081-0.004-0.122-0.006 0.291-0.2 0.606-0.379 0.918-0.556 0.039 0.002 0.077 0.004 0.116 0.006zM8.032 3.851c-0.151 0.218-0.222 0.476-0.178 0.727-0.045-0.002-0.091-0.004-0.136-0.006-0.042-0.252 0.032-0.509 0.185-0.727 0.043 0.002 0.086 0.004 0.129 0.006zM8.321 5.416c0.279 0.317 0.645 0.628 1.055 0.952-0.050-0.002-0.1-0.004-0.15-0.006-0.408-0.325-0.77-0.636-1.047-0.952 0.048 0.002 0.095 0.004 0.143 0.006zM10.761 7.438c0.477 0.377 0.937 0.766 1.332 1.192-0.056-0.002-0.111-0.003-0.167-0.005-0.392-0.426-0.849-0.815-1.323-1.192 0.053 0.002 0.105 0.004 0.158 0.006zM12.971 9.961c0.178 0.468 0.222 0.988 0.121 1.507-0.064-0.001-0.127-0.002-0.191-0.004 0.105-0.519 0.066-1.039-0.108-1.508 0.059 0.002 0.119 0.004 0.178 0.005zM12.35 13.212c-0.401 0.66-0.912 1.338-1.461 2.069-0.076-0-0.153-0.001-0.229-0.001 0.557-0.732 1.075-1.411 1.482-2.071 0.070 0.001 0.139 0.002 0.208 0.003zM9.118 17.793c-0.588 0.944-1.111 1.975-1.461 3.101-0.096 0.002-0.191 0.003-0.287 0.005 0.361-1.128 0.895-2.16 1.493-3.104 0.085-0.001 0.17-0.001 0.256-0.001zM7.199 24.773c0.090 1.514 0.48 3.162 1.122 4.918-0.122 0.006-0.244 0.012-0.367 0.017-0.627-1.759-1.003-3.41-1.079-4.926 0.108-0.003 0.216-0.006 0.324-0.010z"></path>
            <path fill="#fff" style="fill: var(--color3, #fff)"
                d="M9.367 0.123c0.135 0.069 0.271 0.138 0.405 0.209-0.032-0.002-0.063-0.004-0.094-0.006-0.134-0.071-0.269-0.14-0.404-0.209 0.031 0.002 0.062 0.004 0.093 0.006z"></path>
        </symbol>
        <symbol id="icon-chevron-right" viewBox="0 0 31 32">
            <path stroke-linejoin="round" stroke-linecap="round" stroke-miterlimit="4"
                stroke-width="1.28" d="M11.52 23.68l7.68-7.68-7.68-7.68"></path>
        </symbol>
        <symbol id="icon-burger" viewBox="0 0 32 32">
            <path stroke-linejoin="round" stroke-linecap="round" stroke-miterlimit="4"
                stroke-width="1.3333" d="M21.773 14.451h-12"></path>
            <path stroke-linejoin="round" stroke-linecap="round" stroke-miterlimit="4"
                stroke-width="1.3333" d="M21.773 11.784h-12"></path>
            <path stroke-linejoin="round" stroke-linecap="round" stroke-miterlimit="4"
                stroke-width="1.3333" d="M21.773 17.117h-12"></path>
            <path stroke-linejoin="round" stroke-linecap="round" stroke-miterlimit="4"
                stroke-width="1.3333" d="M21.773 19.784h-12"></path>
        </symbol>
        <symbol id="icon-close" viewBox="0 0 32 32">
            <path stroke-linejoin="round" stroke-linecap="round" stroke-miterlimit="4"
                stroke-width="2.56" d="M23.096 8.244l-15.36 15.36"></path>
            <path stroke-linejoin="round" stroke-linecap="round" stroke-miterlimit="4"
                stroke-width="2.56" d="M7.736 8.244l15.36 15.36"></path>
        </symbol>
        <symbol id="icon-uk" viewBox="0 0 32 32">
            <path fill="#eee" style="fill: var(--color1, #eee)"
                d="M0 0l0.5 1.375-0.5 1.438v1.438l2 3.375-2 3.375v2l2 3-2 3v2l2 3.375-2 3.375v4.25l1.375-0.5 1.438 0.5h1.438l3.375-2 3.375 2h2l3-2 3 2h2l3.375-2 3.375 2h4.25l-0.5-1.375 0.5-1.438v-1.437l-2-3.375 2-3.375v-2l-2-3 2-3v-2l-2-3.375 2-3.375v-4.25l-1.375 0.5-1.438-0.5h-1.437l-3.375 2-3.375-2h-2l-3 2-3-2h-2l-3.375 2-3.375-2h-4.25z"></path>
            <path fill="#0052b4" style="fill: var(--color2, #0052b4)"
                d="M21 0v6.75l6.75-6.75h-6.75zM32 4.25l-6.75 6.75h6.75v-6.75zM0 11h6.75l-6.75-6.75v6.75zM4.25 0l6.75 6.75v-6.75h-6.75zM11 32v-6.75l-6.75 6.75h6.75zM0 27.75l6.75-6.75h-6.75v6.75zM32 21h-6.75l6.75 6.75v-6.75zM27.75 32l-6.75-6.75v6.75h6.75z"></path>
            <path fill="#d80027" style="fill: var(--color3, #d80027)"
                d="M0 0v2.813l8.188 8.188h2.813l-11-11zM13 0v13h-13v6h13v13h6v-13h13v-6h-13v-13h-6zM29.187 0l-8.187 8.188v2.813l11-11h-2.813zM11 21l-11 11h2.813l8.188-8.187v-2.813zM21 21l11 11v-2.813l-8.187-8.187h-2.813z"></path>
        </symbol>
        <symbol id="icon-cze" viewBox="0 0 32 32">
            <path fill="#f7fcff" style="fill: var(--color1, #f7fcff)"
                d="M5.4 5.4v10.6h25.6c0-8.3-6.7-15-15-15-4.15 0-7.9 1.7-10.6 4.4z"></path>
            <path fill="#e31d1c" style="fill: var(--color2, #e31d1c)"
                d="M5.4 16v10.6c2.7 2.7 6.45 4.4 10.6 4.4 8.3 0 15-6.7 15-15h-25.6z"></path>
            <path fill="#3d58db" style="fill: var(--color3, #3d58db)"
                d="M5.4 5.4c-2.7 2.7-4.4 6.45-4.4 10.6s1.7 7.9 4.4 10.6l10.6-10.6-10.6-10.6z"></path>
        </symbol>
        <symbol id="icon-deu" viewBox="0 0 32 32">
            <path fill="#272727" style="fill: var(--color4, #272727)"
                d="M15.95 1c-6.55 0-12.1 4.2-14.15 10h28.3c-2.050-5.8-7.6-10-14.15-10z"></path>
            <path fill="#ffd01f" style="fill: var(--color5, #ffd01f)" opacity="0.992157"
                d="M15.95 31c6.55 0 12.1-4.15 14.15-10h-28.3c2.050 5.85 7.6 10 14.15 10z"></path>
            <path fill="#e31d1c" style="fill: var(--color2, #e31d1c)"
                d="M1.8 11c-0.55 1.55-0.85 3.25-0.85 5s0.3 3.45 0.85 5h28.3c0.55-1.55 0.85-3.25 0.85-5s-0.3-3.45-0.85-5h-28.3z"></path>
        </symbol>
        <symbol id="icon-low-emission-zone" viewBox="0 0 32 32">
            <path
                d="M16.538 4.488c-0.163-0.064-0.344-0.064-0.508 0-3.348 1.316-5.596 4.671-5.595 8.347 0 3.514 2.056 6.728 5.158 8.154l0.001 0.882c0 0.384 0.311 0.695 0.695 0.695s0.695-0.312 0.695-0.696l-0.001-0.882c3.101-1.427 5.156-4.641 5.154-8.154-0-3.678-2.25-7.032-5.6-8.346zM16.984 19.426l-0.001-1.416c0-0.008 0-0.016 0-0.024v-1.513l2.303-2.302c0.272-0.272 0.272-0.711 0-0.983s-0.711-0.272-0.983 0l-1.32 1.32v-0.405c0.001-0.016 0-0.033 0-0.049l-0.001-1.5 2.303-2.306c0.271-0.272 0.271-0.711-0.001-0.983s-0.711-0.271-0.983 0.001l-1.32 1.321v-1.605c0-0.384-0.312-0.695-0.695-0.695 0 0 0 0-0.001 0-0.383 0-0.694 0.312-0.694 0.696l0.001 3.413-1.315-1.317c-0.272-0.272-0.711-0.272-0.983-0.001s-0.273 0.711-0.001 0.983l2.3 2.303 0.001 1.954-1.319-1.318c-0.272-0.272-0.711-0.272-0.983 0s-0.272 0.711 0 0.983l2.302 2.302 0.001 1.142c-2.288-1.316-3.768-3.843-3.768-6.591-0.002-3.016 1.78-5.772 4.46-6.948 2.681 1.173 4.463 3.93 4.463 6.946 0.002 2.748-1.478 5.275-3.763 6.592z"></path>
            <path
                d="M16.285 1.231c-5.926 0-10.746 4.822-10.746 10.749 0 3.899 4.493 9.856 7.533 13.44-2.46 0.39-4.754 1.299-4.754 2.863 0 2.131 4.13 3.103 7.97 3.103 3.838 0 7.97-0.971 7.97-3.103 0-1.564-2.295-2.473-4.756-2.864 3.040-3.583 7.534-9.54 7.534-13.439-0-5.927-4.823-10.749-10.749-10.749zM22.865 28.281c0 0.512-2.238 1.712-6.579 1.712s-6.579-1.2-6.579-1.712c0-0.34 1.287-1.271 4.455-1.603 0.895 1.011 1.523 1.667 1.621 1.77 0.131 0.137 0.312 0.213 0.501 0.213s0.369-0.077 0.5-0.213c0.099-0.103 0.727-0.759 1.623-1.77 3.17 0.332 4.457 1.264 4.457 1.604zM16.285 26.95c-2.008-2.176-9.356-10.451-9.356-14.97 0-5.16 4.197-9.358 9.356-9.358s9.359 4.198 9.359 9.358c-0 4.519-7.351 12.794-9.359 14.97z"></path>
        </symbol>
        <symbol id="icon-payment-of-fines" viewBox="0 0 38 32">
            <path stroke-linejoin="round" stroke-linecap="round" stroke-miterlimit="10"
                stroke-width="1.3538"
                d="M23.657 9.246v18.022c0 2.096-1.698 3.794-3.794 3.794h-9.797c-2.096 0-3.794-1.698-3.794-3.794v-18.733"></path>
            <path stroke-linejoin="round" stroke-linecap="round" stroke-miterlimit="10"
                stroke-width="1.3538"
                d="M6.271 8.535v-5.338c0-0.621 0.25-1.184 0.656-1.592 0.043-0.044 0.088-0.086 0.135-0.124 0.394-0.339 0.907-0.544 1.468-0.544h12.867c0.561 0 1.074 0.204 1.469 0.544 0.047 0.039 0.092 0.081 0.135 0.124 0.406 0.408 0.656 0.971 0.656 1.592v6.049"></path>
            <path stroke-linejoin="round" stroke-linecap="round" stroke-miterlimit="10"
                stroke-width="1.3538"
                d="M22.866 1.481l-2.393 2.437c-0.483 0.492-1.144 0.769-1.834 0.769h-7.349c-0.691 0-1.352-0.277-1.835-0.769l-2.393-2.437c0.394-0.339 0.907-0.544 1.468-0.544h12.867c0.561 0 1.074 0.204 1.469 0.544z"></path>
            <path stroke-linejoin="round" stroke-linecap="round" stroke-miterlimit="10"
                stroke-width="1.3538"
                d="M27.738 18.796c0.716-0.716 1.158-1.704 1.158-2.796s-0.443-2.080-1.158-2.796"></path>
            <path stroke-linejoin="round" stroke-linecap="round" stroke-miterlimit="10"
                stroke-width="1.3538"
                d="M30.389 21.447c1.394-1.394 2.256-3.32 2.256-5.447s-0.862-4.053-2.256-5.447"></path>
            <path stroke-linejoin="round" stroke-linecap="round" stroke-miterlimit="10"
                stroke-width="1.3538"
                d="M33.041 24.099c2.073-2.073 3.355-4.936 3.355-8.099s-1.282-6.026-3.355-8.099"></path>
            <path stroke-linejoin="round" stroke-linecap="round" stroke-miterlimit="10"
                stroke-width="1.3538"
                d="M12.123 21.234c0.008 1.235 1.015 2.229 2.249 2.222l1.221-0.008c1.235-0.008 2.23-1.015 2.222-2.251l-0-0.013c-0.005-0.703-0.34-1.363-0.906-1.782l-3.89-2.878c-0.57-0.422-0.906-1.088-0.906-1.797 0-1.235 1.001-2.235 2.235-2.235h1.222c1.235 0 2.235 1.001 2.235 2.235"></path>
            <path stroke-linejoin="round" stroke-linecap="round" stroke-miterlimit="10"
                stroke-width="1.3538" d="M14.964 12.492v-2.358"></path>
            <path stroke-linejoin="round" stroke-linecap="round" stroke-miterlimit="10"
                stroke-width="1.3538" d="M14.964 25.814v-2.358"></path>
        </symbol>
        <symbol id="icon-toll-roads" viewBox="0 0 33 32">
            <path
                d="M31.58 20.027h-0.609v-4.249h0.272c0.345 0 0.625-0.28 0.625-0.625v-7.246c0-0.888-0.723-1.61-1.611-1.61h-7.747l-0.735-3.68c-0.195-0.977-1.061-1.687-2.057-1.687h-12.126c-0.997 0-1.862 0.709-2.057 1.687l-5.297 26.504c-0.030 0.15-0.039 0.301-0.027 0.45 0.026 0.327 0.151 0.641 0.364 0.901s0.497 0.444 0.813 0.534c0.143 0.041 0.293 0.062 0.447 0.062h23.642c0.49 0 0.949-0.217 1.259-0.596s0.434-0.871 0.337-1.351l-2.667-13.344h5.316v4.249h-0.843c-0.345 0-0.625 0.28-0.625 0.625s0.28 0.625 0.625 0.625h2.701c0.345 0 0.625-0.28 0.625-0.625s-0.28-0.625-0.625-0.625zM3.374 29.819h-1.54c-0.156 0-0.25-0.087-0.292-0.138s-0.109-0.161-0.078-0.314l5.297-26.504c0.079-0.395 0.429-0.682 0.832-0.682h0.67l-4.889 27.638zM13.204 29.819l0.083-8.584c0.003-0.345-0.274-0.628-0.619-0.631-0.002-0-0.004-0-0.006-0-0.342 0-0.621 0.276-0.625 0.619l-0.083 8.596h-7.311l4.889-27.638h2.69l-0.125 12.966c-0.003 0.345 0.274 0.628 0.619 0.631 0.002 0 0.004 0 0.006 0 0.342 0 0.621-0.276 0.625-0.619l0.125-12.979h0.543l0.267 27.638h-1.078zM19.718 2.18c0.403 0 0.753 0.287 0.832 0.682l0.687 3.435h-1.46l-0.728-4.116h0.67zM18.727 7.547l5.165 0v6.981h-5.261c-0.329 0-0.597-0.268-0.597-0.597v-5.787c0-0.329 0.268-0.597 0.597-0.597h0.096zM15.532 29.819l-0.267-27.638h2.513l0.729 4.121c-0.961 0.064-1.723 0.866-1.723 1.843v5.787c0 1.019 0.829 1.847 1.847 1.847h1.552l2.483 14.041h-7.135zM25.847 29.366c0.031 0.153-0.036 0.262-0.078 0.314s-0.137 0.138-0.293 0.138h-1.54l-2.483-14.041h1.678l2.716 13.588zM30.618 14.528h-5.476v-6.981h5.115c0.199 0 0.361 0.162 0.361 0.361v6.621z"></path>
            <path
                d="M22.294 9.237l-1.059-0.595c-0.19-0.107-0.422-0.107-0.613 0l-1.059 0.595c-0.301 0.169-0.408 0.55-0.239 0.851s0.55 0.408 0.851 0.239l0.127-0.072v2.527c0 0.345 0.28 0.625 0.625 0.625 0.035 0 0.069-0.004 0.103-0.009 0.296-0.049 0.522-0.306 0.522-0.616v-2.527l0.127 0.072c0.097 0.054 0.202 0.080 0.306 0.080 0.023 0 0.047-0.002 0.070-0.005 0.193-0.022 0.373-0.132 0.476-0.314 0.169-0.301 0.062-0.682-0.238-0.851z"></path>
            <path
                d="M30.182 9.619l-0.595-1.059c-0.169-0.301-0.55-0.408-0.851-0.239s-0.408 0.55-0.239 0.851l0.072 0.127h-0.81c-0.708 0-1.284 0.576-1.284 1.284v2.515c0 0.345 0.28 0.625 0.625 0.625s0.625-0.28 0.625-0.625v-2.515c0-0.019 0.015-0.034 0.034-0.034h0.81l-0.072 0.127c-0.169 0.301-0.062 0.682 0.239 0.851 0.097 0.054 0.202 0.080 0.306 0.080 0.219 0 0.431-0.115 0.545-0.319l0.595-1.059c0.107-0.19 0.107-0.422 0-0.613z"></path>
            <path
                d="M13.304 18.127c-0.008-0.039-0.020-0.079-0.036-0.117s-0.035-0.074-0.057-0.108c-0.023-0.034-0.049-0.066-0.078-0.095s-0.061-0.055-0.095-0.078c-0.034-0.023-0.071-0.042-0.108-0.057s-0.077-0.027-0.117-0.036c-0.081-0.016-0.164-0.016-0.244 0-0.040 0.008-0.079 0.020-0.117 0.036s-0.074 0.035-0.108 0.057c-0.034 0.023-0.066 0.049-0.095 0.078s-0.055 0.061-0.077 0.095c-0.023 0.034-0.042 0.070-0.058 0.108s-0.027 0.077-0.036 0.117c-0.008 0.041-0.012 0.082-0.012 0.123 0 0.164 0.067 0.326 0.183 0.442 0.029 0.029 0.061 0.055 0.095 0.077s0.071 0.042 0.108 0.057 0.077 0.027 0.117 0.036c0.041 0.008 0.081 0.012 0.123 0.012s0.081-0.004 0.122-0.012c0.040-0.008 0.079-0.020 0.117-0.036s0.074-0.035 0.108-0.057c0.034-0.023 0.066-0.049 0.095-0.077 0.116-0.116 0.183-0.277 0.183-0.442 0-0.041-0.004-0.082-0.012-0.123z"></path>
        </symbol>
        <symbol id="icon-arrow" viewBox="0 0 32 32">
            <path stroke-linejoin="round" stroke-linecap="round" stroke-miterlimit="4"
                stroke-width="1.6"
                d="M14.667 21.333l5.333-5.333M20 16l-5.333-5.333M20 16h-16M6.021 22.667c2.153 3.216 5.819 5.333 9.979 5.333 6.627 0 12-5.373 12-12s-5.373-12-12-12c-4.161 0-7.827 2.117-9.979 5.333"></path>
        </symbol>
        <symbol id="icon-directly" viewBox="0 0 33 32">
            <path
                d="M15.375 29h-3c-0.133 0-0.26 0.053-0.354 0.146s-0.146 0.221-0.146 0.354 0.053 0.26 0.146 0.354c0.094 0.094 0.221 0.146 0.354 0.146h3c0.133 0 0.26-0.053 0.354-0.146s0.146-0.221 0.146-0.354-0.053-0.26-0.146-0.354c-0.094-0.094-0.221-0.146-0.354-0.146z"></path>
            <path
                d="M25.613 13.011h-0.23c-0.235-0-0.468 0.047-0.685 0.138s-0.413 0.225-0.577 0.394c-0.207-0.212-0.464-0.368-0.747-0.455v-11.588c-0-0.398-0.159-0.779-0.44-1.060s-0.663-0.439-1.060-0.44h-16c-0.398 0-0.779 0.159-1.060 0.44s-0.439 0.663-0.44 1.060v29c0 0.398 0.159 0.779 0.44 1.060s0.662 0.439 1.060 0.44h16c0.398-0 0.779-0.159 1.060-0.44s0.439-0.663 0.44-1.060v-2.25h0.747c0.861 0 1.688-0.341 2.298-0.95s0.954-1.434 0.956-2.295v-10.236c-0.001-0.467-0.187-0.914-0.517-1.243s-0.778-0.515-1.244-0.515zM16.735 1l-0.25 1h-5.219l-0.25-1h5.719zM22.375 30.5c-0 0.133-0.053 0.26-0.147 0.353s-0.221 0.146-0.353 0.147h-16c-0.133-0-0.26-0.053-0.353-0.147s-0.146-0.221-0.147-0.353v-29c0-0.133 0.053-0.26 0.147-0.353s0.221-0.146 0.353-0.147h4.11l0.311 1.243c0.054 0.216 0.179 0.409 0.354 0.546s0.393 0.212 0.616 0.211h5.219c0.223 0 0.44-0.074 0.616-0.211s0.301-0.329 0.355-0.546l0.311-1.243h4.11c0.133 0 0.26 0.053 0.353 0.147s0.146 0.221 0.147 0.353v11.532c-0.383 0.055-0.736 0.235-1.006 0.511-0.164-0.169-0.36-0.303-0.577-0.394s-0.45-0.138-0.685-0.138h-0.23c-0.264-0-0.524 0.059-0.762 0.173v-0.814c0.622-0.431 1.088-1.053 1.327-1.771s0.238-1.495-0.002-2.213c-0.24-0.718-0.706-1.339-1.329-1.769s-1.369-0.647-2.125-0.617c-0.757 0.030-1.483 0.304-2.070 0.782s-1.004 1.133-1.187 1.868c-0.183 0.735-0.123 1.509 0.172 2.207s0.807 1.281 1.462 1.662v7.209l-2.818-2.867c-0.331-0.329-0.779-0.514-1.245-0.514s-0.914 0.184-1.245 0.513l-0.162 0.162c-0.329 0.327-0.514 0.772-0.517 1.236s0.179 0.91 0.505 1.24l7.060 7.936c0.219 0.256 0.492 0.462 0.798 0.603s0.64 0.214 0.977 0.213h3.659v2.25zM17.354 7.75h-0.23c-0.467 0-0.914 0.185-1.244 0.515s-0.516 0.777-0.517 1.243v1.759c-0.342-0.338-0.58-0.768-0.684-1.238s-0.071-0.96 0.096-1.411c0.167-0.451 0.46-0.845 0.845-1.134s0.845-0.461 1.325-0.495c0.48-0.034 0.96 0.071 1.382 0.302s0.768 0.58 0.997 1.003c0.229 0.423 0.331 0.903 0.294 1.383s-0.211 0.939-0.502 1.322v-1.493c-0.001-0.467-0.187-0.914-0.517-1.243s-0.778-0.515-1.244-0.515zM26.375 25.005c-0.002 0.596-0.24 1.168-0.662 1.588s-0.994 0.657-1.591 0.657h-5.406c-0.195-0-0.387-0.043-0.563-0.124s-0.333-0.201-0.459-0.349l-7.076-7.954c-0.007-0.008-0.014-0.015-0.021-0.022-0.071-0.070-0.127-0.154-0.165-0.245s-0.058-0.191-0.058-0.29c0.006-0.119 0.036-0.236 0.089-0.342s0.127-0.201 0.219-0.278c0.078-0.088 0.173-0.16 0.279-0.211s0.221-0.081 0.339-0.088c0.099-0 0.197 0.019 0.289 0.056s0.175 0.093 0.245 0.163l3.671 3.735c0.070 0.071 0.159 0.119 0.256 0.139s0.198 0.011 0.29-0.027c0.092-0.038 0.171-0.102 0.226-0.184s0.085-0.179 0.085-0.279v-11.44c0.001-0.201 0.081-0.394 0.224-0.537s0.336-0.222 0.538-0.222h0.23c0.201-0 0.395 0.079 0.538 0.222s0.223 0.335 0.224 0.537l-0.011 11.213c0 0.133 0.053 0.26 0.146 0.354s0.221 0.146 0.354 0.146c0.133 0 0.26-0.053 0.354-0.146s0.146-0.221 0.146-0.354c0 0 0.011-5.917 0.011-5.952 0.001-0.201 0.081-0.394 0.224-0.537s0.336-0.222 0.538-0.222h0.23c0.2-0 0.392 0.079 0.535 0.219s0.224 0.332 0.226 0.532c-0.003 0.021-0.006 5.959-0.006 5.959 0 0.133 0.053 0.26 0.146 0.354s0.221 0.146 0.354 0.146c0.133 0 0.26-0.053 0.354-0.146s0.146-0.221 0.146-0.354c0 0 0.007-5.927 0.007-5.952 0.001-0.201 0.081-0.394 0.224-0.537s0.336-0.222 0.538-0.222h0.23c0.201-0 0.395 0.079 0.538 0.222s0.223 0.335 0.224 0.537c0 0.004 0.001 0.007 0.001 0.011-0.001 0.015-0.005 5.941-0.005 5.941 0 0.133 0.053 0.26 0.146 0.354s0.221 0.146 0.354 0.146 0.26-0.053 0.354-0.146c0.094-0.094 0.146-0.221 0.146-0.354 0 0-0.001-5.902-0.001-5.906 0.001-0.015 0.005-0.030 0.005-0.046 0.001-0.201 0.081-0.394 0.224-0.537s0.336-0.222 0.538-0.222h0.23c0.201-0 0.395 0.079 0.538 0.222s0.224 0.335 0.224 0.537v10.236z"></path>
        </symbol>
        <symbol id="icon-fast" viewBox="0 0 33 32">
            <path stroke-linejoin="round" stroke-linecap="round" stroke-miterlimit="10"
                stroke-width="1"
                d="M26.54 28.799c-4.652 3.029-10.943 2.503-15.025-1.579-4.686-4.686-4.686-12.284 0-16.971s12.284-4.686 16.971 0c4.078 4.078 4.607 10.361 1.588 15.012"></path>
            <path stroke-linejoin="round" stroke-linecap="round" stroke-miterlimit="10"
                stroke-width="1"
                d="M20 27.805c-5.010 0-9.071-4.061-9.071-9.071s4.061-9.071 9.071-9.071 9.071 4.061 9.071 9.071c0 5.010-4.061 9.071-9.071 9.071z"></path>
            <path stroke-linejoin="round" stroke-linecap="round" stroke-miterlimit="10"
                stroke-width="1"
                d="M17.741 4.268h4.5c0.828 0 1.5-0.672 1.5-1.5s-0.672-1.5-1.5-1.5h-4.5c-0.829 0-1.5 0.672-1.5 1.5s0.671 1.5 1.5 1.5z"></path>
            <path stroke-linejoin="round" stroke-linecap="round" stroke-miterlimit="10"
                stroke-width="1" d="M22.128 6.734v-2.467h-4.276v2.467"></path>
            <path stroke-linejoin="round" stroke-linecap="round" stroke-miterlimit="10"
                stroke-width="1" d="M21.185 17.549l3.211-3.211"></path>
            <path stroke-linejoin="round" stroke-linecap="round" stroke-miterlimit="10"
                stroke-width="1"
                d="M18.683 18.734c0 0.727 0.59 1.317 1.317 1.317s1.317-0.59 1.317-1.317c0-0.727-0.59-1.317-1.317-1.317s-1.317 0.59-1.317 1.317z"></path>
            <path stroke-linejoin="round" stroke-linecap="round" stroke-miterlimit="10"
                stroke-width="1" d="M26.683 18.742h-0.579"></path>
            <path stroke-linejoin="round" stroke-linecap="round" stroke-miterlimit="10"
                stroke-width="1" d="M13.318 18.727h0.579"></path>
            <path stroke-linejoin="round" stroke-linecap="round" stroke-miterlimit="10"
                stroke-width="1" d="M20.008 12.052v0.579"></path>
            <path stroke-linejoin="round" stroke-linecap="round" stroke-miterlimit="10"
                stroke-width="1" d="M19.992 25.416v-0.579"></path>
            <path stroke-linejoin="round" stroke-linecap="round" stroke-miterlimit="10"
                stroke-width="1" d="M19.012 17.746l-1.697-1.697"></path>
            <path stroke-linejoin="round" stroke-linecap="round" stroke-miterlimit="10"
                stroke-width="1" d="M20.931 17.803l3.373-3.373"></path>
            <path stroke-linejoin="round" stroke-linecap="round" stroke-miterlimit="10"
                stroke-width="1" d="M8.548 22.592h-4.798"></path>
            <path stroke-linejoin="round" stroke-linecap="round" stroke-miterlimit="10"
                stroke-width="1" d="M8 18.939h-3.375"></path>
            <path stroke-linejoin="round" stroke-linecap="round" stroke-miterlimit="10"
                stroke-width="1" d="M8.381 15.287h-7.131"></path>
            <path stroke-linejoin="round" stroke-linecap="round" stroke-miterlimit="10"
                stroke-width="1" d="M9.964 11.635h-4.454"></path>
        </symbol>
        <symbol id="icon-payments" viewBox="0 0 33 32">
            <path
                d="M29.375 1c-0.53 0-1.039 0.211-1.414 0.586s-0.586 0.884-0.586 1.414v0.090c-0.226-0.082-0.468-0.109-0.707-0.077s-0.465 0.121-0.662 0.259-0.357 0.323-0.466 0.536c-0.11 0.214-0.166 0.451-0.165 0.691v0.59c-0.226-0.082-0.468-0.109-0.707-0.077s-0.465 0.121-0.662 0.259-0.357 0.323-0.466 0.536c-0.11 0.214-0.166 0.451-0.165 0.691v9.77l-1.165 2.015c-0.219 0.38-0.335 0.811-0.335 1.25v6.555c-0.291 0.104-0.544 0.295-0.723 0.547s-0.276 0.554-0.277 0.863v2c0.001 0.398 0.16 0.778 0.441 1.059s0.662 0.439 1.059 0.441h6c0.398-0.001 0.778-0.16 1.059-0.441s0.439-0.662 0.441-1.059v-2c-0.002-0.309-0.098-0.611-0.277-0.863s-0.431-0.443-0.723-0.547v-1.935c0.001-0.357 0.129-0.703 0.36-0.975l1.54-1.795c0.387-0.453 0.599-1.029 0.6-1.625v-16.76c0-0.53-0.211-1.039-0.586-1.414s-0.884-0.586-1.414-0.586zM26.375 4.5c0-0.133 0.053-0.26 0.146-0.354s0.221-0.146 0.354-0.146 0.26 0.053 0.354 0.146c0.094 0.094 0.146 0.221 0.146 0.354v7.68c-0.319-0.077-0.652-0.073-0.97 0.010-0.010 0-0.020 0.010-0.030 0.010v-7.7zM24.375 6.5c0-0.133 0.053-0.26 0.146-0.354s0.221-0.146 0.354-0.146 0.26 0.053 0.354 0.146c0.094 0.094 0.146 0.221 0.146 0.354v6.365c-0.067 0.081-0.129 0.166-0.185 0.255l-0.815 1.415v-8.035zM28.875 29.5c0 0.133-0.053 0.26-0.146 0.354s-0.221 0.146-0.354 0.146h-6c-0.133 0-0.26-0.053-0.354-0.146s-0.146-0.221-0.146-0.354v-2c0-0.133 0.053-0.26 0.146-0.354s0.221-0.146 0.354-0.146h6c0.133 0 0.26 0.053 0.354 0.146s0.146 0.221 0.146 0.354v2zM30.375 19.76c-0 0.357-0.128 0.703-0.36 0.975l-1.54 1.795c-0.386 0.454-0.598 1.029-0.6 1.625v1.845h-5v-6.465c0.001-0.263 0.070-0.521 0.2-0.75l2.985-5.165c0.133-0.229 0.351-0.396 0.607-0.465s0.529-0.033 0.758 0.1c0.229 0.133 0.395 0.352 0.464 0.607s0.033 0.528-0.099 0.758l-3.25 5.63 0.865 0.5 3.25-5.63c0.212-0.371 0.3-0.801 0.25-1.226s-0.236-0.822-0.529-1.134v-9.76c0-0.265 0.105-0.52 0.293-0.707s0.442-0.293 0.707-0.293c0.265 0 0.52 0.105 0.707 0.293s0.293 0.442 0.293 0.707v16.76z"></path>
            <path d="M27.875 28h-5v1h5v-1z"></path>
            <path
                d="M10.875 26.090v-6.555c-0-0.439-0.116-0.87-0.335-1.25l-1.165-2.015v-9.77c0.002-0.24-0.055-0.478-0.165-0.691s-0.27-0.398-0.466-0.536c-0.197-0.139-0.424-0.227-0.662-0.259s-0.481-0.005-0.707 0.077v-0.59c0.002-0.24-0.055-0.478-0.165-0.691s-0.27-0.398-0.466-0.536c-0.197-0.139-0.424-0.227-0.662-0.259s-0.481-0.005-0.707 0.077v-0.090c0-0.53-0.211-1.039-0.586-1.414s-0.884-0.586-1.414-0.586c-0.53 0-1.039 0.211-1.414 0.586s-0.586 0.884-0.586 1.414v16.76c0.001 0.596 0.213 1.172 0.6 1.625l1.54 1.795c0.231 0.272 0.359 0.618 0.36 0.975v1.935c-0.291 0.104-0.544 0.295-0.723 0.547s-0.276 0.554-0.277 0.863v2c0.001 0.398 0.16 0.778 0.441 1.059s0.662 0.439 1.059 0.441h6c0.398-0.001 0.778-0.16 1.059-0.441s0.44-0.662 0.441-1.059v-2c-0.002-0.309-0.098-0.611-0.277-0.863s-0.431-0.443-0.723-0.547zM7.375 6.5c0-0.133 0.053-0.26 0.146-0.354s0.221-0.146 0.354-0.146c0.133 0 0.26 0.053 0.354 0.146s0.146 0.221 0.146 0.354v8.035l-0.815-1.415c-0.056-0.089-0.118-0.174-0.185-0.255v-6.365zM5.375 4.5c0-0.133 0.053-0.26 0.146-0.354s0.221-0.146 0.354-0.146c0.133 0 0.26 0.053 0.354 0.146s0.146 0.221 0.146 0.354v7.7c-0.010 0-0.020-0.010-0.030-0.010-0.317-0.086-0.651-0.089-0.97-0.010v-7.68zM2.735 20.735c-0.232-0.272-0.36-0.618-0.36-0.975v-16.76c0-0.265 0.105-0.52 0.293-0.707s0.442-0.293 0.707-0.293c0.265 0 0.52 0.105 0.707 0.293s0.293 0.442 0.293 0.707v9.76c-0.293 0.311-0.479 0.709-0.53 1.134s0.037 0.855 0.25 1.226l3.25 5.63 0.865-0.5-3.25-5.63c-0.132-0.23-0.167-0.502-0.099-0.758s0.235-0.474 0.464-0.607c0.229-0.132 0.502-0.168 0.758-0.1s0.474 0.236 0.607 0.465l2.985 5.165c0.13 0.229 0.199 0.487 0.2 0.75v6.465h-5v-1.845c-0.002-0.596-0.214-1.171-0.6-1.625l-1.54-1.795zM10.875 29.5c0 0.133-0.053 0.26-0.146 0.354s-0.221 0.146-0.354 0.146h-6c-0.133 0-0.26-0.053-0.354-0.146s-0.146-0.221-0.146-0.354v-2c0-0.133 0.053-0.26 0.146-0.354s0.221-0.146 0.354-0.146h6c0.133 0 0.26 0.053 0.354 0.146s0.146 0.221 0.146 0.354v2z"></path>
            <path d="M9.875 28h-5v1h5v-1z"></path>
            <path
                d="M22.045 3.030l-5.5-2c-0.11-0.040-0.23-0.040-0.34 0l-5.5 2c-0.097 0.034-0.181 0.098-0.24 0.182s-0.091 0.185-0.090 0.288v4.345c0.001 0.905 0.19 1.801 0.556 2.629s0.9 1.571 1.569 2.181l3.54 3.215c0.091 0.084 0.211 0.13 0.335 0.13s0.244-0.046 0.335-0.13l3.54-3.215c0.669-0.61 1.203-1.353 1.569-2.181s0.555-1.723 0.556-2.629v-4.345c0-0.103-0.031-0.203-0.090-0.288s-0.143-0.148-0.24-0.182zM21.375 7.845c-0 0.766-0.161 1.524-0.471 2.225s-0.763 1.329-1.329 1.845l-3.2 2.91-3.2-2.91c-0.566-0.516-1.019-1.144-1.329-1.845s-0.47-1.459-0.471-2.225v-3.995l5-1.82 5 1.82v3.995z"></path>
            <path
                d="M14.229 7.646l-0.707 0.707 2 2c0.094 0.094 0.221 0.146 0.354 0.146s0.26-0.053 0.354-0.146l3.5-3.5-0.707-0.707-3.146 3.146-1.646-1.646z"></path>
        </symbol>
        <symbol id="icon-use" viewBox="0 0 33 32">
            <path stroke-linejoin="round" stroke-linecap="round" stroke-miterlimit="10"
                stroke-width="1"
                d="M30.848 13.149v-9.729c0-1.544-1.251-2.795-2.795-2.795h-22.356c-1.544 0-2.795 1.251-2.795 2.795v25.16c0 1.544 1.251 2.795 2.795 2.795h22.356c1.544 0 2.795-1.251 2.795-2.795v-9.95"></path>
            <path stroke-linejoin="round" stroke-linecap="round" stroke-miterlimit="10"
                stroke-width="1"
                d="M18.628 14.522c0-0.68-0.551-1.231-1.231-1.231h0.787c0.68 0 1.231-0.55 1.231-1.231-0.070-0.75-0.48-1.16-1.231-1.231h0.806c0.68 0 1.231-0.551 1.231-1.231 0-0.694-0.502-1.231-1.231-1.231l4.304 0c0.68 0 1.231-0.55 1.231-1.23 0-0.659-0.506-1.231-1.231-1.231l-6.513 0.001c1.36 0 2.462-1.102 2.462-2.461h-4.944c-0.989 0-1.959 0.277-2.799 0.8l-2.748 1.937-5.851-0.333v7.384l5.874-0.361 2.834 2.039c0.854 0.549 1.848 0.841 2.863 0.841h2.925c0.679 0 1.231-0.551 1.231-1.23z"></path>
            <path stroke-linejoin="round" stroke-linecap="round" stroke-miterlimit="10"
                stroke-width="1"
                d="M23.218 3.293c2.108 0 3.817 1.709 3.817 3.817s-1.709 3.817-3.817 3.817"></path>
            <path stroke-linejoin="round" stroke-linecap="round" stroke-miterlimit="10"
                stroke-width="1" d="M18.191 5.906h-2.020"></path>
            <path stroke-linejoin="round" stroke-linecap="round" stroke-miterlimit="10"
                stroke-width="1" d="M6.014 24.777h2.133"></path>
            <path stroke-linejoin="round" stroke-linecap="round" stroke-miterlimit="10"
                stroke-width="1" d="M7.077 24.899v3.74"></path>
            <path stroke-linejoin="round" stroke-linecap="round" stroke-miterlimit="10"
                stroke-width="1"
                d="M13.11 25.292c1.575 2.067-0.762 4.404-2.83 2.83-1.575-2.067 0.762-4.404 2.83-2.83z"></path>
            <path stroke-linejoin="round" stroke-linecap="round" stroke-miterlimit="10"
                stroke-width="1"
                d="M13.183 22.336l1.45-3.809c0.030-0.072 0.132-0.073 0.162-0l1.437 3.809"></path>
            <path stroke-linejoin="round" stroke-linecap="round" stroke-miterlimit="10"
                stroke-width="1" d="M13.635 21.387h2.152"></path>
            <path stroke-linejoin="round" stroke-linecap="round" stroke-miterlimit="10"
                stroke-width="1" d="M11.189 18.451h-1.613v3.828h1.613"></path>
            <path stroke-linejoin="round" stroke-linecap="round" stroke-miterlimit="10"
                stroke-width="1" d="M11.070 20.365h-1.494"></path>
            <path stroke-linejoin="round" stroke-linecap="round" stroke-miterlimit="10"
                stroke-width="1"
                d="M20.292 18.87c0 0-0.693-0.583-1.511-0.336-0.751 0.226-0.856 1.091-0.313 1.446 0 0 0.533 0.238 1.124 0.456 1.423 0.525 0.81 1.901-0.335 1.901-0.573 0-1.055-0.251-1.346-0.573"></path>
            <path stroke-linejoin="round" stroke-linecap="round" stroke-miterlimit="10"
                stroke-width="1" d="M22.031 18.434l1.234 1.89 1.224-1.88"></path>
            <path stroke-linejoin="round" stroke-linecap="round" stroke-miterlimit="10"
                stroke-width="1" d="M23.26 22.297l0.005-1.973"></path>
            <path stroke-linejoin="round" stroke-linecap="round" stroke-miterlimit="10"
                stroke-width="1"
                d="M23.95 25.153c0 0-0.693-0.583-1.511-0.336-0.751 0.226-0.856 1.091-0.313 1.445 0 0 0.533 0.238 1.124 0.456 1.423 0.525 0.81 1.901-0.335 1.901-0.573 0-1.055-0.251-1.346-0.573"></path>
            <path stroke-linejoin="round" stroke-linecap="round" stroke-miterlimit="10"
                stroke-width="1"
                d="M16.886 24.776v2.63c0 0.448 0.222 0.749 0.6 0.991 0.184 0.117 0.416 0.201 0.704 0.201 0.25 0 0.459-0.058 0.631-0.145 0.44-0.221 0.72-0.558 0.72-1.050v-2.627"></path>
            <path stroke-linejoin="round" stroke-linecap="round" stroke-miterlimit="10"
                stroke-width="1" d="M27.798 24.756h-1.628v3.863h1.628"></path>
            <path stroke-linejoin="round" stroke-linecap="round" stroke-miterlimit="10"
                stroke-width="1" d="M27.678 26.688h-1.508"></path>
        </symbol>
    </defs>
</svg>
    