<svg aria-hidden="true" style="position: absolute; width: 0; height: 0; overflow: hidden;"
    version="1.1" xmlns="http://www.w3.org/2000/svg" xmlns:xlink="http://www.w3.org/1999/xlink">
    <defs>
        <symbol id="icon-low-emission-zone" viewBox="0 0 32 32">
            <path
                d="M16.538 4.488c-0.163-0.064-0.344-0.064-0.508 0-3.348 1.316-5.596 4.671-5.595 8.347 0 3.514 2.056 6.728 5.158 8.154l0.001 0.882c0 0.384 0.311 0.695 0.695 0.695s0.695-0.312 0.695-0.696l-0.001-0.882c3.101-1.427 5.156-4.641 5.154-8.154-0-3.678-2.25-7.032-5.6-8.346zM16.984 19.426l-0.001-1.416c0-0.008 0-0.016 0-0.024v-1.513l2.303-2.302c0.272-0.272 0.272-0.711 0-0.983s-0.711-0.272-0.983 0l-1.32 1.32v-0.405c0.001-0.016 0-0.033 0-0.049l-0.001-1.5 2.303-2.306c0.271-0.272 0.271-0.711-0.001-0.983s-0.711-0.271-0.983 0.001l-1.32 1.321v-1.605c0-0.384-0.312-0.695-0.695-0.695 0 0 0 0-0.001 0-0.383 0-0.694 0.312-0.694 0.696l0.001 3.413-1.315-1.317c-0.272-0.272-0.711-0.272-0.983-0.001s-0.273 0.711-0.001 0.983l2.3 2.303 0.001 1.954-1.319-1.318c-0.272-0.272-0.711-0.272-0.983 0s-0.272 0.711 0 0.983l2.302 2.302 0.001 1.142c-2.288-1.316-3.768-3.843-3.768-6.591-0.002-3.016 1.78-5.772 4.46-6.948 2.681 1.173 4.463 3.93 4.463 6.946 0.002 2.748-1.478 5.275-3.763 6.592z"></path>
            <path
                d="M16.285 1.231c-5.926 0-10.746 4.822-10.746 10.749 0 3.899 4.493 9.856 7.533 13.44-2.46 0.39-4.754 1.299-4.754 2.863 0 2.131 4.13 3.103 7.97 3.103 3.838 0 7.97-0.971 7.97-3.103 0-1.564-2.295-2.473-4.756-2.864 3.040-3.583 7.534-9.54 7.534-13.439-0-5.927-4.823-10.749-10.749-10.749zM22.865 28.281c0 0.512-2.238 1.712-6.579 1.712s-6.579-1.2-6.579-1.712c0-0.34 1.287-1.271 4.455-1.603 0.895 1.011 1.523 1.667 1.621 1.77 0.131 0.137 0.312 0.213 0.501 0.213s0.369-0.077 0.5-0.213c0.099-0.103 0.727-0.759 1.623-1.77 3.17 0.332 4.457 1.264 4.457 1.604zM16.285 26.95c-2.008-2.176-9.356-10.451-9.356-14.97 0-5.16 4.197-9.358 9.356-9.358s9.359 4.198 9.359 9.358c-0 4.519-7.351 12.794-9.359 14.97z"></path>
        </symbol>
        <symbol id="icon-payment-of-fines" viewBox="0 0 38 32">
            <path stroke-linejoin="round" stroke-linecap="round" stroke-miterlimit="10"
                stroke-width="1.3538"
                d="M23.657 9.246v18.022c0 2.096-1.698 3.794-3.794 3.794h-9.797c-2.096 0-3.794-1.698-3.794-3.794v-18.733"></path>
            <path stroke-linejoin="round" stroke-linecap="round" stroke-miterlimit="10"
                stroke-width="1.3538"
                d="M6.271 8.535v-5.338c0-0.621 0.25-1.184 0.656-1.592 0.043-0.044 0.088-0.086 0.135-0.124 0.394-0.339 0.907-0.544 1.468-0.544h12.867c0.561 0 1.074 0.204 1.469 0.544 0.047 0.039 0.092 0.081 0.135 0.124 0.406 0.408 0.656 0.971 0.656 1.592v6.049"></path>
            <path stroke-linejoin="round" stroke-linecap="round" stroke-miterlimit="10"
                stroke-width="1.3538"
                d="M22.866 1.481l-2.393 2.437c-0.483 0.492-1.144 0.769-1.834 0.769h-7.349c-0.691 0-1.352-0.277-1.835-0.769l-2.393-2.437c0.394-0.339 0.907-0.544 1.468-0.544h12.867c0.561 0 1.074 0.204 1.469 0.544z"></path>
            <path stroke-linejoin="round" stroke-linecap="round" stroke-miterlimit="10"
                stroke-width="1.3538"
                d="M27.738 18.796c0.716-0.716 1.158-1.704 1.158-2.796s-0.443-2.080-1.158-2.796"></path>
            <path stroke-linejoin="round" stroke-linecap="round" stroke-miterlimit="10"
                stroke-width="1.3538"
                d="M30.389 21.447c1.394-1.394 2.256-3.32 2.256-5.447s-0.862-4.053-2.256-5.447"></path>
            <path stroke-linejoin="round" stroke-linecap="round" stroke-miterlimit="10"
                stroke-width="1.3538"
                d="M33.041 24.099c2.073-2.073 3.355-4.936 3.355-8.099s-1.282-6.026-3.355-8.099"></path>
            <path stroke-linejoin="round" stroke-linecap="round" stroke-miterlimit="10"
                stroke-width="1.3538"
                d="M12.123 21.234c0.008 1.235 1.015 2.229 2.249 2.222l1.221-0.008c1.235-0.008 2.23-1.015 2.222-2.251l-0-0.013c-0.005-0.703-0.34-1.363-0.906-1.782l-3.89-2.878c-0.57-0.422-0.906-1.088-0.906-1.797 0-1.235 1.001-2.235 2.235-2.235h1.222c1.235 0 2.235 1.001 2.235 2.235"></path>
            <path stroke-linejoin="round" stroke-linecap="round" stroke-miterlimit="10"
                stroke-width="1.3538" d="M14.964 12.492v-2.358"></path>
            <path stroke-linejoin="round" stroke-linecap="round" stroke-miterlimit="10"
                stroke-width="1.3538" d="M14.964 25.814v-2.358"></path>
        </symbol>
        <symbol id="icon-toll-roads" viewBox="0 0 33 32">
            <path
                d="M31.58 20.027h-0.609v-4.249h0.272c0.345 0 0.625-0.28 0.625-0.625v-7.246c0-0.888-0.723-1.61-1.611-1.61h-7.747l-0.735-3.68c-0.195-0.977-1.061-1.687-2.057-1.687h-12.126c-0.997 0-1.862 0.709-2.057 1.687l-5.297 26.504c-0.030 0.15-0.039 0.301-0.027 0.45 0.026 0.327 0.151 0.641 0.364 0.901s0.497 0.444 0.813 0.534c0.143 0.041 0.293 0.062 0.447 0.062h23.642c0.49 0 0.949-0.217 1.259-0.596s0.434-0.871 0.337-1.351l-2.667-13.344h5.316v4.249h-0.843c-0.345 0-0.625 0.28-0.625 0.625s0.28 0.625 0.625 0.625h2.701c0.345 0 0.625-0.28 0.625-0.625s-0.28-0.625-0.625-0.625zM3.374 29.819h-1.54c-0.156 0-0.25-0.087-0.292-0.138s-0.109-0.161-0.078-0.314l5.297-26.504c0.079-0.395 0.429-0.682 0.832-0.682h0.67l-4.889 27.638zM13.204 29.819l0.083-8.584c0.003-0.345-0.274-0.628-0.619-0.631-0.002-0-0.004-0-0.006-0-0.342 0-0.621 0.276-0.625 0.619l-0.083 8.596h-7.311l4.889-27.638h2.69l-0.125 12.966c-0.003 0.345 0.274 0.628 0.619 0.631 0.002 0 0.004 0 0.006 0 0.342 0 0.621-0.276 0.625-0.619l0.125-12.979h0.543l0.267 27.638h-1.078zM19.718 2.18c0.403 0 0.753 0.287 0.832 0.682l0.687 3.435h-1.46l-0.728-4.116h0.67zM18.727 7.547l5.165 0v6.981h-5.261c-0.329 0-0.597-0.268-0.597-0.597v-5.787c0-0.329 0.268-0.597 0.597-0.597h0.096zM15.532 29.819l-0.267-27.638h2.513l0.729 4.121c-0.961 0.064-1.723 0.866-1.723 1.843v5.787c0 1.019 0.829 1.847 1.847 1.847h1.552l2.483 14.041h-7.135zM25.847 29.366c0.031 0.153-0.036 0.262-0.078 0.314s-0.137 0.138-0.293 0.138h-1.54l-2.483-14.041h1.678l2.716 13.588zM30.618 14.528h-5.476v-6.981h5.115c0.199 0 0.361 0.162 0.361 0.361v6.621z"></path>
            <path
                d="M22.294 9.237l-1.059-0.595c-0.19-0.107-0.422-0.107-0.613 0l-1.059 0.595c-0.301 0.169-0.408 0.55-0.239 0.851s0.55 0.408 0.851 0.239l0.127-0.072v2.527c0 0.345 0.28 0.625 0.625 0.625 0.035 0 0.069-0.004 0.103-0.009 0.296-0.049 0.522-0.306 0.522-0.616v-2.527l0.127 0.072c0.097 0.054 0.202 0.080 0.306 0.080 0.023 0 0.047-0.002 0.070-0.005 0.193-0.022 0.373-0.132 0.476-0.314 0.169-0.301 0.062-0.682-0.238-0.851z"></path>
            <path
                d="M30.182 9.619l-0.595-1.059c-0.169-0.301-0.55-0.408-0.851-0.239s-0.408 0.55-0.239 0.851l0.072 0.127h-0.81c-0.708 0-1.284 0.576-1.284 1.284v2.515c0 0.345 0.28 0.625 0.625 0.625s0.625-0.28 0.625-0.625v-2.515c0-0.019 0.015-0.034 0.034-0.034h0.81l-0.072 0.127c-0.169 0.301-0.062 0.682 0.239 0.851 0.097 0.054 0.202 0.080 0.306 0.080 0.219 0 0.431-0.115 0.545-0.319l0.595-1.059c0.107-0.19 0.107-0.422 0-0.613z"></path>
            <path
                d="M13.304 18.127c-0.008-0.039-0.020-0.079-0.036-0.117s-0.035-0.074-0.057-0.108c-0.023-0.034-0.049-0.066-0.078-0.095s-0.061-0.055-0.095-0.078c-0.034-0.023-0.071-0.042-0.108-0.057s-0.077-0.027-0.117-0.036c-0.081-0.016-0.164-0.016-0.244 0-0.040 0.008-0.079 0.020-0.117 0.036s-0.074 0.035-0.108 0.057c-0.034 0.023-0.066 0.049-0.095 0.078s-0.055 0.061-0.077 0.095c-0.023 0.034-0.042 0.070-0.058 0.108s-0.027 0.077-0.036 0.117c-0.008 0.041-0.012 0.082-0.012 0.123 0 0.164 0.067 0.326 0.183 0.442 0.029 0.029 0.061 0.055 0.095 0.077s0.071 0.042 0.108 0.057 0.077 0.027 0.117 0.036c0.041 0.008 0.081 0.012 0.123 0.012s0.081-0.004 0.122-0.012c0.040-0.008 0.079-0.020 0.117-0.036s0.074-0.035 0.108-0.057c0.034-0.023 0.066-0.049 0.095-0.077 0.116-0.116 0.183-0.277 0.183-0.442 0-0.041-0.004-0.082-0.012-0.123z"></path>
        </symbol>
    </defs>
</svg>
    