<svg width="25" height="24" viewBox="0 0 25 24" fill="none" xmlns="http://www.w3.org/2000/svg">
<g clip-path="url(#clip0_285_1631)">
<path d="M12.5037 7.95732C10.2323 7.95732 8.40011 9.76084 8.40011 11.9968C8.40011 14.2327 10.2323 16.0362 12.5037 16.0362C14.7751 16.0362 16.6073 14.2327 16.6073 11.9968C16.6073 9.76084 14.7751 7.95732 12.5037 7.95732ZM12.5037 14.6229C11.0358 14.6229 9.83583 13.4452 9.83583 11.9968C9.83583 10.5483 11.0323 9.3706 12.5037 9.3706C13.9751 9.3706 15.1715 10.5483 15.1715 11.9968C15.1715 13.4452 13.9715 14.6229 12.5037 14.6229ZM17.7322 7.79209C17.7322 8.31592 17.3037 8.73428 16.7751 8.73428C16.243 8.73428 15.818 8.3124 15.818 7.79209C15.818 7.27178 16.2465 6.8499 16.7751 6.8499C17.3037 6.8499 17.7322 7.27178 17.7322 7.79209ZM20.4501 8.74834C20.3894 7.48623 20.0965 6.36826 19.1572 5.44717C18.2215 4.52607 17.0858 4.23779 15.8037 4.17451C14.4823 4.10068 10.5215 4.10068 9.20011 4.17451C7.92154 4.23428 6.78583 4.52256 5.84654 5.44365C4.90726 6.36474 4.61797 7.48271 4.55369 8.74482C4.47869 10.0456 4.47869 13.9444 4.55369 15.2452C4.6144 16.5073 4.90726 17.6253 5.84654 18.5464C6.78583 19.4675 7.91797 19.7558 9.20011 19.819C10.5215 19.8929 14.4823 19.8929 15.8037 19.819C17.0858 19.7593 18.2215 19.471 19.1572 18.5464C20.093 17.6253 20.3858 16.5073 20.4501 15.2452C20.5251 13.9444 20.5251 10.0491 20.4501 8.74834ZM18.743 16.6409C18.4644 17.33 17.9251 17.8608 17.2215 18.1386C16.168 18.5499 13.668 18.455 12.5037 18.455C11.3394 18.455 8.83583 18.5464 7.78583 18.1386C7.08583 17.8643 6.54654 17.3335 6.2644 16.6409C5.84654 15.6038 5.94297 13.1429 5.94297 11.9968C5.94297 10.8507 5.85011 8.38623 6.2644 7.35263C6.54297 6.66357 7.08226 6.13271 7.78583 5.85498C8.8394 5.44365 11.3394 5.53857 12.5037 5.53857C13.668 5.53857 16.1715 5.44717 17.2215 5.85498C17.9215 6.1292 18.4608 6.66006 18.743 7.35263C19.1608 8.38974 19.0644 10.8507 19.0644 11.9968C19.0644 13.1429 19.1608 15.6073 18.743 16.6409Z" fill="white"/>
</g>
<defs>
<clipPath id="clip0_285_1631">
<rect width="16" height="18" fill="white" transform="translate(4.50012 3)"/>
</clipPath>
</defs>
</svg>
