<svg width="53" height="52" viewBox="0 0 53 52" fill="none" xmlns="http://www.w3.org/2000/svg">
<g clip-path="url(#clip0_778_1098)">
<mask id="mask0_778_1098" style="mask-type:luminance" maskUnits="userSpaceOnUse" x="0" y="0" width="53" height="52">
<path d="M0.666626 3.8147e-06H52.6666V52H0.666626V3.8147e-06Z" fill="white"/>
</mask>
<g mask="url(#mask0_778_1098)">
<path d="M15.0679 11.4353C14.4518 10.9247 13.9147 10.352 13.4943 9.68266C11.2689 6.13996 14.4203 3.06445 18.4149 0.748111H25.9676C24.9837 1.72768 21.58 3.50493 22.0673 5.6417C22.2964 6.64595 23.3002 7.27421 23.9644 7.68361C24.4878 8.00617 25.0379 8.27298 25.5985 8.5084C30.8237 10.7005 36.4365 11.6461 41.3871 14.6706C44.7684 16.7364 47.2899 19.9102 48.0781 24.1167C48.6238 27.0289 48.3265 30.0356 47.7401 32.9534L47.7291 33.0078" stroke="#202124" stroke-miterlimit="10" stroke-linecap="round" stroke-linejoin="round"/>
<path d="M46.9205 36.4486C46.7106 37.2582 46.4953 38.0543 46.2878 38.8325C45.1497 43.1034 43.7756 47.1329 42.4405 51.252H6.88879C7.39305 50.4618 16.5772 39.3134 20.488 34.8815C22.5413 32.5546 27.5111 26.4658 26.678 21.7425C25.8192 16.873 21.7047 15.2507 18.1301 13.3693L18.0683 13.3367" stroke="#202124" stroke-miterlimit="10" stroke-linecap="round" stroke-linejoin="round"/>
<path d="M25.9672 0.747974H29.891C29.891 0.747974 26.1797 3.57111 25.5647 4.27219C24.81 5.13253 25.9778 5.66593 26.6984 5.93761C28.1159 6.47214 29.5561 6.88215 30.9874 7.37015C32.5401 7.8996 34.086 8.44895 35.6229 9.02217C36.5816 9.37977 37.5384 9.74265 38.4851 10.1309C40.349 10.8955 42.1809 11.7595 43.8734 12.8584C45.0822 13.6432 46.2259 14.5534 47.2441 15.6139C49.4964 17.9597 50.8695 21.0334 51.4887 24.3385C52.4123 29.2695 51.5738 34.3905 50.3528 38.973C49.2148 43.2438 48.1165 47.1326 46.7809 51.252L42.4405 51.2516" stroke="#202124" stroke-miterlimit="10" stroke-linecap="round" stroke-linejoin="round"/>
<path d="M18.4149 0.747974H14.2452C11.1002 2.57163 8.80714 6.4892 10.5426 10.3956C11.9648 13.5963 15.4209 15.0211 18.0545 16.7395C19.515 17.6924 21.1048 18.5311 22.3166 19.8637C23.4308 21.0891 23.7329 22.6529 23.2839 24.2858C22.157 28.3841 18.5167 31.8789 15.8673 34.8814C11.9565 39.3134 1.95604 50.4618 1.45178 51.252H7.49932" stroke="#202124" stroke-miterlimit="10" stroke-linecap="round" stroke-linejoin="round"/>
<path d="M19.2672 3.92617C17.9595 4.93621 17.4889 7.52027 18.5656 8.83448C19.5728 10.064 21.2667 10.611 22.6467 11.2897C24.6134 12.257 26.5284 13.284 28.4906 14.2779C29.8883 14.9859 31.1763 15.8611 32.5876 16.5855C35.7182 18.1921 38.0625 21.628 38.0081 25.2014C37.943 29.4731 35.3711 33.0589 33.3712 36.6898C31.3241 40.4064 26.8987 47.8502 24.7274 51.252" stroke="#202124" stroke-miterlimit="10" stroke-linecap="round" stroke-linejoin="round" stroke-dasharray="26.67 53.33"/>
</g>
</g>
<defs>
<clipPath id="clip0_778_1098">
<rect width="52" height="52" fill="white" transform="translate(0.666626)"/>
</clipPath>
</defs>
</svg>
