<svg width="25" height="24" viewBox="0 0 25 24" fill="none" xmlns="http://www.w3.org/2000/svg">
<g clip-path="url(#clip0_285_1623)">
<path d="M21.4998 6.70441C20.8258 6.98888 20.1108 7.17561 19.3788 7.25838C20.1413 6.82297 20.7268 6.13349 21.0025 5.31198C20.2776 5.72179 19.4845 6.01052 18.6575 6.16571C17.9838 5.48199 17.0241 5.05469 15.9619 5.05469C13.9224 5.05469 12.2689 6.62992 12.2689 8.57277C12.2689 8.84855 12.3016 9.11703 12.3645 9.37459C9.29539 9.22782 6.5743 7.82722 4.75286 5.69869C4.43504 6.21829 4.25293 6.82271 4.25293 7.46738C4.25293 8.68799 4.90494 9.76478 5.89579 10.3957C5.30934 10.3782 4.7358 10.2273 4.22305 9.95562C4.22284 9.97036 4.22284 9.9851 4.22284 9.9999C4.22284 11.7045 5.49578 13.1265 7.18511 13.4497C6.6413 13.5906 6.07088 13.6112 5.51743 13.5099C5.98733 14.9077 7.35118 15.9248 8.96711 15.9532C7.70324 16.8968 6.11087 17.4593 4.38076 17.4593C4.08264 17.4593 3.78873 17.4426 3.49982 17.4101C5.13409 18.4083 7.07521 18.9908 9.16068 18.9908C15.9534 18.9908 19.6678 13.6299 19.6678 8.98078C19.6678 8.82819 19.6642 8.67647 19.6571 8.52561C20.38 8.0277 21.0041 7.41098 21.4998 6.70441Z" fill="white"/>
</g>
<defs>
<clipPath id="clip0_285_1623">
<rect width="18" height="14" fill="white" transform="translate(3.49982 5)"/>
</clipPath>
</defs>
</svg>
