<svg width="24" height="24" viewBox="0 0 24 24" fill="none" xmlns="http://www.w3.org/2000/svg">
<g id="Es-Spain--Streamline-Flagpack">
<g clip-path="url(#clip0_1398_1005)">
<path id="Vector" fill-rule="evenodd" clip-rule="evenodd" d="M0 0V24H24V0H0Z" fill="#FFB400"/>
<g id="Mask group">
<mask id="mask0_1398_1005" style="mask-type:luminance" maskUnits="userSpaceOnUse" x="0" y="0" width="24" height="24">
<g id="Group">
<path id="Vector_2" fill-rule="evenodd" clip-rule="evenodd" d="M0 0V24H24V0H0Z" fill="white"/>
</g>
</mask>
<g mask="url(#mask0_1398_1005)">
<g id="Group_2">
<path id="Vector_3" fill-rule="evenodd" clip-rule="evenodd" d="M0 0V6H24V0H0ZM0 18V24H24V18H0Z" fill="#C51918"/>
<path id="Vector_4" d="M3.75598 10.2725H4.59598V16.0965H3.75598V10.2725Z" fill="#F1F9FF"/>
<path id="Vector_5" fill-rule="evenodd" clip-rule="evenodd" d="M4.93204 9.26367H3.42004V9.82367H3.67204V10.2717H4.68004V9.82367H4.93204V9.26367ZM4.68004 16.4317H4.93204V16.9917H3.42004V16.4317H3.67204V15.9837H4.68004V16.4317Z" fill="#C88A02"/>
<path id="Vector_6" fill-rule="evenodd" clip-rule="evenodd" d="M4.17601 9.37556C4.35826 9.37556 4.37701 9.28355 4.48501 9.14655C4.56901 9.04055 4.76401 8.90855 4.76401 8.75955C4.76401 8.41955 4.50076 8.14355 4.17601 8.14355C3.85126 8.14355 3.58801 8.41955 3.58801 8.75955C3.58801 8.92555 3.72226 9.03655 3.82351 9.14655C3.93076 9.26355 4.00951 9.37556 4.17601 9.37556Z" fill="#AD1619"/>
<path id="Vector_7" fill-rule="evenodd" clip-rule="evenodd" d="M3.42004 16.9922H4.93204V17.8882C4.93204 17.8882 4.74304 17.7762 4.55404 17.7762C4.36504 17.7762 4.17604 17.8882 4.17604 17.8882C4.17604 17.8882 3.98704 17.7762 3.79804 17.7762C3.60904 17.7762 3.42004 17.8882 3.42004 17.8882V16.9922Z" fill="#005BBF"/>
<g id="Mask group_2">
<mask id="mask1_1398_1005" style="mask-type:luminance" maskUnits="userSpaceOnUse" x="3" y="16" width="2" height="2">
<g id="Group_3">
<path id="Vector_8" fill-rule="evenodd" clip-rule="evenodd" d="M3.42004 16.9922H4.93204V17.8882C4.93204 17.8882 4.74304 17.7762 4.55404 17.7762C4.36504 17.7762 4.17604 17.8882 4.17604 17.8882C4.17604 17.8882 3.98704 17.7762 3.79804 17.7762C3.60904 17.7762 3.42004 17.8882 3.42004 17.8882V16.9922Z" fill="white"/>
</g>
</mask>
<g mask="url(#mask1_1398_1005)">
<g id="Group_4">
<path id="Vector_9" d="M3.40653 17.7117L3.37354 17.6047C3.50929 17.5237 3.64579 17.4827 3.78304 17.4827C3.87154 17.4827 3.91804 17.4997 3.99604 17.5457C4.05162 17.5838 4.11357 17.6024 4.17603 17.5997C4.2385 17.6024 4.30046 17.5838 4.35604 17.5457C4.42201 17.5015 4.49521 17.4798 4.56904 17.4827C4.70629 17.4827 4.84279 17.5227 4.97929 17.6047L4.94628 17.7117C4.8279 17.6392 4.69931 17.601 4.56904 17.5997C4.50657 17.597 4.44462 17.6156 4.38904 17.6537C4.32306 17.698 4.24986 17.7196 4.17603 17.7167C4.10221 17.7196 4.02901 17.698 3.96303 17.6537C3.90746 17.6156 3.8455 17.597 3.78304 17.5997C3.65779 17.5997 3.53253 17.6367 3.40653 17.7117ZM3.40653 17.3757L3.37354 17.2687C3.50929 17.1877 3.64579 17.1477 3.78304 17.1477C3.87154 17.1477 3.91804 17.1637 3.99604 17.2107C4.05168 17.2485 4.11363 17.2667 4.17603 17.2637C4.23844 17.2667 4.30039 17.2485 4.35604 17.2107C4.42201 17.1665 4.49521 17.1448 4.56904 17.1477C4.70629 17.1477 4.84279 17.1877 4.97929 17.2677L4.94628 17.3757C4.8279 17.3032 4.69931 17.265 4.56904 17.2637C4.50657 17.261 4.44462 17.2796 4.38904 17.3177C4.32306 17.362 4.24986 17.3836 4.17603 17.3807C4.10221 17.3836 4.02901 17.362 3.96303 17.3177C3.90746 17.2796 3.8455 17.261 3.78304 17.2637C3.65779 17.2637 3.53253 17.3007 3.40653 17.3757Z" fill="white"/>
</g>
</g>
</g>
<path id="Vector_10" d="M11.988 10.2725H12.828V16.0965H11.988V10.2725Z" fill="#F1F9FF"/>
<path id="Vector_11" fill-rule="evenodd" clip-rule="evenodd" d="M13.164 9.26367H11.652V9.82367H11.904V10.2717H12.912V9.82367H13.164V9.26367ZM12.912 16.4317H13.164V16.9917H11.652V16.4317H11.904V15.9837H12.912V16.4317Z" fill="#C88A02"/>
<path id="Vector_12" fill-rule="evenodd" clip-rule="evenodd" d="M12.4079 9.37556C12.5909 9.37556 12.6089 9.28355 12.7169 9.14655C12.8009 9.04055 12.9959 8.90855 12.9959 8.75955C12.9959 8.41955 12.7327 8.14355 12.4079 8.14355C12.0832 8.14355 11.8199 8.41955 11.8199 8.75955C11.8199 8.92555 11.9542 9.03655 12.0554 9.14655C12.1627 9.26355 12.2414 9.37556 12.4079 9.37556Z" fill="#AD1619"/>
<path id="Vector_13" fill-rule="evenodd" clip-rule="evenodd" d="M11.652 16.9922H13.164V17.8882C13.164 17.8882 12.975 17.7762 12.786 17.7762C12.597 17.7762 12.408 17.8882 12.408 17.8882C12.408 17.8882 12.219 17.7762 12.03 17.7762C11.841 17.7762 11.652 17.8882 11.652 17.8882V16.9922Z" fill="#005BBF"/>
<g id="Mask group_3">
<mask id="mask2_1398_1005" style="mask-type:luminance" maskUnits="userSpaceOnUse" x="11" y="16" width="3" height="2">
<g id="Group_5">
<path id="Vector_14" fill-rule="evenodd" clip-rule="evenodd" d="M11.652 16.9922H13.164V17.8882C13.164 17.8882 12.975 17.7762 12.786 17.7762C12.597 17.7762 12.408 17.8882 12.408 17.8882C12.408 17.8882 12.219 17.7762 12.03 17.7762C11.841 17.7762 11.652 17.8882 11.652 17.8882V16.9922Z" fill="white"/>
</g>
</mask>
<g mask="url(#mask2_1398_1005)">
<g id="Group_6">
<path id="Vector_15" d="M11.6385 17.7117L11.6055 17.6047C11.7412 17.5237 11.8777 17.4827 12.015 17.4827C12.1035 17.4827 12.15 17.4997 12.228 17.5457C12.2835 17.5839 12.3455 17.6024 12.408 17.5997C12.4704 17.6024 12.5324 17.5839 12.588 17.5457C12.6542 17.5013 12.7276 17.4797 12.8017 17.4827C12.9382 17.4827 13.0747 17.5227 13.2112 17.6047L13.1782 17.7117C13.0598 17.6392 12.9312 17.6011 12.801 17.5997C12.7385 17.597 12.6765 17.6156 12.621 17.6537C12.555 17.698 12.4818 17.7197 12.408 17.7167C12.3341 17.7197 12.2609 17.698 12.195 17.6537C12.1394 17.6156 12.0774 17.597 12.015 17.5997C11.8897 17.5997 11.7645 17.6367 11.6385 17.7117ZM11.6385 17.3757L11.6055 17.2687C11.7412 17.1877 11.8777 17.1477 12.015 17.1477C12.1035 17.1477 12.15 17.1637 12.228 17.2107C12.2836 17.2485 12.3456 17.2668 12.408 17.2637C12.4704 17.2668 12.5323 17.2485 12.588 17.2107C12.6542 17.1663 12.7276 17.1447 12.8017 17.1477C12.9382 17.1477 13.0747 17.1877 13.2112 17.2677L13.1782 17.3757C13.0598 17.3032 12.9312 17.2651 12.801 17.2637C12.7385 17.261 12.6765 17.2796 12.621 17.3177C12.555 17.362 12.4818 17.3837 12.408 17.3807C12.3341 17.3837 12.2609 17.362 12.195 17.3177C12.1394 17.2797 12.0774 17.2611 12.015 17.2637C11.8897 17.2637 11.7645 17.3007 11.6385 17.3757Z" fill="white"/>
</g>
</g>
</g>
<path id="Vector_16" fill-rule="evenodd" clip-rule="evenodd" d="M12.5295 14.976C12.5295 15.212 12.6143 15.436 12.7658 15.68L13.281 15.113L13.3305 15.093L13.3583 14.806C13.4085 14.276 13.2383 13.983 12.8895 13.771L12.8655 13.757C12.8175 13.729 12.7125 13.667 12.678 13.645C12.6107 13.6033 12.5464 13.5534 12.486 13.496C12.4252 13.4376 12.3621 13.3835 12.297 13.334C12.7298 13.242 12.9638 13.174 13.143 13.07C13.5728 12.823 13.6275 12.25 13.215 11.872C12.6525 11.355 11.1465 11.309 10.485 11.764L10.794 12.56C11.118 12.337 11.8553 12.295 12.372 12.41C12.2 12.4504 12.0274 12.487 11.8545 12.52L11.8118 12.528C11.6055 12.571 11.4645 12.625 11.3603 12.72C11.3117 12.7608 11.2703 12.815 11.2388 12.879C11.2073 12.943 11.1865 13.0153 11.1778 13.0909C11.169 13.1666 11.1726 13.2438 11.1881 13.3175C11.2037 13.3912 11.2309 13.4595 11.268 13.518C11.3318 13.627 11.4158 13.708 11.5425 13.806C11.5838 13.837 11.6273 13.869 11.6865 13.911L11.7165 13.933L11.8305 14.013C11.952 14.1 12.0315 14.163 12.0908 14.221C12.183 14.311 12.2783 14.384 12.387 14.453C12.4448 14.49 12.612 14.587 12.6113 14.587L12.621 14.593C12.5601 14.7039 12.5279 14.8384 12.5295 14.976ZM3.74101 15.68C3.89251 15.435 3.97726 15.212 3.97726 14.976C3.97856 14.8383 3.94618 14.7039 3.88501 14.593L3.89551 14.587C3.89401 14.587 4.06126 14.49 4.11976 14.453C4.22369 14.388 4.32287 14.3104 4.41601 14.221C4.47526 14.163 4.55476 14.101 4.67551 14.014L4.78951 13.934L4.81951 13.911C4.86802 13.8772 4.91603 13.8422 4.96351 13.806C5.09101 13.708 5.17351 13.626 5.23801 13.518C5.27508 13.4595 5.30232 13.3912 5.31788 13.3175C5.33345 13.2438 5.33698 13.1666 5.32823 13.0909C5.31949 13.0153 5.29868 12.943 5.2672 12.879C5.23572 12.815 5.19431 12.7608 5.14576 12.72C5.04151 12.625 4.90051 12.571 4.69426 12.528L4.65151 12.52L4.39951 12.467C4.31089 12.4486 4.22239 12.4293 4.13401 12.409C4.65076 12.295 5.38801 12.337 5.71276 12.56L6.02026 11.764C5.36026 11.309 3.85351 11.355 3.29101 11.872C2.87851 12.251 2.93401 12.823 3.36301 13.07C3.54301 13.173 3.77626 13.242 4.20901 13.334C4.14419 13.3836 4.08136 13.4376 4.02076 13.496C3.96039 13.5538 3.89611 13.604 3.82876 13.646C3.76654 13.6835 3.70404 13.7201 3.64126 13.756L3.61726 13.771C3.26701 13.983 3.09751 14.276 3.14851 14.806L3.17551 15.093L3.22501 15.113L3.74101 15.68Z" fill="#AD1619"/>
<path id="Vector_17" d="M4.44223 12.4004L4.68973 12.4684V12.9614C4.42648 13.2424 3.75598 13.7164 3.75598 13.7164V12.4004H4.44223ZM12.2362 12.4004L11.988 12.4684V12.9614C12.252 13.2424 12.9225 13.7164 12.9225 13.7164V12.4004H12.2362Z" fill="#F1F9FF"/>
<path id="Vector_18" fill-rule="evenodd" clip-rule="evenodd" d="M11.082 7.20605V7.04205C10.65 6.62905 10.197 6.42205 9.72451 6.42205C9.29377 6.15974 8.819 6.05251 8.34751 6.11105V6.10805C7.65001 6.01705 6.94576 6.42205 6.94576 6.42205C6.23701 6.42205 5.58826 7.04205 5.58826 7.04205V7.20605L6.43576 8.34105C6.43576 8.34105 6.67426 9.43305 8.34451 9.17605V9.17905C8.34451 9.17905 9.45001 9.13905 9.52801 9.10405L9.62326 9.06505C9.84076 8.98105 10.0875 8.88505 10.2345 8.34105L11.082 7.20605ZM8.34451 6.16105C8.32051 6.53905 8.18251 8.81605 8.34451 9.16905V6.16005V6.16105Z" fill="#AD1619"/>
<path id="Vector_19" fill-rule="evenodd" clip-rule="evenodd" d="M6.23476 8.15045L6.23551 8.14645L5.64001 7.39845L5.69701 7.31745L6.25651 8.01845L6.27152 7.93145C6.33565 7.95361 6.40179 7.96371 6.46801 7.96145V7.80945L6.59251 7.89945C6.65251 7.94345 6.74026 7.95545 6.85501 7.92945C6.93976 7.91145 6.99751 7.78045 7.01551 7.50245L7.05301 6.93945L7.17976 7.47945C7.23676 7.72245 7.32376 7.83045 7.44751 7.83045C7.56901 7.83045 7.61776 7.77045 7.62301 7.62145L7.63801 7.19845L7.78201 7.57645C7.83376 7.71245 7.90501 7.77445 8.00701 7.77445C8.15176 7.77445 8.24851 7.61345 8.24851 7.36045H8.41951C8.41951 7.61345 8.51626 7.77445 8.66101 7.77445C8.76226 7.77445 8.83351 7.71345 8.88601 7.57645L9.02926 7.19845L9.04426 7.62145C9.05026 7.77145 9.09826 7.83045 9.21976 7.83045C9.34351 7.83045 9.43126 7.72245 9.48826 7.47845L9.61426 6.93945L9.65176 7.50245C9.67051 7.78045 9.72751 7.91245 9.81226 7.93045C9.92701 7.95545 10.0148 7.94345 10.0748 7.89945L10.1993 7.80945V7.96145C10.2657 7.9638 10.3321 7.9537 10.3965 7.93145L10.4235 8.09445L11.0423 7.31745L11.1 7.39945L10.3298 8.36545C10.2173 8.64145 10.1603 8.82345 10.1603 8.89945C10.1603 9.01445 9.93526 9.08345 9.49576 9.15345C9.15076 9.20845 8.74426 9.24545 8.41201 9.25145H8.32801C7.96576 9.24292 7.60406 9.21021 7.24426 9.15345C6.80476 9.08345 6.57901 9.01445 6.57901 8.89945C6.57859 8.8812 6.57657 8.86308 6.57301 8.84545C6.52641 8.75128 6.49381 8.64604 6.47701 8.53545C6.45524 8.47828 6.43274 8.4216 6.40951 8.36545L6.23926 8.15145L6.23476 8.15045ZM10.3643 8.16845C10.2263 8.20045 10.1273 8.19745 10.0748 8.14045C9.98002 8.17239 9.88113 8.1758 9.78526 8.15045C9.66676 8.12545 9.58501 8.02045 9.53551 7.84745C9.47658 7.95343 9.38928 8.02506 9.29176 8.04745C9.82951 8.14745 10.206 8.29145 10.206 8.29145C10.206 8.29145 10.1963 8.39745 10.1738 8.52145C10.1978 8.45645 10.2263 8.38445 10.2593 8.30445L10.2668 8.29045L10.3643 8.16845ZM9.03826 8.00445C8.99253 7.97463 8.95405 7.92818 8.92726 7.87045C8.88773 7.91726 8.84121 7.95236 8.79076 7.97345C8.87551 7.98145 8.95801 7.99345 9.03826 8.00445ZM8.49451 7.95145C8.42875 7.91029 8.3731 7.8451 8.33402 7.76345C8.2952 7.84441 8.2401 7.9092 8.17501 7.95045L8.29051 7.94745H8.35801C8.40301 7.94745 8.44876 7.94945 8.49451 7.95145ZM6.46651 8.28145L6.38851 8.18445C6.48226 8.19645 6.55201 8.18445 6.59326 8.14045C6.67576 8.17245 6.77176 8.17545 6.88276 8.15045C7.00051 8.12545 7.08226 8.02045 7.13176 7.84745C7.18916 7.94989 7.27312 8.02013 7.36726 8.04445C6.90376 8.13145 6.55801 8.24845 6.46651 8.28145ZM7.87351 7.97145C7.79365 7.97972 7.71389 7.98972 7.63426 8.00145C7.6781 7.97163 7.71494 7.92631 7.74076 7.87045C7.77908 7.9164 7.82435 7.95084 7.87351 7.97145ZM9.93976 8.90145C9.99826 8.93845 10.0455 8.90145 10.0823 8.83145C10.0795 8.84892 10.0778 8.86664 10.077 8.88445C10.0699 8.89034 10.0623 8.89536 10.0545 8.89945C10.0138 8.91986 9.9719 8.93591 9.92926 8.94745C9.78254 8.98894 9.63436 9.02065 9.48526 9.04245C9.12976 9.09945 8.70601 9.13745 8.37001 9.14045C7.99698 9.13392 7.62447 9.10121 7.25401 9.04245C7.10495 9.02041 6.95677 8.98871 6.81001 8.94745C6.7727 8.93708 6.73588 8.92372 6.69976 8.90745C6.70282 8.90561 6.70582 8.90361 6.70876 8.90145C6.89251 8.78745 8.10526 8.67945 8.32426 8.66145C8.54251 8.67945 9.75676 8.78745 9.93976 8.90145Z" fill="#C88A02"/>
<path id="Vector_20" fill-rule="evenodd" clip-rule="evenodd" d="M8.33403 5.3468C8.40087 5.3468 8.46496 5.3114 8.51222 5.24839C8.55948 5.18538 8.58603 5.09992 8.58603 5.0108C8.58603 4.92169 8.55948 4.83623 8.51222 4.77322C8.46496 4.7102 8.40087 4.6748 8.33403 4.6748C8.2672 4.6748 8.2031 4.7102 8.15584 4.77322C8.10858 4.83623 8.08203 4.92169 8.08203 5.0108C8.08203 5.09992 8.10858 5.18538 8.15584 5.24839C8.2031 5.3114 8.2672 5.3468 8.33403 5.3468Z" fill="#005BBF"/>
<path id="Vector_21" fill-rule="evenodd" clip-rule="evenodd" d="M8.16973 6.99715C8.17466 7.0323 8.18271 7.06654 8.19373 7.09915C8.15776 7.08116 8.11964 7.07201 8.08123 7.07215C7.96573 7.07215 7.87123 7.14815 7.87123 7.24015C7.87123 7.33315 7.96573 7.40815 8.08123 7.40815C8.19748 7.40815 8.29123 7.33315 8.29123 7.24015C8.29123 7.33315 8.38573 7.40815 8.50123 7.40815C8.61748 7.40815 8.71123 7.33315 8.71123 7.24015C8.71123 7.14815 8.61748 7.07215 8.50123 7.07215C8.4734 7.07221 8.44568 7.07691 8.41873 7.08615C8.42519 7.03545 8.42468 6.98361 8.41723 6.93315C8.39473 6.78115 8.32198 6.67315 8.25298 6.69015C8.18548 6.70815 8.14798 6.84515 8.16973 6.99715ZM6.93373 7.21015C6.92274 7.17787 6.91469 7.14397 6.90973 7.10915C6.88723 6.95715 6.92473 6.81915 6.99373 6.80215C7.06123 6.78415 7.13473 6.89215 7.15723 7.04515C7.16473 7.09915 7.16473 7.15215 7.15948 7.19815C7.18643 7.18891 7.21415 7.18421 7.24198 7.18415C7.35748 7.18415 7.45198 7.26015 7.45198 7.35215C7.45198 7.44515 7.35748 7.52015 7.24198 7.52015C7.12573 7.52015 7.03198 7.44515 7.03198 7.35215C7.03198 7.44515 6.93748 7.52015 6.82198 7.52015C6.70573 7.52015 6.61198 7.44515 6.61198 7.35215C6.61198 7.26015 6.70573 7.18415 6.82198 7.18415C6.86323 7.18415 6.90148 7.19415 6.93448 7.21115L6.93373 7.21015ZM9.56473 7.31315C9.55498 7.40515 9.45448 7.46215 9.33973 7.44015C9.22498 7.41915 9.13948 7.32715 9.14923 7.23515C9.15898 7.14315 9.25948 7.08615 9.37423 7.10815C9.41252 7.1145 9.44962 7.13008 9.48373 7.15415C9.47584 7.12004 9.47106 7.08478 9.46948 7.04915C9.46348 6.89515 9.51448 6.76615 9.58498 6.76115C9.65398 6.75615 9.71548 6.87715 9.72148 7.03115C9.724 7.08282 9.71943 7.13467 9.70798 7.18415C9.73543 7.18023 9.76315 7.1809 9.79048 7.18615C9.90523 7.20715 9.99073 7.29915 9.98098 7.39115C9.97123 7.48315 9.86998 7.54015 9.75598 7.51815C9.64048 7.49715 9.55498 7.40515 9.56473 7.31315ZM10.365 7.75715C10.467 7.83015 10.5765 7.82215 10.6095 7.74015L10.611 7.73615C10.6208 7.75016 10.6332 7.76051 10.647 7.76615C10.713 7.79315 10.7947 7.69615 10.8285 7.54715C10.8622 7.39915 10.836 7.25715 10.7692 7.23015C10.7032 7.20315 10.6215 7.30115 10.5877 7.44915C10.5796 7.48322 10.5746 7.51847 10.5727 7.55415C10.5471 7.51621 10.5167 7.48471 10.4827 7.46115C10.3807 7.38815 10.2712 7.39515 10.2382 7.47715C10.206 7.55915 10.2622 7.68515 10.365 7.75715ZM6.24298 7.79115C6.14098 7.86415 6.03148 7.85715 5.99848 7.77515L5.99698 7.77015C5.98717 7.7842 5.97475 7.79455 5.96098 7.80015C5.89498 7.82715 5.81323 7.73015 5.77948 7.58215C5.74573 7.43415 5.77198 7.29215 5.83873 7.26515C5.90473 7.23815 5.98648 7.33515 6.02023 7.48315C6.02836 7.51722 6.03339 7.55248 6.03523 7.58815C6.06078 7.55018 6.09127 7.51868 6.12523 7.49515C6.22723 7.42215 6.33673 7.43015 6.36973 7.51215C6.40198 7.59415 6.34573 7.71815 6.24298 7.79115ZM8.23948 4.07715H8.41498V4.22415H8.52898V4.45715H8.41498V4.92415H8.52898V5.15715H8.12398V4.92415H8.23948V4.45715H8.12323V4.22415H8.23948V4.07715Z" fill="#C88A02"/>
<path id="Vector_22" d="M8.20728 5.34375H8.54328V6.79975H8.20728V5.34375Z" fill="#C88A02"/>
<path id="Vector_23" d="M6.85501 5.58833L6.85351 5.70033C6.10876 5.68233 5.68126 5.82733 5.57326 6.11633C5.46076 6.41533 5.48176 6.77833 5.63926 7.20933L5.56351 7.25933C5.39551 6.79833 5.37301 6.39933 5.49826 6.06633C5.62651 5.72333 6.07801 5.57033 6.85501 5.58833Z" fill="white"/>
<path id="Vector_24" d="M6.99902 6.57996L6.95627 6.67696C6.79352 6.54796 6.71252 6.32696 6.71252 6.02396C6.71252 5.58696 6.88127 5.33096 7.25402 5.15596C7.49252 5.04496 7.81727 5.08996 8.23052 5.28996L8.20202 5.39496C7.80527 5.20396 7.49852 5.15996 7.28252 5.26196C6.93977 5.42196 6.79652 5.63996 6.79652 6.02396C6.79652 6.28996 6.86402 6.47396 6.99902 6.58096V6.57996Z" fill="white"/>
<path id="Vector_25" d="M5.74497 7.03731L5.58597 7.11231C5.42172 6.48731 5.46897 6.06331 5.75022 5.88031C5.99772 5.72031 6.35772 5.65431 6.83397 5.68031L6.82722 5.90331C6.37722 5.87931 6.04197 5.94031 5.82372 6.08231C5.63922 6.20231 5.60472 6.50731 5.74497 7.03731Z" fill="#C88A02"/>
<path id="Vector_26" d="M7.59676 5.43884C7.21276 5.43884 7.05451 5.56384 6.96451 5.93184C6.90751 6.16684 6.96301 6.36684 7.14376 6.55384L7.04026 6.73084C6.80701 6.48884 6.72451 6.19184 6.80476 5.86184C6.91951 5.39284 7.14526 5.21484 7.59676 5.21484C7.89301 5.21484 8.12326 5.31884 8.28376 5.52884L8.30851 5.56184V6.64184H8.14051V5.65784C8.01526 5.51284 7.83526 5.43784 7.59676 5.43784V5.43884Z" fill="#C88A02"/>
<path id="Vector_27" d="M9.78676 5.69966L9.78826 5.81166C10.533 5.79366 10.9605 5.93866 11.0685 6.22766C11.181 6.52666 11.16 6.88966 11.0025 7.32066L11.0783 7.36966C11.2463 6.90966 11.2688 6.51066 11.1435 6.17766C11.0153 5.83466 10.5638 5.68166 9.78676 5.69966Z" fill="white"/>
<path id="Vector_28" d="M9.52349 6.60384L9.56699 6.70084C9.72899 6.57084 9.80999 6.35084 9.80999 6.04684C9.80999 5.61084 9.64124 5.35484 9.26849 5.17984C9.02999 5.06784 8.70524 5.11384 8.29199 5.31384L8.32049 5.41884C8.71724 5.22684 9.02399 5.18384 9.24074 5.28484C9.58274 5.44584 9.72599 5.66384 9.72599 6.04684C9.72599 6.31384 9.65849 6.49684 9.52349 6.60384Z" fill="white"/>
<path id="Vector_29" d="M10.9492 7.14966L11.1075 7.22265C11.2725 6.59865 11.2252 6.17466 10.944 5.99266C10.6965 5.83066 10.3357 5.76466 9.8595 5.79066L9.867 6.01466C10.317 5.99066 10.6522 6.05166 10.8705 6.19266C11.055 6.31266 11.0887 6.61966 10.9492 7.14966Z" fill="#C88A02"/>
<path id="Vector_30" d="M9.08774 5.45642C9.47174 5.45642 9.62924 5.58142 9.71924 5.94942C9.77699 6.18442 9.72149 6.38442 9.54074 6.57142L9.64349 6.74842C9.87749 6.50642 9.95999 6.20942 9.87899 5.87942C9.76424 5.41042 9.53924 5.23242 9.08774 5.23242C8.79149 5.23242 8.56124 5.33642 8.40074 5.54742L8.37524 5.57942V6.65942H8.54324V5.67542C8.66924 5.53042 8.84924 5.45542 9.08774 5.45542V5.45642Z" fill="#C88A02"/>
<path id="Vector_31" opacity="0.3" fill-rule="evenodd" clip-rule="evenodd" d="M5.604 9.26367H11.064V15.8047C11.064 15.8047 10.6575 17.9997 8.334 17.9997C6.009 17.9997 5.604 15.7467 5.604 15.7467V9.26367Z" fill="#E1E5E8"/>
<g id="Mask group_4">
<mask id="mask3_1398_1005" style="mask-type:luminance" maskUnits="userSpaceOnUse" x="5" y="9" width="7" height="9">
<g id="Group_7">
<path id="Vector_32" fill-rule="evenodd" clip-rule="evenodd" d="M5.604 9.26367H11.064V15.8047C11.064 15.8047 10.6575 17.9997 8.334 17.9997C6.009 17.9997 5.604 15.7467 5.604 15.7467V9.26367Z" fill="white"/>
</g>
</mask>
<g mask="url(#mask3_1398_1005)">
<g id="Group_8">
<path id="Vector_33" d="M5.604 13.2949H8.376V17.6629H5.604V13.2949Z" fill="#FFC034"/>
<path id="Vector_34" d="M5.94 13.5194H6.276V17.6634H5.94V13.5194ZM7.116 13.5194H7.452V17.6634H7.116V13.5194ZM6.528 13.5194H6.864V17.6634H6.528V13.5194ZM7.70325 13.5194H8.03925V17.6634H7.70325V13.5194ZM5.604 9.15137H8.376V13.4074H5.604V9.15137Z" fill="#AD1619"/>
<path id="Vector_35" d="M8.29199 13.1836H11.064V17.4396H8.29199V13.1836Z" fill="#AD1619"/>
<path id="Vector_36" d="M8.29199 9.26367H11.232V13.4077H8.29199V9.26367Z" fill="#F1F9FF"/>
<path id="Vector_37" fill-rule="evenodd" clip-rule="evenodd" d="M6.78002 9.59961H7.03202V10.5296H7.20002V10.0646H7.45202V10.5286H7.70402V11.1096H7.45202V12.1546H7.70402V12.7356H6.19202V12.1556H6.44402V11.1096H6.19202V10.5296H6.36002V10.0646H6.61202V10.5286H6.78002V9.59961Z" fill="#C88A02"/>
<path id="Vector_38" d="M9.73427 9.7948L9.90602 9.5498L10.2668 9.9998L10.095 10.2448L9.73352 9.7948H9.73427Z" fill="#C88A02"/>
<path id="Vector_39" fill-rule="evenodd" clip-rule="evenodd" d="M10.77 16.1395V13.6875H8.67004V16.1185L8.67304 16.1385C8.77954 16.7415 9.14104 17.0475 9.72004 17.0475C10.2975 17.0475 10.6598 16.7495 10.7663 16.1595L10.77 16.1395ZM9.72004 16.7115C9.25504 16.7115 9.00229 16.5035 8.92204 16.0795V14.0235H10.518V16.0985C10.437 16.5085 10.1843 16.7115 9.72004 16.7115Z" fill="#FFC034"/>
<path id="Vector_40" fill-rule="evenodd" clip-rule="evenodd" d="M9.80625 13.8926H9.6315V15.0046L8.9415 14.0046L8.81775 14.1546L9.44175 15.0606H8.87625V15.3966H9.456L8.8185 16.3206L8.9415 16.4726L9.6315 15.4726V16.7716H9.80625V15.5896L10.416 16.4726L10.5397 16.3206L9.90225 15.3966H10.6132V15.0606H9.91575L10.5397 14.1556L10.416 14.0036L9.80625 14.8876V13.8926Z" fill="#FFC034"/>
<path id="Vector_41" fill-rule="evenodd" clip-rule="evenodd" d="M10.1115 17.4426C10.1115 17.4426 8.33252 17.6296 8.33252 16.0996C8.33252 16.0996 8.31527 17.4426 6.45752 17.4426V18.6506H10.1115V17.4426Z" fill="#F1F9FF"/>
<path id="Vector_42" fill-rule="evenodd" clip-rule="evenodd" d="M8.33325 14.1914C8.68125 14.1914 8.96325 13.7914 8.96325 13.2954C8.96325 12.8014 8.68125 12.3994 8.33325 12.3994C7.986 12.3994 7.70325 12.8014 7.70325 13.2954C7.70325 13.7904 7.986 14.1914 8.33325 14.1914Z" fill="#005BBF" stroke="#AD1619" stroke-width="0.87525"/>
</g>
</g>
</g>
</g>
</g>
</g>
</g>
</g>
<defs>
<clipPath id="clip0_1398_1005">
<rect width="24" height="24" rx="12" fill="white"/>
</clipPath>
</defs>
</svg>
