<svg width="24" height="24" viewBox="0 0 24 24" fill="none" xmlns="http://www.w3.org/2000/svg">
<g id="Si-Slovenia--Streamline-Flagpack">
<g clip-path="url(#clip0_1395_1045)">
<path id="Vector" fill-rule="evenodd" clip-rule="evenodd" d="M0 0V24H24V0H0Z" fill="#2E42A5"/>
<g id="Mask group">
<mask id="mask0_1395_1045" style="mask-type:luminance" maskUnits="userSpaceOnUse" x="0" y="0" width="24" height="24">
<g id="Group">
<path id="Vector_2" fill-rule="evenodd" clip-rule="evenodd" d="M0 0V24H24V0H0Z" fill="white"/>
</g>
</mask>
<g mask="url(#mask0_1395_1045)">
<g id="Group_2">
<path id="Vector_3" fill-rule="evenodd" clip-rule="evenodd" d="M0 0V8H24V0H0Z" fill="#F7FCFF"/>
<path id="Vector_4" fill-rule="evenodd" clip-rule="evenodd" d="M0 16V24H24V16H0Z" fill="#C51918"/>
<path id="Vector_5" fill-rule="evenodd" clip-rule="evenodd" d="M10.3049 5.03599C10.3049 5.03599 8.72694 4.04199 6.76344 4.04199C4.79994 4.04199 3.22119 5.03599 3.22119 5.03599C3.22119 5.03599 3.39669 9.03099 3.67494 11.147C3.79344 12.051 4.36269 13.369 4.87869 13.992C5.46669 14.703 6.76344 15.546 6.76344 15.546C7.13844 15.201 7.83969 15.046 8.73594 13.993C9.63294 12.939 9.85569 11.147 9.85569 11.147L10.3057 5.03699L10.3049 5.03599Z" fill="#2E42A5"/>
<path id="Vector_6" d="M10.0965 4.90625L10.7543 5.34325L10.3028 11.3663C10.1453 12.6413 9.74928 13.6462 9.11628 14.3892C8.80148 14.7631 8.45336 15.0838 8.07978 15.3442C7.87728 15.4852 7.02978 16.0672 7.03728 16.0632C6.95178 16.1172 6.88728 16.1652 6.83478 16.2132L6.75228 16.2882L6.66453 16.2313C5.78703 15.6613 4.96728 14.8932 4.56003 14.4012C4.00428 13.7292 3.41853 12.3533 3.29328 11.4012C3.10653 9.97825 2.93928 8.01725 2.82153 5.34325L3.41178 4.93225C3.52878 7.58525 3.66978 9.70025 3.85278 11.0972C3.96153 11.9253 4.50153 13.1932 4.99503 13.7892C5.35878 14.2292 5.94603 14.7173 6.75303 15.2493C6.80595 15.2079 6.86025 15.1699 6.91578 15.1353C6.91728 15.1342 7.46628 14.8082 7.65678 14.6752C8.00496 14.433 8.32941 14.1344 8.62278 13.7862C9.18378 13.1262 9.53478 12.2382 9.67653 11.1093L10.0965 4.90625Z" fill="#C51918"/>
<path id="Vector_7" fill-rule="evenodd" clip-rule="evenodd" d="M4.15649 11.0243C4.15649 11.0243 4.29899 11.6083 4.56374 12.2643C4.95224 12.4003 5.18999 12.3933 5.26574 12.2813C5.48324 11.9573 6.25574 11.8183 6.40049 12.0953C6.48899 12.2653 6.80249 12.3853 7.14449 12.2283L7.10624 12.2373C7.16624 12.2083 7.30499 12.1343 7.39124 12.0893L7.46024 12.0523C7.58924 11.9883 7.68374 11.9543 7.78049 11.9443C7.90478 11.9326 8.02915 11.9658 8.14049 12.0403C8.40974 12.2113 8.74274 12.2913 8.96999 12.2403C9.24749 11.5953 9.44474 11.0243 9.44474 11.0243L8.12849 9.34034L7.60499 10.0973L6.73499 8.44434L6.00749 10.0973L5.44949 9.34034L4.15649 11.0243ZM4.91774 13.0143C4.85714 12.9056 4.7996 12.7938 4.74524 12.6793C5.08274 12.7613 5.31074 12.7183 5.43824 12.5283C5.49824 12.4383 5.67674 12.3513 5.87999 12.3153C5.96438 12.2986 6.04989 12.2943 6.13499 12.3023C6.16649 12.3063 6.19274 12.3123 6.20999 12.3213C6.21524 12.3233 6.21524 12.3233 6.20999 12.3123L6.20849 12.3103C6.36374 12.6063 6.78524 12.7643 7.18274 12.5723L7.14449 12.5813C7.26931 12.5256 7.39287 12.4649 7.51499 12.3993L7.53899 12.3863C7.62127 12.3398 7.70818 12.3095 7.79699 12.2963C7.8821 12.2888 7.96714 12.3123 8.04299 12.3643C8.28127 12.5163 8.54094 12.5995 8.80499 12.6083C8.75249 12.7213 8.69924 12.8323 8.64374 12.9413C8.45324 13.0013 8.15924 12.9233 7.92149 12.7503C7.82239 12.6734 7.70808 12.6385 7.59374 12.6503C7.49432 12.6655 7.39749 12.7027 7.30724 12.7603L7.24499 12.7983C7.16999 12.8443 7.04999 12.9173 6.99824 12.9453L7.04174 12.9343C6.74399 13.0873 6.48374 12.9743 6.40949 12.8103C6.27674 12.5183 5.58224 12.6613 5.38649 12.9963C5.33399 13.0853 5.17649 13.1003 4.91774 13.0143ZM5.17649 13.4243L5.22074 13.4833C5.89799 14.3633 6.73574 14.7953 6.73574 14.7953C6.73574 14.7953 7.73324 14.3933 8.29874 13.5453C8.34749 13.4733 8.39624 13.3953 8.44349 13.3123C8.22247 13.2924 8.00742 13.2081 7.81349 13.0653C7.75298 13.0172 7.68277 12.9952 7.61249 13.0023C7.5372 13.0156 7.46401 13.045 7.39574 13.0893L7.37849 13.0993C7.32074 13.1343 7.14599 13.2393 7.04099 13.2873L7.08449 13.2753C6.73424 13.4703 6.36224 13.3163 6.21674 13.0253C6.19784 13.0165 6.1782 13.0108 6.15824 13.0083C6.0864 13.0004 6.01409 13.0044 5.94299 13.0203C5.77049 13.0553 5.62049 13.1403 5.57024 13.2253C5.48699 13.3683 5.35574 13.4313 5.17649 13.4243Z" fill="white"/>
<path id="Vector_8" fill-rule="evenodd" clip-rule="evenodd" d="M5.36026 5.88552H4.83301L5.24176 5.37552L4.83301 4.83552H5.36026L5.58301 4.31152L5.80651 4.83552H6.33301L5.94451 5.34252L6.28951 5.88552H5.80651L5.58301 6.43852L5.36026 5.88552ZM7.84501 5.88552H7.31851L7.72726 5.37552L7.31851 4.83552H7.84576L8.06851 4.31152L8.29201 4.83552H8.81851L8.43001 5.34252L8.77501 5.88552H8.29201L8.06851 6.43852L7.84576 5.88552H7.84501ZM6.45001 7.56652H5.92276L6.33151 7.05652L5.92276 6.51652H6.45001L6.67276 5.99252L6.89626 6.51652H7.42276L7.03426 7.02352L7.37926 7.56652H6.89626L6.67276 8.11952L6.45001 7.56652Z" fill="#FECA00"/>
</g>
</g>
</g>
</g>
</g>
<defs>
<clipPath id="clip0_1395_1045">
<rect width="24" height="24" rx="12" fill="white"/>
</clipPath>
</defs>
</svg>
