<svg width="24" height="24" viewBox="0 0 24 24" fill="none" xmlns="http://www.w3.org/2000/svg">
<g id="Sk-Slovakia--Streamline-Flagpack">
<g clip-path="url(#clip0_1395_984)">
<path id="Vector" fill-rule="evenodd" clip-rule="evenodd" d="M0 0V24H24V0H0Z" fill="#3D58DB"/>
<g id="Mask group">
<mask id="mask0_1395_984" style="mask-type:luminance" maskUnits="userSpaceOnUse" x="0" y="0" width="24" height="24">
<g id="Group">
<path id="Vector_2" fill-rule="evenodd" clip-rule="evenodd" d="M0 0V24H24V0H0Z" fill="white"/>
</g>
</mask>
<g mask="url(#mask0_1395_984)">
<g id="Group_2">
<path id="Vector_3" fill-rule="evenodd" clip-rule="evenodd" d="M0 0V8H24V0H0Z" fill="#F7FCFF"/>
<path id="Vector_4" fill-rule="evenodd" clip-rule="evenodd" d="M0 16V24H24V16H0Z" fill="#E31D1C"/>
<g id="Vector_5">
<path d="M11.703 6.03027L12.0757 5.97727L12.0405 5.53027H4.40846L4.38446 5.99727V6.00127L4.38371 6.01327L4.38146 6.05927L4.37321 6.23527C4.3302 7.13073 4.29445 8.02678 4.26596 8.92327C4.21796 10.4633 4.18571 12.2653 4.26971 13.1073C4.43321 14.7493 5.18396 18.4373 8.08496 20.1073L8.23646 20.1943L8.38646 20.1043C11.1427 18.4623 12.0637 15.1543 12.2767 13.1093C12.384 12.0783 12.3292 10.2733 12.2542 8.77327C12.2077 7.8597 12.1497 6.94724 12.0802 6.03627L12.0772 5.99327L12.0765 5.98127V5.97827L11.703 6.03027Z" fill="#E31D1C"/>
<path d="M4.38446 5.99727L4.40846 5.53027H12.0405L12.0757 5.97727L11.703 6.03027L12.0765 5.97827V5.98127L12.0772 5.99327L12.0802 6.03627C12.1497 6.94724 12.2077 7.8597 12.2542 8.77327C12.3292 10.2733 12.384 12.0783 12.2767 13.1093C12.0637 15.1543 11.1427 18.4623 8.38646 20.1043L8.23646 20.1943L8.08496 20.1073C5.18396 18.4373 4.43321 14.7493 4.26971 13.1073C4.18571 12.2653 4.21796 10.4633 4.26596 8.92327C4.29445 8.02679 4.3302 7.13073 4.37321 6.23527L4.38146 6.05927L4.38371 6.01327L4.38446 6.00127V5.99727ZM4.38446 5.99727L4.75871 6.03027" stroke="white" stroke-width="0.75"/>
</g>
<g id="Mask group_2">
<mask id="mask1_1395_984" style="mask-type:luminance" maskUnits="userSpaceOnUse" x="3" y="5" width="10" height="16">
<g id="Group_3">
<g id="Vector_6">
<path d="M11.703 6.03027L12.0757 5.97727L12.0405 5.53027H4.40846L4.38446 5.99727V6.00127L4.38371 6.01327L4.38146 6.05927L4.37321 6.23527C4.3302 7.13073 4.29445 8.02678 4.26596 8.92327C4.21796 10.4633 4.18571 12.2653 4.26971 13.1073C4.43321 14.7493 5.18396 18.4373 8.08496 20.1073L8.23646 20.1943L8.38646 20.1043C11.1427 18.4623 12.0637 15.1543 12.2767 13.1093C12.384 12.0783 12.3292 10.2733 12.2542 8.77327C12.2077 7.8597 12.1497 6.94724 12.0802 6.03627L12.0772 5.99327L12.0765 5.98127V5.97827L11.703 6.03027Z" fill="white"/>
<path d="M4.38446 5.99727L4.40846 5.53027H12.0405L12.0757 5.97727L11.703 6.03027L12.0765 5.97827V5.98127L12.0772 5.99327L12.0802 6.03627C12.1497 6.94724 12.2077 7.8597 12.2542 8.77327C12.3292 10.2733 12.384 12.0783 12.2767 13.1093C12.0637 15.1543 11.1427 18.4623 8.38646 20.1043L8.23646 20.1943L8.08496 20.1073C5.18396 18.4373 4.43321 14.7493 4.26971 13.1073C4.18571 12.2653 4.21796 10.4633 4.26596 8.92327C4.29445 8.02679 4.3302 7.13073 4.37321 6.23527L4.38146 6.05927L4.38371 6.01327L4.38446 6.00127V5.99727ZM4.38446 5.99727L4.75871 6.03027" stroke="white" stroke-width="0.75"/>
</g>
</g>
</mask>
<g mask="url(#mask1_1395_984)">
<g id="Group_4">
<path id="Vector_7" fill-rule="evenodd" clip-rule="evenodd" d="M7.69249 6.58984C7.69249 6.58984 7.84774 6.90484 7.91674 7.38584C7.98649 7.86584 7.99774 8.70984 7.99774 8.70984L6.52924 8.46784V9.95384L8.03074 9.69884L8.00674 11.1088C8.00674 11.1088 7.55674 11.1708 7.18924 11.1088C6.82024 11.0458 6.09424 10.7858 6.09424 10.7858V12.4858C6.09424 12.4858 6.83149 12.1718 7.18924 12.0998C7.54549 12.0268 8.00674 12.0998 8.00674 12.0998V14.1878H8.61649V12.0998C8.61649 12.0998 9.28249 12.0218 9.68074 12.1058C10.0782 12.1898 10.4555 12.4858 10.4555 12.4858V10.7858C10.4555 10.7858 10.073 11.0398 9.71299 11.1028C9.35299 11.1658 8.61649 11.1078 8.61649 11.1078L8.64049 9.69784C8.64049 9.69784 9.13924 9.62984 9.41974 9.67984C9.69949 9.73084 10.0497 9.95384 10.0497 9.95384V8.46784C10.0497 8.46784 9.70849 8.71584 9.43924 8.76084C9.17074 8.80584 8.60749 8.70984 8.60749 8.70984C8.60749 8.70984 8.61799 7.83984 8.67499 7.41584C8.73349 6.99284 8.89699 6.58984 8.89699 6.58984H7.69249Z" fill="#F7FCFF"/>
<path id="Vector_8" fill-rule="evenodd" clip-rule="evenodd" d="M5.17261 16.2445C5.17261 16.2445 5.50261 15.3015 6.03886 15.1225C6.57511 14.9425 7.13761 15.6825 7.13761 15.6825C7.13761 15.6825 7.48111 14.1875 8.31811 14.1875C9.15511 14.1875 9.44911 15.6835 9.44911 15.6835C9.44911 15.6835 9.80611 15.1225 10.3191 15.1225C10.8336 15.1225 11.3091 16.2445 11.3091 16.2445C11.3091 16.2445 9.77536 19.9585 8.24161 19.9585C6.70711 19.9585 5.17261 16.2445 5.17261 16.2445Z" fill="#2E42A5"/>
</g>
</g>
</g>
</g>
</g>
</g>
</g>
</g>
<defs>
<clipPath id="clip0_1395_984">
<rect width="24" height="24" rx="12" fill="white"/>
</clipPath>
</defs>
</svg>
